<svg width="24" height="24" viewBox="0 0 24 24" fill="none" xmlns="http://www.w3.org/2000/svg">
<path d="M10.0713 19.7508H14.3154C14.1596 20.1891 13.872 20.5684 13.4921 20.8366C13.1121 21.1048 12.6584 21.2488 12.1934 21.2488C11.7283 21.2488 11.2746 21.1048 10.8946 20.8366C10.5147 20.5684 10.2271 20.1891 10.0713 19.7508V19.7508ZM12.194 22.7508C13.1885 22.7505 14.1422 22.3552 14.8453 21.6518C15.5484 20.9485 15.9434 19.9947 15.9434 19.0002C15.9434 18.8013 15.8644 18.6106 15.724 18.4698C15.5835 18.3291 15.3929 18.2499 15.194 18.2495H5.19402C4.78068 18.2495 4.47268 18.2308 4.26202 18.1962C4.28602 18.1482 4.31535 18.0935 4.35002 18.0322C4.39802 17.9455 4.82202 17.2255 4.96335 16.9655C5.59935 15.7988 5.94335 14.7308 5.94335 13.5002V9.00018C5.94335 5.45885 8.68602 2.74951 12.194 2.74951C15.7007 2.74951 18.4434 5.45885 18.4434 9.00018V13.5002C18.4434 14.7308 18.7874 15.7988 19.4247 16.9668C19.566 17.2255 19.99 17.9455 20.038 18.0322C20.0727 18.0935 20.1007 18.1482 20.1247 18.1962C19.9154 18.2308 19.606 18.2495 19.194 18.2495C19.0027 18.2609 18.8229 18.345 18.6914 18.4845C18.56 18.624 18.4868 18.8085 18.4868 19.0002C18.4868 19.1919 18.56 19.3763 18.6914 19.5159C18.8229 19.6554 19.0027 19.7394 19.194 19.7508C20.878 19.7508 21.722 19.4562 21.722 18.4148C21.722 18.0682 21.5994 17.7562 21.3487 17.3042C21.2887 17.1935 20.8674 16.4788 20.7407 16.2482C20.214 15.2828 19.9434 14.4415 19.9434 13.5002V9.00018C19.9434 4.62685 16.526 1.24951 12.194 1.24951C7.86202 1.24951 4.44335 4.62685 4.44335 9.00018V13.5002C4.44335 14.4415 4.17268 15.2828 3.64602 16.2468C3.52068 16.4788 3.09935 17.1935 3.03802 17.3042C2.78735 17.7562 2.66602 18.0668 2.66602 18.4148C2.66602 19.4548 3.50868 19.7508 5.19402 19.7508H8.51935C8.69235 20.5978 9.15257 21.3589 9.82217 21.9056C10.4918 22.4522 11.3296 22.7508 12.194 22.7508V22.7508Z" stroke="white" stroke-width="0.3"/>
<mask id="mask0_355_2514" style="mask-type:alpha" maskUnits="userSpaceOnUse" x="2" y="1" width="20" height="22">
<path d="M10.0713 19.7508H14.3154C14.1596 20.1891 13.872 20.5684 13.4921 20.8366C13.1121 21.1048 12.6584 21.2488 12.1934 21.2488C11.7283 21.2488 11.2746 21.1048 10.8946 20.8366C10.5147 20.5684 10.2271 20.1891 10.0713 19.7508ZM12.194 22.7508C13.1885 22.7505 14.1422 22.3552 14.8453 21.6518C15.5484 20.9485 15.9434 19.9947 15.9434 19.0002C15.9434 18.8013 15.8644 18.6106 15.724 18.4698C15.5835 18.3291 15.3929 18.2499 15.194 18.2495H5.19402C4.78068 18.2495 4.47268 18.2308 4.26202 18.1962C4.28602 18.1482 4.31535 18.0935 4.35002 18.0322C4.39802 17.9455 4.82202 17.2255 4.96335 16.9655C5.59935 15.7988 5.94335 14.7308 5.94335 13.5002V9.00018C5.94335 5.45885 8.68602 2.74951 12.194 2.74951C15.7007 2.74951 18.4434 5.45885 18.4434 9.00018V13.5002C18.4434 14.7308 18.7874 15.7988 19.4247 16.9668C19.566 17.2255 19.99 17.9455 20.038 18.0322C20.0727 18.0935 20.1007 18.1482 20.1247 18.1962C19.9153 18.2308 19.606 18.2495 19.194 18.2495C19.0027 18.2609 18.8229 18.345 18.6914 18.4845C18.56 18.624 18.4868 18.8085 18.4868 19.0002C18.4868 19.1919 18.56 19.3763 18.6914 19.5159C18.8229 19.6554 19.0027 19.7394 19.194 19.7508C20.878 19.7508 21.722 19.4562 21.722 18.4148C21.722 18.0682 21.5993 17.7562 21.3487 17.3042C21.2887 17.1935 20.8674 16.4788 20.7407 16.2482C20.214 15.2828 19.9434 14.4415 19.9434 13.5002V9.00018C19.9434 4.62685 16.526 1.24951 12.194 1.24951C7.86202 1.24951 4.44335 4.62685 4.44335 9.00018V13.5002C4.44335 14.4415 4.17268 15.2828 3.64602 16.2468C3.52068 16.4788 3.09935 17.1935 3.03802 17.3042C2.78735 17.7562 2.66602 18.0668 2.66602 18.4148C2.66602 19.4548 3.50868 19.7508 5.19402 19.7508H8.51935C8.69235 20.5978 9.15257 21.3589 9.82217 21.9056C10.4918 22.4522 11.3296 22.7508 12.194 22.7508Z" fill="black"/>
</mask>
<g mask="url(#mask0_355_2514)">
<path fill-rule="evenodd" clip-rule="evenodd" d="M0 0H24V24H0V0Z" fill="white"/>
</g>
</svg>
