<svg width="21" height="22" viewBox="0 0 21 22" fill="none" xmlns="http://www.w3.org/2000/svg">
<path d="M10.7601 0C5.10327 0 0.517578 4.30619 0.517578 9.61969C0.517578 13.544 2.13632 15.4179 4.35328 17.1243L4.36428 17.1287V21.7342C4.36428 21.9531 4.60841 22.0759 4.77996 21.9464L8.66406 19.0183L8.74763 19.054C9.39865 19.1769 10.0717 19.2394 10.7601 19.2394C16.4168 19.2394 21.0003 14.9332 21.0003 9.61969C21.0003 4.30619 16.4146 0 10.7601 0ZM7.32684 12.0564C8.33195 12.0564 9.18971 11.4467 9.44923 10.5042H10.9338C10.5709 12.3178 9.18091 13.5082 7.32904 13.5082C5.17585 13.5082 3.46914 11.8778 3.46914 9.60853C3.46914 7.33929 5.17585 5.70883 7.32904 5.70883C9.2007 5.70883 10.5995 6.92162 10.9448 8.76873H9.46463C9.24029 7.76589 8.35175 7.14051 7.32904 7.14051C5.88185 7.14051 4.91852 8.18802 4.91852 9.60853C4.91852 11.029 6.01381 12.0564 7.32904 12.0564M17.114 13.3586H15.7526V10.2406C15.7526 9.52365 15.3414 9.13726 14.7079 9.13726C14.0019 9.13726 13.5467 9.57726 13.5467 10.4662V13.3586H12.1853V5.7334H13.5467V8.60122C13.8722 8.09868 14.4 7.85076 15.117 7.85076C15.6977 7.85076 16.1727 8.04284 16.54 8.44041C16.9205 8.83574 17.1096 9.37178 17.1096 10.0686V13.3586H17.114Z" fill="white"/>
</svg>
