<svg width="166" height="35" viewBox="0 0 166 35" fill="none" xmlns="http://www.w3.org/2000/svg">
<g opacity="0.6" clip-path="url(#clip0_355_10952)">
<path d="M39.8996 30.4001C40.2296 30.0701 40.6396 29.9001 41.1396 29.9001C41.8096 29.9001 42.2996 30.1201 42.6196 30.5701C42.7896 30.8201 42.8796 31.0701 42.8996 31.3201H42.0596C42.0096 31.1301 41.9396 30.9801 41.8496 30.8801C41.6996 30.7101 41.4696 30.6201 41.1796 30.6201C40.8896 30.6201 40.6396 30.7401 40.4696 30.9901C40.2996 31.2401 40.2096 31.5901 40.2096 32.0401C40.2096 32.4901 40.2996 32.8301 40.4796 33.0601C40.6596 33.2901 40.8996 33.4001 41.1796 33.4001C41.4596 33.4001 41.6896 33.3001 41.8396 33.1101C41.9196 33.0001 41.9896 32.8501 42.0496 32.6401H42.8896C42.8196 33.0801 42.6296 33.4401 42.3396 33.7101C42.0396 33.9901 41.6596 34.1201 41.1996 34.1201C40.6196 34.1201 40.1696 33.9301 39.8396 33.5601C39.5096 33.1901 39.3496 32.6701 39.3496 32.0201C39.3496 31.3101 39.5396 30.7701 39.9096 30.3901L39.8996 30.4001Z" fill="white"/>
<path d="M43.3896 34.0102V29.9602H44.2296V31.5102H45.8096V29.9602H46.6496V34.0102H45.8096V32.2102H44.2296V34.0102H43.3896Z" fill="white"/>
<path d="M47.2598 29.9602H48.1198V32.4402C48.1198 32.7202 48.1498 32.9202 48.2198 33.0502C48.3198 33.2802 48.5498 33.3902 48.8898 33.3902C49.2298 33.3902 49.4598 33.2802 49.5598 33.0502C49.6298 32.9202 49.6598 32.7202 49.6598 32.4402V29.9602H50.5198V32.4502C50.5198 32.8802 50.4498 33.2202 50.3198 33.4502C50.0698 33.8902 49.5898 34.1102 48.8898 34.1102C48.1898 34.1102 47.7098 33.8902 47.4598 33.4502C47.3298 33.2102 47.2598 32.8802 47.2598 32.4502V29.9602V29.9602Z" fill="white"/>
<path d="M51.1294 29.9602H52.0094L53.6294 32.7902V29.9602H54.4194V34.0102H53.5794L51.9194 31.1302V34.0102H51.1294V29.9602V29.9602Z" fill="white"/>
<path d="M57.7196 31.2301C57.6596 30.9501 57.4996 30.7601 57.2496 30.6501C57.1096 30.5901 56.9596 30.5601 56.7896 30.5601C56.4596 30.5601 56.1996 30.6801 55.9896 30.9301C55.7796 31.1701 55.6796 31.5401 55.6796 32.0301C55.6796 32.5201 55.7896 32.8701 56.0196 33.0801C56.2496 33.2901 56.5096 33.3901 56.7996 33.3901C57.0896 33.3901 57.3196 33.3101 57.4996 33.1501C57.6796 32.9901 57.7896 32.7801 57.8296 32.5201H56.8896V31.8401H58.5796V34.0101H58.0096L57.9296 33.5101C57.7696 33.7001 57.6196 33.8301 57.4896 33.9101C57.2696 34.0401 56.9896 34.1101 56.6696 34.1101C56.1296 34.1101 55.6996 33.9201 55.3496 33.5601C54.9896 33.1901 54.8096 32.6801 54.8096 32.0301C54.8096 31.3801 54.9896 30.8501 55.3496 30.4601C55.7096 30.0701 56.1896 29.8701 56.7796 29.8701C57.2896 29.8701 57.7096 30.0001 58.0196 30.2601C58.3296 30.5201 58.5096 30.8401 58.5596 31.2301H57.7196V31.2301Z" fill="white"/>
<path d="M59.5796 30.4001C59.9096 30.0701 60.3196 29.9001 60.8196 29.9001C61.4896 29.9001 61.9896 30.1201 62.2996 30.5701C62.4696 30.8201 62.5596 31.0701 62.5796 31.3201H61.7396C61.6896 31.1301 61.6196 30.9801 61.5296 30.8801C61.3796 30.7101 61.1596 30.6201 60.8596 30.6201C60.5596 30.6201 60.3196 30.7401 60.1496 30.9901C59.9796 31.2401 59.8896 31.5901 59.8896 32.0401C59.8896 32.4901 59.9796 32.8301 60.1696 33.0601C60.3496 33.2901 60.5896 33.4001 60.8696 33.4001C61.1496 33.4001 61.3796 33.3001 61.5296 33.1101C61.6096 33.0001 61.6796 32.8501 61.7396 32.6401H62.5796C62.5096 33.0801 62.3196 33.4401 62.0296 33.7101C61.7296 33.9901 61.3496 34.1201 60.8896 34.1201C60.3096 34.1201 59.8596 33.9301 59.5296 33.5601C59.1996 33.1901 59.0396 32.6701 59.0396 32.0201C59.0396 31.3101 59.2296 30.7701 59.5996 30.3901L59.5796 30.4001Z" fill="white"/>
<path d="M63.0596 34.0102V29.9602H63.8996V31.5102H65.4796V29.9602H66.3196V34.0102H65.4796V32.2102H63.8996V34.0102H63.0596Z" fill="white"/>
<path d="M69.9197 30.6802H67.8097V31.5402H69.7397V32.2402H67.8097V33.2902H70.0097V34.0102H66.9697V29.9602H69.9197V30.6802V30.6802Z" fill="white"/>
<path d="M73.6198 33.6501C73.3098 33.9601 72.8698 34.1201 72.2898 34.1201C71.7098 34.1201 71.2698 33.9601 70.9598 33.6501C70.5498 33.2601 70.3398 32.7101 70.3398 31.9801C70.3398 31.2501 70.5398 30.6801 70.9598 30.3101C71.2698 30.0001 71.7098 29.8401 72.2898 29.8401C72.8698 29.8401 73.3098 30.0001 73.6198 30.3101C74.0298 30.6801 74.2298 31.2401 74.2298 31.9801C74.2298 32.7201 74.0298 33.2601 73.6198 33.6501ZM73.0998 33.0301C73.2998 32.7801 73.3998 32.4301 73.3998 31.9801C73.3998 31.5301 73.2998 31.1801 73.0998 30.9301C72.8998 30.6801 72.6398 30.5601 72.2998 30.5601C71.9598 30.5601 71.6898 30.6801 71.4898 30.9301C71.2898 31.1801 71.1898 31.5301 71.1898 31.9801C71.1898 32.4301 71.2898 32.7801 71.4898 33.0301C71.6898 33.2801 71.9598 33.4001 72.2998 33.4001C72.6398 33.4001 72.8998 33.2801 73.0998 33.0301Z" fill="white"/>
<path d="M74.6794 29.9602H75.5594L77.1694 32.7902V29.9602H77.9594V34.0102H77.1194L75.4594 31.1302V34.0102H74.6694V29.9602H74.6794Z" fill="white"/>
<path d="M81.2794 31.2301C81.2194 30.9501 81.0594 30.7601 80.8094 30.6501C80.6694 30.5901 80.5194 30.5601 80.3494 30.5601C80.0194 30.5601 79.7594 30.6801 79.5494 30.9301C79.3394 31.1701 79.2394 31.5401 79.2394 32.0301C79.2394 32.5201 79.3494 32.8701 79.5794 33.0801C79.8094 33.2901 80.0694 33.3901 80.3494 33.3901C80.6294 33.3901 80.8694 33.3101 81.0494 33.1501C81.2294 32.9901 81.3394 32.7801 81.3794 32.5201H80.4394V31.8401H82.1294V34.0101H81.5594L81.4794 33.5101C81.3194 33.7001 81.1694 33.8301 81.0394 33.9101C80.8194 34.0401 80.5394 34.1101 80.2194 34.1101C79.6794 34.1101 79.2394 33.9201 78.8994 33.5601C78.5394 33.1901 78.3594 32.6801 78.3594 32.0301C78.3594 31.3801 78.5394 30.8501 78.8994 30.4601C79.2594 30.0701 79.7394 29.8701 80.3294 29.8701C80.8494 29.8701 81.2594 30.0001 81.5694 30.2601C81.8794 30.5201 82.0594 30.8401 82.1094 31.2301H81.2694H81.2794Z" fill="white"/>
<path d="M82.7395 29.9602H83.6195L85.2295 32.7902V29.9602H86.0195V34.0102H85.1795L83.5195 31.1302V34.0102H82.7295V29.9602H82.7395Z" fill="white"/>
<path d="M87.7798 29.9602H88.7398L90.1798 34.0102H89.2598L88.9898 33.1802H87.4898L87.2198 34.0102H86.3398L87.7898 29.9602H87.7798ZM87.7198 32.4802H88.7598L88.2498 30.8902L87.7198 32.4802Z" fill="white"/>
<path d="M93.1895 29.9602H94.4095V34.0102H93.6195V31.2702C93.6195 31.1902 93.6195 31.0802 93.6195 30.9402C93.6195 30.8002 93.6195 30.6902 93.6195 30.6102L92.8495 34.0102H92.0295L91.2695 30.6102C91.2695 30.6902 91.2695 30.8002 91.2695 30.9402C91.2695 31.0802 91.2695 31.1902 91.2695 31.2702V34.0102H90.4795V29.9602H91.7095L92.4495 33.1502L93.1795 29.9602H93.1895Z" fill="white"/>
<path d="M97.3597 30.0502C97.6397 30.1402 97.8697 30.3202 98.0497 30.5602C98.1897 30.7602 98.2897 30.9802 98.3397 31.2102C98.3897 31.4402 98.4197 31.6702 98.4197 31.8802C98.4197 32.4202 98.3097 32.8702 98.0997 33.2502C97.8097 33.7502 97.3497 34.0002 96.7397 34.0002H94.9897V29.9502H96.7397C96.9897 29.9502 97.1997 29.9802 97.3697 30.0402L97.3597 30.0502ZM95.8097 30.6602V33.3102H96.5897C96.9897 33.3102 97.2697 33.1102 97.4297 32.7202C97.5197 32.5002 97.5597 32.2402 97.5597 31.9402C97.5597 31.5302 97.4997 31.2102 97.3697 30.9902C97.2397 30.7702 96.9797 30.6602 96.5997 30.6602H95.8197H95.8097Z" fill="white"/>
<path d="M101.98 33.6501C101.67 33.9601 101.23 34.1201 100.65 34.1201C100.07 34.1201 99.6297 33.9601 99.3197 33.6501C98.9097 33.2601 98.6997 32.7101 98.6997 31.9801C98.6997 31.2501 98.9097 30.6801 99.3197 30.3101C99.6297 30.0001 100.07 29.8401 100.65 29.8401C101.23 29.8401 101.67 30.0001 101.98 30.3101C102.39 30.6801 102.59 31.2401 102.59 31.9801C102.59 32.7201 102.39 33.2601 101.98 33.6501ZM101.46 33.0301C101.66 32.7801 101.76 32.4301 101.76 31.9801C101.76 31.5301 101.66 31.1801 101.46 30.9301C101.26 30.6801 101 30.5601 100.66 30.5601C100.32 30.5601 100.05 30.6801 99.8497 30.9301C99.6497 31.1801 99.5497 31.5301 99.5497 31.9801C99.5497 32.4301 99.6497 32.7801 99.8497 33.0301C100.05 33.2801 100.32 33.4001 100.66 33.4001C101 33.4001 101.26 33.2801 101.46 33.0301Z" fill="white"/>
<path d="M107.53 33.6501C107.22 33.9601 106.78 34.1201 106.2 34.1201C105.62 34.1201 105.18 33.9601 104.87 33.6501C104.46 33.2601 104.25 32.7101 104.25 31.9801C104.25 31.2501 104.46 30.6801 104.87 30.3101C105.18 30.0001 105.62 29.8401 106.2 29.8401C106.78 29.8401 107.22 30.0001 107.53 30.3101C107.94 30.6801 108.14 31.2401 108.14 31.9801C108.14 32.7201 107.94 33.2601 107.53 33.6501ZM107.01 33.0301C107.21 32.7801 107.31 32.4301 107.31 31.9801C107.31 31.5301 107.21 31.1801 107.01 30.9301C106.81 30.6801 106.55 30.5601 106.21 30.5601C105.87 30.5601 105.6 30.6801 105.4 30.9301C105.2 31.1801 105.1 31.5301 105.1 31.9801C105.1 32.4301 105.2 32.7801 105.4 33.0301C105.6 33.2801 105.87 33.4001 106.21 33.4001C106.55 33.4001 106.81 33.2801 107.01 33.0301Z" fill="white"/>
<path d="M108.59 29.9602H111.47V30.6702H109.43V31.6102H111.22V32.3102H109.43V34.0102H108.59V29.9602V29.9602Z" fill="white"/>
<path d="M111.83 29.9602H114.71V30.6702H112.67V31.6102H114.46V32.3102H112.67V34.0102H111.83V29.9602V29.9602Z" fill="white"/>
<path d="M115.85 34.0102H115.01V29.9602H115.85V34.0102Z" fill="white"/>
<path d="M116.84 30.4001C117.17 30.0701 117.58 29.9001 118.08 29.9001C118.75 29.9001 119.25 30.1201 119.56 30.5701C119.73 30.8201 119.82 31.0701 119.84 31.3201H119C118.95 31.1301 118.88 30.9801 118.79 30.8801C118.64 30.7101 118.42 30.6201 118.12 30.6201C117.82 30.6201 117.58 30.7401 117.41 30.9901C117.24 31.2401 117.15 31.5901 117.15 32.0401C117.15 32.4901 117.24 32.8301 117.43 33.0601C117.61 33.2901 117.85 33.4001 118.13 33.4001C118.41 33.4001 118.64 33.3001 118.79 33.1101C118.87 33.0001 118.94 32.8501 119 32.6401H119.84C119.77 33.0801 119.58 33.4401 119.29 33.7101C118.99 33.9901 118.61 34.1201 118.15 34.1201C117.57 34.1201 117.12 33.9301 116.79 33.5601C116.46 33.1901 116.3 32.6701 116.3 32.0201C116.3 31.3101 116.49 30.7701 116.86 30.3901L116.84 30.4001Z" fill="white"/>
<path d="M123.31 30.6802H121.2V31.5402H123.13V32.2402H121.2V33.2902H123.41V34.0102H120.37V29.9602H123.32V30.6802H123.31Z" fill="white"/>
<path d="M128.83 33.6501C128.52 33.9601 128.08 34.1201 127.5 34.1201C126.92 34.1201 126.48 33.9601 126.17 33.6501C125.76 33.2601 125.55 32.7101 125.55 31.9801C125.55 31.2501 125.76 30.6801 126.17 30.3101C126.48 30.0001 126.92 29.8401 127.5 29.8401C128.08 29.8401 128.52 30.0001 128.83 30.3101C129.24 30.6801 129.44 31.2401 129.44 31.9801C129.44 32.7201 129.24 33.2601 128.83 33.6501ZM128.31 33.0301C128.51 32.7801 128.61 32.4301 128.61 31.9801C128.61 31.5301 128.51 31.1801 128.31 30.9301C128.11 30.6801 127.85 30.5601 127.51 30.5601C127.17 30.5601 126.9 30.6801 126.7 30.9301C126.5 31.1801 126.4 31.5301 126.4 31.9801C126.4 32.4301 126.5 32.7801 126.7 33.0301C126.9 33.2801 127.17 33.4001 127.51 33.4001C127.85 33.4001 128.11 33.2801 128.31 33.0301Z" fill="white"/>
<path d="M129.89 29.9602H132.77V30.6702H130.73V31.6102H132.52V32.3102H130.73V34.0102H129.89V29.9602V29.9602Z" fill="white"/>
<path d="M137.939 30.6802H135.83V31.5402H137.76V32.2402H135.83V33.2902H138.04V34.0102H135V29.9602H137.95V30.6802H137.939Z" fill="white"/>
<path d="M140.89 30.0502C141.17 30.1402 141.4 30.3202 141.58 30.5602C141.72 30.7602 141.82 30.9802 141.87 31.2102C141.92 31.4402 141.95 31.6702 141.95 31.8802C141.95 32.4202 141.84 32.8702 141.62 33.2502C141.33 33.7502 140.87 34.0002 140.26 34.0002H138.51V29.9502H140.26C140.51 29.9502 140.72 29.9802 140.89 30.0402V30.0502ZM139.34 30.6602V33.3102H140.12C140.52 33.3102 140.8 33.1102 140.96 32.7202C141.05 32.5002 141.09 32.2402 141.09 31.9402C141.09 31.5302 141.03 31.2102 140.9 30.9902C140.77 30.7702 140.51 30.6602 140.13 30.6602H139.35H139.34Z" fill="white"/>
<path d="M142.39 29.9602H143.25V32.4402C143.25 32.7202 143.28 32.9202 143.35 33.0502C143.45 33.2802 143.68 33.3902 144.02 33.3902C144.36 33.3902 144.59 33.2802 144.69 33.0502C144.76 32.9202 144.79 32.7202 144.79 32.4402V29.9602H145.65V32.4502C145.65 32.8802 145.58 33.2202 145.45 33.4502C145.2 33.8902 144.72 34.1102 144.02 34.1102C143.32 34.1102 142.84 33.8902 142.59 33.4502C142.46 33.2102 142.39 32.8802 142.39 32.4502V29.9602V29.9602Z" fill="white"/>
<path d="M146.649 30.4001C146.979 30.0701 147.389 29.9001 147.889 29.9001C148.559 29.9001 149.049 30.1201 149.369 30.5701C149.539 30.8201 149.629 31.0701 149.649 31.3201H148.809C148.759 31.1301 148.689 30.9801 148.599 30.8801C148.449 30.7101 148.229 30.6201 147.929 30.6201C147.629 30.6201 147.389 30.7401 147.219 30.9901C147.049 31.2401 146.959 31.5901 146.959 32.0401C146.959 32.4901 147.049 32.8301 147.239 33.0601C147.419 33.2901 147.659 33.4001 147.939 33.4001C148.219 33.4001 148.449 33.3001 148.599 33.1101C148.679 33.0001 148.749 32.8501 148.809 32.6401H149.649C149.579 33.0801 149.389 33.4401 149.099 33.7101C148.809 33.9801 148.419 34.1201 147.959 34.1201C147.379 34.1201 146.929 33.9301 146.599 33.5601C146.269 33.1901 146.109 32.6701 146.109 32.0201C146.109 31.3101 146.299 30.7701 146.669 30.3901L146.649 30.4001Z" fill="white"/>
<path d="M151.299 29.9602H152.259L153.699 34.0102H152.779L152.509 33.1802H151.009L150.739 34.0102H149.859L151.309 29.9602H151.299ZM151.239 32.4802H152.279L151.769 30.8902L151.239 32.4802Z" fill="white"/>
<path d="M156.56 29.9602V30.6802H155.34V34.0102H154.5V30.6802H153.28V29.9602H156.57H156.56Z" fill="white"/>
<path d="M157.61 34.0102H156.77V29.9602H157.61V34.0102Z" fill="white"/>
<path d="M161.33 33.6501C161.02 33.9601 160.58 34.1201 160 34.1201C159.42 34.1201 158.98 33.9601 158.67 33.6501C158.26 33.2601 158.05 32.7101 158.05 31.9801C158.05 31.2501 158.26 30.6801 158.67 30.3101C158.98 30.0001 159.42 29.8401 160 29.8401C160.58 29.8401 161.02 30.0001 161.33 30.3101C161.74 30.6801 161.94 31.2401 161.94 31.9801C161.94 32.7201 161.74 33.2601 161.33 33.6501ZM160.81 33.0301C161.01 32.7801 161.11 32.4301 161.11 31.9801C161.11 31.5301 161.01 31.1801 160.81 30.9301C160.61 30.6801 160.35 30.5601 160.01 30.5601C159.67 30.5601 159.4 30.6801 159.2 30.9301C159 31.1801 158.9 31.5301 158.9 31.9801C158.9 32.4301 159 32.7801 159.2 33.0301C159.4 33.2801 159.67 33.4001 160.01 33.4001C160.35 33.4001 160.61 33.2801 160.81 33.0301Z" fill="white"/>
<path d="M162.399 29.9602H163.289L164.899 32.7902V29.9602H165.689V34.0102H164.849L163.189 31.1302V34.0102H162.399V29.9602V29.9602Z" fill="white"/>
<path d="M72.4392 13.6399H69.1392V15.2999H72.4392V13.6399Z" fill="white"/>
<path d="M62.5494 12.1199C62.5494 12.1199 62.1994 15.8799 58.0894 17.4699L59.1594 18.8399C59.1594 18.8399 64.0294 17.3399 64.7994 12.3999L62.5594 12.1199H62.5494Z" fill="white"/>
<path d="M65.1792 12.1199C65.1792 12.1199 65.5292 15.8799 69.6392 17.4699L68.5692 18.8399C68.5692 18.8399 63.6992 17.3399 62.9292 12.3999L65.1792 12.1199Z" fill="white"/>
<path d="M65.0891 9.61987H62.5991V11.4699H65.0891V9.61987Z" fill="white"/>
<path d="M69.2395 11.6699C69.2395 12.1199 68.8695 12.4899 68.4195 12.4899H59.2595C58.7995 12.4899 58.4395 12.1199 58.4395 11.6699C58.4395 11.2099 58.8095 10.8499 59.2595 10.8499H68.4195C68.8695 10.8499 69.2395 11.2199 69.2395 11.6699Z" fill="white"/>
<path d="M73.4494 23.7399C73.4494 24.3799 72.9294 24.1099 72.2894 24.1099C71.6494 24.1099 71.1294 23.5899 71.1294 22.9499V10.7699C71.1294 10.1299 71.6494 9.60986 72.2894 9.60986C72.9294 9.60986 73.4494 10.1299 73.4494 10.7699V23.7399V23.7399Z" fill="white"/>
<path d="M73.4493 23.62C73.4493 25.91 70.4393 27.78 66.7393 27.78C63.0393 27.78 60.0293 25.92 60.0293 23.62C60.0293 21.32 63.0393 19.46 66.7393 19.46C70.4393 19.46 73.4493 21.32 73.4493 23.62ZM66.7393 21C64.4293 21 62.5493 22.17 62.5493 23.62C62.5493 25.07 64.4193 26.24 66.7393 26.24C69.0593 26.24 70.9293 25.07 70.9293 23.62C70.9293 22.17 69.0593 21 66.7393 21Z" fill="white"/>
<path d="M164.98 13.6399H161.68V15.2999H164.98V13.6399Z" fill="white"/>
<path d="M155.089 12.1199C155.089 12.1199 154.739 15.8799 150.629 17.4699L151.699 18.8399C151.699 18.8399 156.569 17.3399 157.339 12.3999L155.089 12.1199V12.1199Z" fill="white"/>
<path d="M157.72 12.1199C157.72 12.1199 158.07 15.8799 162.18 17.4699L161.11 18.8399C161.11 18.8399 156.24 17.3399 155.47 12.3999L157.71 12.1199H157.72Z" fill="white"/>
<path d="M157.63 9.61987H155.14V11.4699H157.63V9.61987Z" fill="white"/>
<path d="M161.789 11.6699C161.789 12.1199 161.419 12.4899 160.959 12.4899H151.799C151.349 12.4899 150.979 12.1199 150.979 11.6699C150.979 11.2099 151.349 10.8499 151.799 10.8499H160.959C161.419 10.8499 161.789 11.2199 161.789 11.6699Z" fill="white"/>
<path d="M166 23.7399C166 24.3799 165.48 24.1099 164.84 24.1099C164.2 24.1099 163.68 23.5899 163.68 22.9499V10.7699C163.68 10.1299 164.2 9.60986 164.84 9.60986C165.48 9.60986 166 10.1299 166 10.7699V23.7399V23.7399Z" fill="white"/>
<path d="M165.99 23.62C165.99 25.91 162.98 27.78 159.28 27.78C155.58 27.78 152.56 25.92 152.56 23.62C152.56 21.32 155.57 19.46 159.28 19.46C162.99 19.46 165.99 21.32 165.99 23.62ZM159.28 21C156.97 21 155.09 22.17 155.09 23.62C155.09 25.07 156.96 26.24 159.28 26.24C161.6 26.24 163.46 25.07 163.46 23.62C163.46 22.17 161.59 21 159.28 21Z" fill="white"/>
<path d="M93.2995 13.1099H89.9995V14.7699H93.2995V13.1099Z" fill="white"/>
<path d="M90.6996 26.6398C90.6996 27.0998 90.3296 27.4598 89.8696 27.4598H79.4396C78.9796 27.4598 78.6196 27.0898 78.6196 26.6398C78.6196 26.1798 78.9896 25.8198 79.4396 25.8198H89.8696C90.3296 25.8198 90.6996 26.1898 90.6996 26.6398V26.6398Z" fill="white"/>
<path d="M87.2495 17.4098C87.2495 17.8598 86.8795 18.2298 86.4195 18.2298H78.3395C77.8895 18.2298 77.5195 17.8598 77.5195 17.4098C77.5195 16.9498 77.8895 16.5798 78.3395 16.5798H86.4195C86.8695 16.5798 87.2495 16.9498 87.2495 17.4098Z" fill="white"/>
<path d="M91.1896 19.2599V10.7699C91.1896 10.1299 90.6696 9.60986 90.0296 9.60986C89.3896 9.60986 88.8696 10.1299 88.8696 10.7699V19.2599H91.1896V19.2599Z" fill="white"/>
<path d="M91.1896 27.4598V21.1498C91.1896 20.6798 90.6696 20.2898 90.0296 20.2898C89.3896 20.2898 88.8696 20.6798 88.8696 21.1498V27.4598H91.1896Z" fill="white"/>
<path d="M79.0495 16.9498V11.1698C79.0495 10.5298 78.5295 10.0098 77.8895 10.0098C77.2495 10.0098 76.7295 10.5298 76.7295 11.1698V16.9498H79.0495Z" fill="white"/>
<path d="M85.8096 16.5899H87.4296C87.4296 16.5899 88.5496 16.5799 89.1096 15.8499L89.2896 17.2199C89.2896 17.2199 88.2496 18.3099 85.9196 18.2399" fill="white"/>
<path d="M91.1895 20.2397H77.9395V21.7797H91.1895V20.2397Z" fill="white"/>
<path d="M79.5393 16.8398C79.5393 17.6098 78.9093 18.2398 78.1393 18.2398C77.3693 18.2398 76.7393 17.6098 76.7393 16.8398" fill="white"/>
<path d="M79.7797 16.5698C79.3797 16.5698 79.0497 16.2398 79.0497 15.8398L78.4497 16.0598L78.4697 17.0798L79.6897 17.2098L79.7797 16.5698V16.5698Z" fill="white"/>
<path d="M80.9897 25.8198C80.5897 25.8198 80.2597 25.4898 80.2597 25.0898L79.6597 25.3098L79.6797 26.3298L80.8997 26.4598L80.9897 25.8198V25.8198Z" fill="white"/>
<path d="M80.2595 26.1597V20.2397H77.9395V26.1097L80.2595 26.1597Z" fill="white"/>
<path d="M77.9395 26.0599C77.9395 26.8299 78.5695 27.4599 79.3395 27.4599C80.1095 27.4599 80.7395 26.8299 80.7395 26.0599L79.1895 25.6799L77.9395 26.0599V26.0599Z" fill="white"/>
<path d="M111.48 22.55C111.48 23 111.11 23.37 110.66 23.37H95.6198C95.1698 23.37 94.7998 23 94.7998 22.55C94.7998 22.09 95.1698 21.73 95.6198 21.73H110.66C111.12 21.73 111.48 22.1 111.48 22.55Z" fill="white"/>
<path d="M110.16 10.85C110.16 11.31 109.79 11.67 109.34 11.67H97.3796C96.9296 11.67 96.5596 11.3 96.5596 10.85C96.5596 10.39 96.9296 10.03 97.3796 10.03H109.34C109.8 10.03 110.16 10.4 110.16 10.85Z" fill="white"/>
<path d="M110.16 16.9101C110.16 17.3701 109.8 17.7401 109.37 17.7401H97.8496C97.4096 17.7401 97.0596 17.3701 97.0596 16.9101C97.0596 16.4501 97.4196 16.0901 97.8496 16.0901H109.37C109.81 16.0901 110.16 16.4601 110.16 16.9101Z" fill="white"/>
<path d="M104.33 22.74V19.96C104.33 19.32 103.8 18.8 103.15 18.8C102.5 18.8 101.96 19.32 101.96 19.96V22.74H104.33Z" fill="white"/>
<path d="M99.3197 16.1001C98.9197 16.1001 98.5897 15.7701 98.5897 15.3701L97.9897 15.5901L98.0097 16.6101L99.2297 16.7401L99.3197 16.0901V16.1001Z" fill="white"/>
<path d="M96.2798 16.33C96.2798 17.1 96.9098 17.73 97.6798 17.73C98.4498 17.73 99.0798 17.1 99.0798 16.33L97.5298 15.95L96.2798 16.33V16.33Z" fill="white"/>
<path d="M98.5998 16.63V10.03H96.2798V16.37L98.5998 16.63Z" fill="white"/>
<path d="M130.179 22.6C130.179 23.06 129.809 23.42 129.359 23.42H114.429C113.969 23.42 113.609 23.05 113.609 22.6C113.609 22.14 113.979 21.78 114.429 21.78H129.359C129.819 21.78 130.179 22.15 130.179 22.6Z" fill="white"/>
<path d="M124.13 21.8099V17.36C124.13 16.72 123.61 16.2 122.97 16.2C122.33 16.2 121.81 16.72 121.81 17.36V21.8099H124.13Z" fill="white"/>
<path d="M119.509 21.8099V17.36C119.509 16.72 118.989 16.2 118.349 16.2C117.709 16.2 117.189 16.72 117.189 17.36V21.8099H119.509Z" fill="white"/>
<path d="M126.439 17.1499V19.5599C126.439 19.5599 126.329 21.4499 125.589 22.0499L127.289 21.8499C127.289 21.8499 128.749 20.8199 128.749 17.1499H126.449H126.439Z" fill="white"/>
<path d="M125.679 11.67C126.089 11.67 126.409 12 126.409 12.4L127.009 12.18L126.989 11.16L125.769 11.03L125.679 11.67Z" fill="white"/>
<path d="M128.739 11.43C128.739 10.66 128.109 10.03 127.339 10.03C126.569 10.03 125.939 10.66 125.939 11.43L127.489 11.81L128.739 11.43V11.43Z" fill="white"/>
<path d="M126.419 11.4899V17.2199H128.739V11.4299L126.419 11.4899Z" fill="white"/>
<path d="M127.369 10.03H115.769C115.309 10.03 114.939 10.4 114.939 10.85C114.939 11.3 115.309 11.67 115.769 11.67H127.369V10.02V10.03Z" fill="white"/>
<path d="M148.82 18.9199C148.82 19.3699 148.45 19.7399 148 19.7399H133.07C132.61 19.7399 132.25 19.3699 132.25 18.9199C132.25 18.4599 132.62 18.0999 133.07 18.0999H148C148.46 18.0999 148.82 18.4699 148.82 18.9199Z" fill="white"/>
<path d="M147.299 13.3299C147.299 15.4899 144.289 17.2399 140.579 17.2399C136.869 17.2399 133.859 15.4899 133.859 13.3299C133.859 11.1699 136.869 9.41992 140.579 9.41992C144.289 9.41992 147.299 11.1699 147.299 13.3299V13.3299ZM140.579 10.8599C138.269 10.8599 136.389 11.9599 136.389 13.3299C136.389 14.6999 138.259 15.7999 140.579 15.7999C142.899 15.7999 144.769 14.6899 144.769 13.3299C144.769 11.9699 142.889 10.8599 140.579 10.8599Z" fill="white"/>
<path d="M138.989 22.44V19.36C138.989 18.72 138.469 18.2 137.829 18.2C137.189 18.2 136.669 18.72 136.669 19.36V22.44H138.989V22.44Z" fill="white"/>
<path d="M144.73 22.44V19.36C144.73 18.72 144.21 18.2 143.57 18.2C142.93 18.2 142.41 18.72 142.41 19.36V22.44H144.73V22.44Z" fill="white"/>
<path d="M144.56 23.2399C144.96 23.2399 145.29 23.5699 145.29 23.9699L145.89 23.7499L145.87 22.7299L144.65 22.5999L144.56 23.2399V23.2399Z" fill="white"/>
<path d="M147.599 22.9798C147.599 22.2098 146.969 21.5798 146.199 21.5798C145.429 21.5798 144.919 22.2098 144.919 22.9798L146.349 23.3598L147.599 22.9798Z" fill="white"/>
<path d="M147.61 22.96H145.29V27.45H147.61V22.96Z" fill="white"/>
<path d="M146.159 21.5798H134.299C133.839 21.5798 133.479 21.9498 133.479 22.3998C133.479 22.8498 133.849 23.2198 134.299 23.2198H146.159V21.5698V21.5798Z" fill="white"/>
<path d="M48.6596 9.61987H46.1196V11.4699H48.6596V9.61987Z" fill="white"/>
<path d="M48.6596 18.8699H46.1196V20.7199H48.6596V18.8699Z" fill="white"/>
<path d="M54.5495 11.6699C54.5495 12.1199 54.1695 12.4899 53.6995 12.4899H41.0995C40.6295 12.4899 40.2495 12.1199 40.2495 11.6699C40.2495 11.2099 40.6295 10.8499 41.0995 10.8499H53.6995C54.1695 10.8499 54.5495 11.2199 54.5495 11.6699Z" fill="white"/>
<path d="M55.7496 18.6999C55.7496 19.1599 55.3796 19.5299 54.9196 19.5299H39.8796C39.4196 19.5299 39.0596 19.1599 39.0596 18.6999C39.0596 18.2399 39.4296 17.8699 39.8796 17.8699H54.9196C55.3796 17.8699 55.7496 18.2399 55.7496 18.6999Z" fill="white"/>
<path d="M48.6195 11.0999C48.6195 11.0999 48.8595 16.8199 40.3595 16.8199L39.7095 15.3599C39.7095 15.3599 46.5295 15.3999 46.0995 10.8699L48.6195 11.0999V11.0999Z" fill="white"/>
<path d="M46.2194 11.0999C46.2194 11.0999 45.9794 16.8199 54.4894 16.8199L55.1394 15.3599C55.1394 15.3599 48.3194 15.3999 48.7494 10.8699L46.2294 11.0999H46.2194Z" fill="white"/>
<path d="M54.3795 24.0199C54.3795 26.0499 51.2695 27.6899 47.4195 27.6899C43.5695 27.6899 40.4595 26.0499 40.4595 24.0199C40.4595 21.9899 43.5695 20.3499 47.4195 20.3499C51.2695 20.3499 54.3795 21.9899 54.3795 24.0199V24.0199ZM47.4195 21.7099C45.0395 21.7099 43.1195 22.7399 43.1195 24.0199C43.1195 25.2999 45.0495 26.3299 47.4195 26.3299C49.7895 26.3299 51.7195 25.2999 51.7195 24.0199C51.7195 22.7399 49.7895 21.7099 47.4195 21.7099Z" fill="white"/>
<path d="M24.0597 1.47995C23.3697 -4.88758e-05 21.1997 -0.440049 19.2097 0.479951C17.2097 1.39995 16.1497 3.34995 16.8297 4.81995C17.5097 6.28995 19.6897 6.73995 21.6797 5.80995C23.6797 4.88995 24.7397 2.93995 24.0597 1.46995V1.47995Z" fill="white"/>
<path d="M18.6199 30.54C19.3099 30.29 16.8899 31.45 16.2599 31.78C14.3399 32.79 12.0399 33.33 10.2599 33.71C6.69994 34.47 3.63994 33.93 1.90994 31.92C-1.55006 27.89 1.63994 19.47 9.02994 13.13C12.7299 9.96002 16.7799 7.90002 20.3299 7.14002C22.1099 6.76002 23.7699 6.70002 25.1899 6.99002C25.1899 6.99002 29.1899 7.66002 27.2399 12.56C27.2399 12.56 22.1599 23.61 7.86994 29.7C7.86994 29.7 17.0399 23.27 21.4599 15.25C21.4599 15.25 24.9699 9.47002 19.5999 9.57002C19.5999 9.57002 17.3199 9.55002 13.7899 11.61C10.6699 13.32 6.74994 16.44 4.59994 21.83C4.59994 21.83 0.909935 30.63 11.1299 31.56C11.1299 31.56 14.8299 31.89 18.6099 30.54H18.6199Z" fill="white"/>
<path d="M26.7302 15.1299C26.1602 15.9799 25.0402 17.6099 23.9102 19.0299C25.2202 19.1399 26.5002 19.4899 25.5902 22.0399C25.5902 22.0399 24.0802 25.9599 19.6602 29.9199C19.6602 29.9199 27.1202 25.5799 29.8002 19.8699C29.8002 19.8699 32.9202 13.8399 26.7302 15.1299V15.1299Z" fill="white"/>
</g>
<defs>
<clipPath id="clip0_355_10952">
<rect width="165.49" height="34.12" fill="white" transform="translate(0.509766)"/>
</clipPath>
</defs>
</svg>
