<svg width="16" height="16" viewBox="0 0 16 16" fill="none" xmlns="http://www.w3.org/2000/svg">
<path d="M9.875 14.2498V10.4998C9.875 10.334 9.80915 10.1751 9.69194 10.0579C9.57473 9.94065 9.41576 9.8748 9.25 9.8748H6.75C6.58424 9.8748 6.42527 9.94065 6.30806 10.0579C6.19085 10.1751 6.125 10.334 6.125 10.4998V14.2498C6.125 14.4156 6.05915 14.5745 5.94194 14.6917C5.82473 14.809 5.66576 14.8748 5.5 14.8748H1.75C1.58424 14.8748 1.42527 14.809 1.30806 14.6917C1.19085 14.5745 1.125 14.4156 1.125 14.2498V7.02324C1.1264 6.93674 1.14509 6.8514 1.17998 6.77224C1.21486 6.69308 1.26523 6.6217 1.32812 6.5623L7.57812 0.882614C7.69334 0.777207 7.84384 0.71875 8 0.71875C8.15616 0.71875 8.30666 0.777207 8.42187 0.882614L14.6719 6.5623C14.7348 6.6217 14.7851 6.69308 14.82 6.77224C14.8549 6.8514 14.8736 6.93674 14.875 7.02324V14.2498C14.875 14.4156 14.8092 14.5745 14.6919 14.6917C14.5747 14.809 14.4158 14.8748 14.25 14.8748H10.5C10.3342 14.8748 10.1753 14.809 10.0581 14.6917C9.94085 14.5745 9.875 14.4156 9.875 14.2498Z" stroke="#777777" stroke-width="1.4" stroke-linecap="round" stroke-linejoin="round"/>
</svg>
