<svg width="20" height="20" viewBox="0 0 20 20" fill="none" xmlns="http://www.w3.org/2000/svg">
<g clip-path="url(#clip0_355_2510)">
<path d="M15.7196 20H4.28038C1.92051 20 0 18.0793 0 15.7191V4.28086C0 1.92072 1.92051 0 4.28038 0H15.7196C18.0795 0 20 1.92072 20 4.28086V15.7191C20 18.0793 18.0795 20 15.7196 20ZM4.28038 2.33522C3.20688 2.33522 2.33496 3.20725 2.33496 4.28086V15.7191C2.33496 16.7928 3.20688 17.6648 4.28038 17.6648H15.7196C16.7931 17.6648 17.665 16.7928 17.665 15.7191V4.28086C17.665 3.20725 16.7931 2.33522 15.7196 2.33522H4.28038Z" fill="#F1F2F1"/>
<path d="M9.99833 15.5267C6.95225 15.5267 4.47461 13.0488 4.47461 10.0024C4.47461 6.95594 6.95225 4.47803 9.99833 4.47803C13.0444 4.47803 15.5221 6.95594 15.5221 10.0024C15.5221 13.0488 13.0444 15.5267 9.99833 15.5267ZM9.99833 6.81098C8.23862 6.81098 6.80957 8.24247 6.80957 10.0024C6.80957 11.7623 8.24089 13.1915 9.99833 13.1915C11.7558 13.1915 13.1871 11.76 13.1871 10.0024C13.1871 8.24473 11.7558 6.81098 9.99833 6.81098Z" fill="#F1F2F1"/>
<path d="M16.6486 4.64766C16.6486 5.19579 16.2025 5.642 15.6544 5.642C15.1063 5.642 14.6602 5.19579 14.6602 4.64766C14.6602 4.09953 15.104 3.65332 15.6544 3.65332C16.2047 3.65332 16.6486 4.09953 16.6486 4.64766Z" fill="#F1F2F1"/>
</g>
<defs>
<clipPath id="clip0_355_2510">
<rect width="20" height="20" fill="white"/>
</clipPath>
</defs>
</svg>
