<svg width="121" height="44" viewBox="0 0 121 44" fill="none" xmlns="http://www.w3.org/2000/svg">
<g clip-path="url(#clip0_201_1356)">
<path d="M16.8695 21.933C16.8695 28.8809 16.861 35.8301 16.8829 42.778C16.8829 43.5818 16.8123 43.914 15.8549 43.6331C10.9341 42.1754 6.00034 40.7626 1.05358 39.3945C0.280143 39.1795 0 38.8851 0 38.0471C0.0308564 27.2555 0.0308564 16.4631 0 5.66979C0 4.89658 0.225333 4.57043 0.974411 4.36766C5.95122 2.97921 10.9191 1.55697 15.878 0.10093C16.7197 -0.143372 16.8878 0.0459619 16.8853 0.87781C16.8585 7.89538 16.8695 14.9142 16.8695 21.933Z" fill="white"/>
<path d="M27.7 22.7066C27.7 27.9591 27.6805 33.2201 27.7183 38.4762C27.7244 39.3179 27.4844 39.5524 26.6537 39.5341C24.6306 39.4889 24.6306 39.5341 24.6306 37.5442C24.6306 27.7722 24.6306 18.0001 24.6306 8.22801C24.6306 6.88435 24.6306 6.88435 23.2518 6.88435C21.7025 6.88435 20.1532 6.85136 18.6063 6.899C17.895 6.91977 17.7208 6.66569 17.7257 5.98531C17.7379 4.19947 17.705 4.19825 19.5162 4.19825C21.2762 4.19825 23.0362 4.18725 24.795 4.19825C26.7439 4.21413 27.6976 5.18278 27.6988 7.14331C27.7028 12.3323 27.7033 17.52 27.7 22.7066Z" fill="white"/>
<path d="M15.2618 21.6014C15.2496 22.4723 14.6528 23.0672 13.8124 23.0501C12.9951 23.0366 12.3958 22.3929 12.4104 21.5439C12.425 20.695 13.0718 20.0574 13.872 20.0781C14.6723 20.0989 15.274 20.7463 15.2618 21.6014Z" fill="#57BBAD"/>
<path d="M36.6498 16.0262C38.4363 16.1077 40.2755 16.1769 42.1675 16.2339C44.0594 16.2909 45.9392 16.3194 47.8069 16.3194H49.8897C50.5628 16.3194 51.2327 16.3031 51.8994 16.2705C52.0291 16.256 52.1602 16.2794 52.2769 16.3379C52.3936 16.3964 52.4909 16.4876 52.5571 16.6003C52.7039 16.8387 52.78 17.1141 52.7764 17.3943C52.7759 17.6718 52.6955 17.9433 52.5449 18.1761C52.4667 18.2976 52.3607 18.3987 52.2357 18.4709C52.1107 18.5431 51.9704 18.5844 51.8263 18.5914C49.9262 18.7706 47.953 18.909 45.9068 19.0067C43.8605 19.1044 41.8305 19.1533 39.8167 19.1533C39.297 19.1533 38.7773 19.1492 38.2576 19.1411C37.7379 19.1329 37.2182 19.1207 36.6986 19.1044C36.3892 19.1044 36.1659 18.9416 36.0287 18.6158C35.8874 18.2754 35.8169 17.9096 35.8216 17.5409C35.816 17.1761 35.8866 16.8141 36.0287 16.4782C36.1667 16.1606 36.3738 16.0099 36.6498 16.0262ZM40.8885 10.2607C40.8731 10.4236 40.8609 10.6638 40.852 10.9814C40.8435 11.299 40.8398 11.5396 40.8398 11.7021C40.8308 11.8075 40.8587 11.9127 40.9187 11.9997C40.9787 12.0866 41.0671 12.1499 41.1687 12.1785C41.4088 12.255 41.6597 12.2921 41.9117 12.2884C42.3339 12.3047 42.748 12.3169 43.154 12.3251C43.56 12.3332 43.9742 12.3373 44.3964 12.3373C45.4683 12.3373 46.5482 12.3128 47.6363 12.264C48.7244 12.2151 49.8206 12.1337 50.925 12.0197C50.9835 12.0123 51.043 12.0172 51.0996 12.034C51.1562 12.0508 51.2087 12.0792 51.2538 12.1174C51.3598 12.1998 51.447 12.3039 51.5096 12.4228C51.5795 12.5583 51.6327 12.7019 51.668 12.8503C51.708 13.0101 51.7284 13.1742 51.7289 13.3389C51.7316 13.554 51.6858 13.767 51.5949 13.9619C51.5576 14.0487 51.4989 14.1245 51.4244 14.1822C51.3498 14.2399 51.2617 14.2776 51.1686 14.2917C49.707 14.5515 48.3103 14.755 46.9786 14.9024C45.66 15.0483 44.3345 15.1217 43.0079 15.1223C41.4337 15.1211 39.8618 14.9986 38.3063 14.7559C37.9166 14.6907 37.6446 14.5319 37.4903 14.2795C37.3343 14.0235 37.2385 13.7353 37.2101 13.4366C37.1943 13.2571 37.1858 13.0787 37.1858 12.8992V12.3373C37.1858 11.6044 37.2142 10.8389 37.271 10.0408C37.3279 9.24278 37.4131 8.50987 37.5268 7.84211C37.6397 7.12468 38.1025 6.75009 38.9153 6.71833C39.759 6.68494 40.6076 6.66051 41.461 6.64504C42.3144 6.62956 43.1792 6.62142 44.0554 6.62061C45.1589 6.62061 46.247 6.63689 47.3197 6.66947C48.3923 6.70204 49.4398 6.75904 50.4621 6.84048C50.592 6.85238 50.7168 6.8966 50.8252 6.96913C50.9337 7.04165 51.0224 7.14018 51.0833 7.25579C51.2236 7.50975 51.295 7.79615 51.2904 8.08642C51.294 8.3975 51.2185 8.70437 51.0711 8.97812C51.0135 9.10127 50.9194 9.20365 50.8018 9.27139C50.6841 9.33913 50.5485 9.36894 50.4134 9.35679C49.9416 9.34131 49.4625 9.3291 48.9762 9.32014C48.4898 9.31118 48.0026 9.30711 47.5145 9.30793C46.4752 9.30793 45.448 9.32421 44.433 9.35679C43.4179 9.38936 42.4395 9.44636 41.4975 9.5278C41.2698 9.56078 41.12 9.63407 41.0469 9.74767C40.9595 9.90596 40.9056 10.0806 40.8885 10.2607ZM50.1211 24.4546C50.1536 25.0247 50.048 25.4196 49.8044 25.6395C49.5608 25.8594 49.2198 25.9693 48.7813 25.9693H47.1004C46.5645 25.9693 46.0367 25.9734 45.517 25.9815L43.9457 26.006C43.4188 26.0141 42.8625 26.0263 42.2771 26.0426C42.2125 26.0426 42.1553 26.0915 42.1187 26.1892C42.0769 26.294 42.0562 26.4061 42.0578 26.519C42.0561 26.6309 42.0725 26.7423 42.1065 26.8488C42.1398 26.9465 42.1886 26.9954 42.2527 26.9954C42.6754 27.0113 43.0883 27.0235 43.4951 27.032C43.9019 27.0406 44.3063 27.0442 44.7131 27.0442C45.6388 27.0442 46.5482 27.028 47.4415 26.9954C48.3347 26.9628 49.2522 26.914 50.1942 26.8488C50.2415 26.8408 50.2899 26.8431 50.3362 26.8558C50.3825 26.8685 50.4255 26.8911 50.4621 26.9221C50.5481 26.9943 50.615 27.0866 50.657 27.1908C50.7083 27.3133 50.749 27.44 50.7788 27.5695C50.8102 27.7016 50.8265 27.8368 50.8275 27.9726C50.8311 28.1486 50.7979 28.3233 50.7301 28.4856C50.7059 28.5504 50.6669 28.6084 50.6161 28.6551C50.5653 28.7018 50.5042 28.7358 50.4378 28.7544C49.3228 28.9844 48.1967 29.1556 47.0639 29.2674C45.9189 29.3814 44.7618 29.4384 43.5925 29.4384C42.8934 29.4384 42.2072 29.418 41.5341 29.3773C40.8609 29.3366 40.191 29.2674 39.5244 29.1697C39.3674 29.148 39.2168 29.0932 39.0825 29.009C38.9481 28.9248 38.833 28.813 38.7448 28.6811C38.5486 28.3996 38.4309 28.0707 38.4038 27.7283C38.3867 27.4999 38.3758 27.2678 38.3672 27.032C38.3587 26.7963 38.3551 26.5642 38.3551 26.3358C38.3551 26.1073 38.3551 25.8801 38.3672 25.6517C38.3794 25.4233 38.3867 25.1961 38.4038 24.9677C38.4367 24.5927 38.5658 24.3117 38.7935 24.1248C39.0603 23.9239 39.3856 23.8166 39.7192 23.8195C40.3688 23.7861 40.9779 23.7698 41.5463 23.7706H46.3696C46.4183 23.7706 46.4549 23.7254 46.4792 23.6362C46.5044 23.5406 46.5167 23.442 46.5158 23.3431C46.5167 23.2421 46.4959 23.1421 46.4549 23.0499C46.4422 23.0112 46.4177 22.9775 46.385 22.9534C46.3522 22.9293 46.3128 22.9161 46.2722 22.9155C45.5413 22.883 44.8511 22.8545 44.2015 22.83C43.5519 22.8056 42.9186 22.7934 42.3014 22.7934C41.7809 22.7934 41.2612 22.8015 40.7424 22.8178C40.2235 22.8341 39.6957 22.8585 39.159 22.8911C38.947 22.907 38.7935 22.7848 38.6839 22.5247C38.5745 22.2446 38.5207 21.9459 38.5256 21.6452C38.5213 21.3745 38.5667 21.1054 38.6596 20.8512C38.7485 20.6154 38.891 20.4847 39.0859 20.4725C40.6604 20.3259 42.2113 20.2527 43.7387 20.2527C44.5824 20.2527 45.4106 20.2689 46.2234 20.3015C47.0363 20.3341 47.8564 20.3748 48.6838 20.4237C49.1053 20.4571 49.3935 20.5833 49.5486 20.8023C49.7218 21.072 49.834 21.3763 49.8775 21.694C49.9416 22.1183 49.9904 22.5377 50.0236 22.9522C50.0569 23.3667 50.0894 23.8675 50.1211 24.4546Z" fill="white"/>
<path d="M38.109 37.5187C38.0213 37.5301 37.9544 37.4788 37.9081 37.3648C37.8138 37.1183 37.8138 36.8455 37.9081 36.599C37.9214 36.5498 37.9497 36.5062 37.989 36.474C38.0283 36.4418 38.0767 36.4227 38.1273 36.4194H38.7631C38.9824 36.4194 39.2028 36.4194 39.4245 36.4279C39.4369 36.3062 39.443 36.1839 39.4428 36.0615V35.7146C39.4428 35.6376 39.5 35.5802 39.6133 35.5423C39.7365 35.5029 39.8652 35.4835 39.9945 35.4849C40.1348 35.484 40.2744 35.5063 40.4074 35.5509C40.4595 35.562 40.5074 35.5873 40.5461 35.6239C40.5848 35.6605 40.6126 35.7071 40.6267 35.7586C40.6437 35.8697 40.6583 35.9833 40.6705 36.1006C40.6827 36.2178 40.6937 36.3351 40.7058 36.4524C40.9275 36.4585 41.1492 36.4658 41.3721 36.4756C41.595 36.4853 41.813 36.4939 42.0298 36.5061C42.0803 36.5088 42.1291 36.5255 42.1706 36.5544C42.2121 36.5833 42.2448 36.6233 42.2649 36.6698C42.3155 36.7715 42.3419 36.8835 42.3419 36.9972C42.3419 37.1108 42.3155 37.2229 42.2649 37.3245C42.2488 37.3681 42.2191 37.4052 42.1803 37.4305C42.1414 37.4558 42.0955 37.4679 42.0493 37.465C41.9507 37.465 41.8508 37.4552 41.7521 37.4528C41.6535 37.4503 41.5524 37.4528 41.4537 37.4528C41.6552 37.6183 41.8171 37.827 41.9275 38.0635C42.038 38.3036 42.0946 38.565 42.0932 38.8294C42.1039 39.0414 42.0673 39.2532 41.9862 39.4493C41.9051 39.6453 41.7814 39.8208 41.6242 39.963C41.3116 40.239 40.8191 40.3771 40.1468 40.3771C39.4744 40.3771 38.9872 40.2452 38.6852 39.9813C38.5285 39.8461 38.4047 39.6768 38.3235 39.4862C38.2422 39.2956 38.2055 39.0889 38.2162 38.882C38.2136 38.6149 38.2641 38.3499 38.3648 38.1026C38.4631 37.8682 38.6096 37.6572 38.7948 37.4833L38.109 37.5187ZM39.7936 41.8808C39.7408 41.8808 39.6893 41.8649 39.6458 41.835C39.6024 41.8051 39.5689 41.7627 39.55 41.7134C39.4936 41.5996 39.4648 41.474 39.4659 41.347C39.4645 41.2364 39.4869 41.1268 39.5317 41.0257C39.5475 40.9826 39.5755 40.9451 39.6123 40.9178C39.6491 40.8904 39.693 40.8744 39.7387 40.8718C40.025 40.8535 40.3624 40.8425 40.7509 40.8364C41.1395 40.8303 41.5304 40.8278 41.9214 40.8278H42.6766C42.9202 40.8278 43.1297 40.8278 43.3161 40.8449C43.4273 40.8441 43.5366 40.8746 43.6315 40.9329C43.7082 40.9858 43.7665 41.0614 43.7984 41.1491C43.8364 41.2533 43.8574 41.363 43.8605 41.474C43.8605 41.5961 43.869 41.7366 43.869 41.8832V42.3535C43.869 42.4976 43.869 42.6369 43.8605 42.7712C43.852 42.9056 43.8471 43.0436 43.8386 43.1841C43.8301 43.3246 43.8167 43.4748 43.7984 43.6336C43.7874 43.7216 43.718 43.7888 43.5925 43.8352C43.4591 43.884 43.318 43.908 43.176 43.906C43.0848 43.9065 42.9937 43.8975 42.9044 43.8791C42.822 43.8636 42.7421 43.8369 42.6669 43.7998C42.6042 43.772 42.5488 43.7302 42.5049 43.6776C42.486 43.6522 42.4727 43.623 42.466 43.592C42.4593 43.5611 42.4592 43.529 42.4659 43.498C42.5057 43.2806 42.5349 43.077 42.5536 42.8873C42.5706 42.6967 42.5828 42.4695 42.5889 42.2057C42.5913 42.1319 42.5852 42.0581 42.5706 41.9858C42.5597 41.9394 42.5036 41.9125 42.4038 41.9064C41.8833 41.8893 41.3749 41.8808 40.8788 41.8808H40.3392C40.1626 41.8722 39.9799 41.8746 39.7936 41.8808ZM40.1699 37.8669C40.0573 37.863 39.9456 37.8887 39.8459 37.9414C39.7606 37.9891 39.6882 38.057 39.6352 38.1393C39.5816 38.2244 39.5432 38.3182 39.5219 38.4166C39.4984 38.5158 39.4865 38.6175 39.4866 38.7195C39.4812 38.8004 39.4959 38.8814 39.5295 38.9552C39.5631 39.029 39.6145 39.0932 39.6791 39.1421C39.8152 39.2376 39.9783 39.2869 40.1443 39.2826C40.3263 39.2861 40.5045 39.2304 40.6523 39.1238C40.7241 39.0722 40.7819 39.0034 40.8202 38.9235C40.8585 38.8437 40.8761 38.7554 40.8715 38.667C40.8721 38.5656 40.8574 38.4646 40.8277 38.3677C40.7992 38.2755 40.7546 38.1891 40.6961 38.1124C40.6376 38.0366 40.5626 37.9752 40.4769 37.9328C40.3811 37.8871 40.276 37.8645 40.1699 37.8669ZM42.6437 40.1352C42.6664 39.8909 42.6839 39.6226 42.6961 39.3302C42.7083 39.0407 42.7131 38.7366 42.7131 38.4202C42.7131 38.033 42.7058 37.6397 42.6912 37.2378C42.6766 36.8359 42.6608 36.4499 42.6437 36.081C42.6369 36.0248 42.6527 35.9681 42.6876 35.9235C42.724 35.8741 42.77 35.8326 42.8228 35.8013C42.8845 35.7669 42.951 35.7418 43.0201 35.7268C43.0952 35.7094 43.172 35.7004 43.2491 35.6999C43.373 35.7022 43.4947 35.7331 43.6047 35.7903C43.6559 35.8134 43.7007 35.8488 43.7351 35.8933C43.7695 35.9378 43.7925 35.9901 43.802 36.0456C43.8435 36.2801 43.8788 36.5244 43.908 36.7785C43.9372 37.0326 43.9632 37.292 43.986 37.5566H44.3514C44.4732 37.5566 44.5864 37.5566 44.6985 37.5664C44.7501 37.569 44.7999 37.5865 44.8419 37.6169C44.8838 37.6472 44.9161 37.6891 44.9348 37.7374C44.9888 37.8519 45.0159 37.9772 45.014 38.1039C45.014 38.1808 45.005 38.2575 44.9872 38.3323C44.9713 38.4047 44.9447 38.4743 44.908 38.5387C44.8763 38.5983 44.8313 38.6497 44.7765 38.689C44.7228 38.7271 44.6583 38.7468 44.5925 38.7451H44.316C44.232 38.7451 44.1431 38.7451 44.0493 38.7549C44.0554 38.849 44.0578 38.9418 44.0578 39.0359V39.3083C44.0578 39.643 44.0489 39.9451 44.031 40.2146C44.031 40.3258 43.9531 40.4101 43.8118 40.465C43.6638 40.5222 43.5063 40.5504 43.3477 40.5481C43.1756 40.5515 43.0048 40.5173 42.8471 40.4479C42.7828 40.4279 42.7274 40.3862 42.6903 40.3299C42.6532 40.2735 42.6367 40.206 42.6437 40.1389V40.1352Z" fill="white"/>
<path d="M46.5028 40.2098C46.4614 40.2916 46.3652 40.3319 46.2129 40.3319C46.0935 40.3294 45.9752 40.3084 45.8621 40.2697C45.7408 40.2324 45.6255 40.1777 45.5199 40.1072C45.4307 40.05 45.357 39.9715 45.3055 39.8788C45.284 39.8383 45.2739 39.7926 45.2762 39.7468C45.2786 39.701 45.2933 39.6567 45.3189 39.6186C45.5986 39.1938 45.8183 38.7321 45.9718 38.2468C46.1186 37.7623 46.1913 37.2581 46.1873 36.7517C46.1873 36.6296 46.1873 36.5135 46.1776 36.3852C46.1679 36.257 46.1605 36.1324 46.1435 36.0029C46.1362 35.9473 46.1501 35.8911 46.1825 35.8453C46.2185 35.7951 46.2651 35.7534 46.3189 35.7232C46.3813 35.6864 46.4491 35.6596 46.5199 35.6438C46.5946 35.6264 46.671 35.6174 46.7476 35.6169C46.8745 35.6139 47.0002 35.6428 47.113 35.7012C47.1626 35.7259 47.2053 35.7624 47.2373 35.8076C47.2694 35.8527 47.2899 35.9052 47.297 35.9602C47.3201 36.13 47.3371 36.2973 47.3493 36.4622C47.3615 36.6271 47.3664 36.7908 47.3664 36.9508C47.3664 37.073 47.3664 37.1829 47.3579 37.2941C47.3493 37.4052 47.3432 37.5164 47.3323 37.6275C47.6124 37.8914 47.8694 38.154 48.1033 38.4154C48.3319 38.6663 48.5358 38.9388 48.7123 39.2289C48.738 39.2721 48.7538 39.3205 48.7584 39.3706C48.763 39.4207 48.7564 39.4712 48.7391 39.5184C48.6996 39.6323 48.6351 39.7358 48.5503 39.8214C48.4658 39.9121 48.368 39.9896 48.2604 40.051C48.1693 40.1071 48.0652 40.1387 47.9583 40.1426C47.9092 40.1476 47.8597 40.1366 47.8172 40.1113C47.7746 40.0861 47.7413 40.0478 47.722 40.0021C47.5387 39.6185 47.3149 39.2557 47.0546 38.9199C46.911 39.3661 46.7263 39.7979 46.5028 40.2098ZM49.7208 40.4382C50.0015 40.4349 50.2801 40.4872 50.5405 40.5921C50.7781 40.688 50.9955 40.8281 51.1812 41.005C51.3589 41.179 51.5005 41.3866 51.5978 41.6158C51.696 41.8449 51.7466 42.0918 51.7464 42.3413C51.7464 42.8397 51.5815 43.2281 51.2518 43.5067C50.9222 43.7852 50.4147 43.9244 49.7293 43.9244C49.057 43.9244 48.5572 43.7896 48.23 43.5201C48.0682 43.3845 47.94 43.2131 47.8554 43.0193C47.7709 42.8256 47.7323 42.6148 47.7427 42.4036C47.7415 42.1414 47.7907 41.8813 47.8877 41.6377C47.9801 41.4041 48.1189 41.1917 48.2957 41.0136C48.4754 40.8349 48.688 40.693 48.9218 40.5958C49.1749 40.4901 49.4466 40.4365 49.7208 40.4382ZM50.6769 36.0579C50.6744 36 50.6893 35.9427 50.7198 35.8935C50.7502 35.8442 50.7947 35.8053 50.8475 35.7818C50.9669 35.7148 51.1016 35.6798 51.2385 35.6804C51.3514 35.6791 51.4628 35.7065 51.5624 35.7598C51.6105 35.7842 51.6517 35.8202 51.6823 35.8645C51.713 35.9089 51.732 35.9603 51.7378 36.0139C51.819 36.5245 51.8791 37.0465 51.9181 37.5799C51.9571 38.1133 51.9762 38.6426 51.9753 39.1678C51.9753 39.3083 51.9753 39.45 51.9753 39.5905C51.9753 39.731 51.968 39.869 51.9619 40.0034C51.9574 40.0605 51.9357 40.1149 51.8999 40.1596C51.864 40.2042 51.8157 40.2371 51.761 40.2538C51.6278 40.3108 51.4843 40.3395 51.3395 40.3381C51.2576 40.3379 51.1759 40.3289 51.0959 40.3112C51.0213 40.2968 50.9491 40.2717 50.8816 40.2367C50.8236 40.2076 50.7728 40.1658 50.733 40.1145C50.6937 40.0635 50.6762 39.9989 50.6843 39.935C50.7078 39.4309 50.7253 38.9016 50.7366 38.347C50.638 38.3409 50.5393 38.3372 50.4431 38.3372H50.1581C50.1642 38.4374 50.1666 38.5339 50.1666 38.6279V38.9187C50.1666 39.0762 50.1666 39.235 50.1666 39.3926C50.1666 39.5502 50.1593 39.7065 50.1532 39.8592C50.1479 39.9149 50.1263 39.9677 50.0912 40.0112C50.0561 40.0546 50.0091 40.0867 49.9559 40.1035C49.8245 40.1608 49.6825 40.1895 49.5393 40.1878C49.4574 40.1872 49.3758 40.1782 49.2957 40.1609C49.2214 40.1454 49.1493 40.1204 49.0813 40.0864C49.024 40.0579 48.9743 40.016 48.9364 39.9643C48.9007 39.9144 48.8851 39.8529 48.8926 39.792C48.9275 39.2065 48.9449 38.6235 48.9449 38.0428C48.9449 37.38 48.9275 36.7171 48.8926 36.0542C48.8897 35.9968 48.9041 35.9398 48.9338 35.8906C48.9636 35.8414 49.0073 35.8022 49.0594 35.7782C49.1768 35.7105 49.3101 35.6755 49.4455 35.6768C49.5585 35.6755 49.6699 35.7028 49.7695 35.7562C49.8174 35.7808 49.8584 35.8168 49.889 35.8611C49.9196 35.9055 49.9388 35.9567 49.9449 36.0102C49.9742 36.2167 50.0022 36.4219 50.0277 36.6271C50.0533 36.8323 50.0765 37.0363 50.0935 37.2379H50.4053C50.5133 37.2379 50.6229 37.2379 50.7342 37.2379C50.7281 37.0327 50.722 36.8323 50.7171 36.6357C50.7123 36.439 50.6879 36.2521 50.6769 36.0579ZM49.7561 41.5107C49.6321 41.5073 49.509 41.5333 49.3968 41.5864C49.3038 41.6321 49.221 41.6961 49.1532 41.7745C49.0899 41.8502 49.0408 41.9367 49.0083 42.0298C48.9771 42.1207 48.9611 42.216 48.9608 42.312C48.9566 42.3963 48.9767 42.48 49.0186 42.5532C49.0605 42.6264 49.1224 42.686 49.1971 42.7249C49.361 42.8143 49.5452 42.8597 49.7318 42.8568C49.8323 42.8565 49.9324 42.8446 50.0302 42.8214C50.1243 42.8002 50.2146 42.7647 50.2981 42.7163C50.3737 42.6716 50.4392 42.6118 50.4906 42.5404C50.5403 42.4689 50.5663 42.3834 50.5649 42.2961C50.5685 42.1923 50.5509 42.0887 50.5132 41.9919C50.4755 41.8951 50.4185 41.807 50.3456 41.733C50.2676 41.6577 50.1751 41.5992 50.0737 41.5609C49.9724 41.5227 49.8643 41.5056 49.7561 41.5107Z" fill="white"/>
<path d="M53.2894 37.4648C53.2078 37.477 53.1457 37.4257 53.1018 37.3121C53.0141 37.0643 53.0141 36.7939 53.1018 36.5462C53.1141 36.4988 53.1404 36.4563 53.1771 36.4241C53.2138 36.3918 53.2593 36.3714 53.3077 36.3654H54.5086C54.5147 36.2542 54.5196 36.1431 54.522 36.0319C54.5245 35.9208 54.522 35.8145 54.522 35.7156C54.522 35.6386 54.5793 35.5812 54.6926 35.5433C54.8158 35.5039 54.9445 35.4845 55.0738 35.4859C55.2141 35.485 55.3536 35.5073 55.4867 35.5519C55.5387 35.563 55.5867 35.5882 55.6254 35.6249C55.664 35.6615 55.6919 35.7081 55.7059 35.7595C55.7489 35.9709 55.7754 36.1853 55.7851 36.4008C55.9958 36.4069 56.2029 36.4143 56.4087 36.4228C56.6146 36.4314 56.8168 36.4424 57.0177 36.4533C57.0665 36.4567 57.1134 36.4738 57.1529 36.5028C57.1923 36.5318 57.2228 36.5714 57.2406 36.617C57.2904 36.7198 57.3158 36.8326 57.3149 36.9468C57.3159 37.0589 57.2922 37.1699 57.2455 37.2718C57.2317 37.3141 57.2045 37.3508 57.168 37.3761C57.1315 37.4015 57.0877 37.4142 57.0433 37.4122C56.6231 37.3951 56.1834 37.3866 55.7279 37.3866C55.6922 37.6518 55.6335 37.9134 55.5525 38.1683C55.9118 38.336 56.259 38.5286 56.5914 38.7449C56.8818 38.9337 57.1484 39.1568 57.3856 39.4094C57.4237 39.4452 57.4515 39.4906 57.4661 39.5409C57.4806 39.5912 57.4814 39.6445 57.4684 39.6952C57.4385 39.8049 57.383 39.9058 57.3064 39.9896C57.2222 40.0852 57.121 40.1643 57.008 40.2229C56.9062 40.2799 56.7921 40.3114 56.6755 40.3145C56.6313 40.3167 56.5871 40.3092 56.5461 40.2926C56.5051 40.2759 56.4682 40.2505 56.438 40.218C56.2543 40.0108 56.0534 39.8196 55.8375 39.6464C55.6034 39.4576 55.3594 39.2815 55.1067 39.1187C54.9643 39.3443 54.8011 39.5562 54.6195 39.7514C54.4287 39.9577 54.2253 40.1519 54.0105 40.3329C53.9446 40.3771 53.8649 40.3957 53.7864 40.3854C53.6815 40.3775 53.5783 40.3553 53.4794 40.3194C53.367 40.2795 53.2585 40.2292 53.1554 40.1692C53.0584 40.1167 52.9697 40.05 52.8923 39.9713C52.833 39.914 52.7908 39.8413 52.7705 39.7612C52.7639 39.7253 52.7685 39.6883 52.7835 39.6551C52.7985 39.6219 52.8233 39.5941 52.8546 39.5755C53.2451 39.2881 53.5972 38.9514 53.9021 38.5739C54.1754 38.2306 54.3768 37.8355 54.494 37.4122C54.2894 37.4183 54.086 37.4257 53.885 37.4342L53.2894 37.4648ZM54.7717 42.6977C54.7717 42.4461 54.7827 42.1944 54.8022 41.9416C54.8217 41.6887 54.857 41.4115 54.9033 41.1061C54.9104 41.0441 54.9305 40.9844 54.9622 40.9307C54.9939 40.877 55.0365 40.8307 55.0872 40.7946C55.1922 40.7244 55.3134 40.6824 55.4392 40.6724C55.6146 40.6553 55.8046 40.6419 56.0214 40.6333C56.2382 40.6248 56.4562 40.6199 56.684 40.6199C56.9593 40.6199 57.2313 40.6272 57.5001 40.6419C57.768 40.6566 58.0141 40.6822 58.2309 40.7164C58.3824 40.7268 58.5253 40.7909 58.6341 40.8972C58.7192 41.0086 58.7738 41.1404 58.7924 41.2795C58.8216 41.4737 58.8423 41.6558 58.8533 41.8255C58.8643 41.9953 58.8716 42.1676 58.8716 42.3435C58.8716 42.4436 58.8716 42.5413 58.8716 42.6391C58.8716 42.7368 58.8643 42.837 58.8582 42.942C58.8515 43.0164 58.8298 43.0887 58.7944 43.1544C58.759 43.2201 58.7107 43.2779 58.6523 43.3243C58.5075 43.4436 58.3425 43.5359 58.1651 43.5967C57.9495 43.6751 57.7262 43.73 57.4989 43.7604C57.2507 43.795 57.0004 43.8126 56.7498 43.8129C56.5054 43.8135 56.2612 43.7971 56.019 43.7641C55.8039 43.7372 55.5924 43.6873 55.388 43.6151C55.2242 43.5598 55.0734 43.4717 54.9447 43.3561C54.8401 43.2621 54.777 43.1303 54.7693 42.9896L54.7717 42.6977ZM57.684 42.4693V42.1309C57.684 42.0698 57.684 42.0088 57.6743 41.9465C57.6705 41.8945 57.662 41.843 57.6487 41.7926C57.6461 41.7598 57.6349 41.7284 57.6163 41.7014C57.5977 41.6743 57.5723 41.6527 57.5427 41.6387C57.4791 41.6107 57.4111 41.5942 57.3417 41.5898C57.2833 41.5898 57.2199 41.58 57.1481 41.5776C57.0762 41.5751 57.0056 41.5776 56.9288 41.5776C56.807 41.5776 56.6986 41.5776 56.5878 41.5861C56.4769 41.5947 56.3734 41.6008 56.2808 41.613C56.2161 41.6117 56.1534 41.6353 56.1055 41.679C56.0801 41.715 56.065 41.7572 56.0616 41.8011C56.0546 41.8505 56.0501 41.9003 56.0482 41.9501C56.0482 42.01 56.0421 42.0723 56.0397 42.1358C56.0372 42.1993 56.0397 42.2641 56.0299 42.3288C56.0202 42.3935 56.0299 42.451 56.0299 42.4876C56.0305 42.5147 56.037 42.5413 56.049 42.5656C56.061 42.5899 56.0782 42.6112 56.0994 42.6281C56.1555 42.6732 56.2195 42.7076 56.2882 42.7295C56.3756 42.7573 56.4653 42.7777 56.5561 42.7905C56.7536 42.8198 56.9543 42.8198 57.1517 42.7905C57.2426 42.7777 57.3322 42.7573 57.4197 42.7295C57.4903 42.7075 57.5558 42.6713 57.6121 42.6232C57.6346 42.6044 57.6527 42.5809 57.6652 42.5543C57.6776 42.5277 57.684 42.4986 57.684 42.4693ZM57.7364 39.9982C57.7656 39.7465 57.7847 39.477 57.7936 39.1895C57.8026 38.9021 57.807 38.5999 57.807 38.2832C57.807 37.9167 57.8009 37.5503 57.7888 37.1838C57.7766 36.8174 57.7595 36.4509 57.7364 36.0845C57.7296 36.0282 57.7454 35.9715 57.7802 35.9269C57.8169 35.8772 57.8633 35.8356 57.9166 35.8047C57.9782 35.77 58.0448 35.7448 58.114 35.7302C58.1886 35.7128 58.265 35.7038 58.3417 35.7033C58.4644 35.7023 58.5856 35.7295 58.6962 35.7827C58.7474 35.8059 58.7921 35.8412 58.8265 35.8858C58.8609 35.9303 58.8839 35.9825 58.8935 36.038C58.9349 36.2665 58.9702 36.5046 58.9995 36.7502C59.0287 36.9957 59.0543 37.2461 59.0786 37.4977H59.4392C59.561 37.4977 59.6742 37.4977 59.7863 37.5063C59.8379 37.5094 59.8876 37.5273 59.9295 37.5578C59.9714 37.5883 60.0037 37.6302 60.0226 37.6785C60.0766 37.793 60.1037 37.9184 60.1018 38.045C60.1012 38.1219 60.0922 38.1985 60.075 38.2734C60.0591 38.3458 60.0324 38.4154 59.9958 38.4798C59.9637 38.5388 59.9187 38.5897 59.8642 38.6289C59.811 38.6679 59.7463 38.688 59.6803 38.6863H59.4026C59.3149 38.6863 59.2272 38.6863 59.1395 38.6948C59.1395 38.7828 59.1481 38.8695 59.1481 38.955V39.2103C59.1481 39.5214 59.1391 39.8088 59.1213 40.0727C59.1213 40.1838 59.0433 40.2669 58.9032 40.3231C58.7548 40.3802 58.5969 40.4084 58.438 40.4062C58.2661 40.4099 58.0955 40.3752 57.9386 40.3048C57.8744 40.2853 57.8189 40.2441 57.7815 40.1882C57.7442 40.1323 57.7274 40.0651 57.7339 39.9982H57.7364Z" fill="white"/>
<path d="M62.5157 36.7674C62.8458 36.762 63.1717 36.842 63.4621 36.9995C63.7441 37.1553 63.9895 37.3698 64.182 37.6285C64.2745 37.6285 64.3781 37.6285 64.4889 37.6285C64.5998 37.6285 64.7142 37.6285 64.8312 37.6285C64.9481 37.6285 65.0602 37.6285 65.1686 37.6285C65.277 37.6285 65.3805 37.6285 65.4792 37.6285L65.4536 36.8541C65.4525 36.7941 65.4701 36.7353 65.5039 36.6858C65.5378 36.6363 65.5862 36.5986 65.6424 36.578C65.7739 36.5106 65.9197 36.4759 66.0675 36.4767C66.189 36.4748 66.3093 36.502 66.4182 36.556C66.4683 36.5799 66.5118 36.6154 66.5453 36.6596C66.5788 36.7038 66.6012 36.7554 66.6107 36.8101C66.6984 37.3557 66.7629 37.9567 66.8044 38.6131C66.8458 39.2694 66.8673 39.9164 66.8689 40.5541C66.8689 40.8798 66.8644 41.1905 66.8555 41.4861C66.8466 41.7817 66.8307 42.0602 66.808 42.3216C66.7994 42.3763 66.7748 42.4272 66.7372 42.4679C66.6997 42.5086 66.651 42.5371 66.5973 42.55C66.4563 42.5988 66.3079 42.6228 66.1588 42.6208C66.0605 42.621 65.9624 42.6136 65.8653 42.5989C65.7777 42.5865 65.6921 42.5626 65.6107 42.528C65.5456 42.5011 65.4861 42.4622 65.4353 42.4132C65.4144 42.3941 65.3983 42.3703 65.3884 42.3437C65.3784 42.3172 65.3749 42.2887 65.3781 42.2605C65.4073 42.0374 65.4292 41.7951 65.4438 41.5337C65.4584 41.2735 65.4718 40.9987 65.4828 40.7116H64.8214C64.6996 40.7116 64.5778 40.7116 64.456 40.7202C64.2857 41.0145 64.0311 41.2508 63.7252 41.3981C63.3451 41.5691 62.9308 41.6501 62.5145 41.6351C61.761 41.6351 61.2055 41.4462 60.8483 41.0683C60.491 40.6905 60.3127 40.1672 60.3136 39.4987C60.3112 39.1392 60.3642 38.7816 60.4707 38.4384C60.5675 38.1247 60.7175 37.8301 60.914 37.5675C61.0991 37.3225 61.3357 37.1215 61.6071 36.9787C61.8879 36.8339 62.2001 36.7613 62.5157 36.7674ZM62.5413 37.9278C62.3822 37.9223 62.2261 37.9719 62.0992 38.0683C61.9761 38.1653 61.8759 38.2884 61.8056 38.4286C61.7256 38.5865 61.6706 38.7559 61.6424 38.9307C61.6111 39.1134 61.5952 39.2985 61.5949 39.484C61.5949 39.8187 61.6854 40.0707 61.8665 40.2401C62.0407 40.408 62.2742 40.4998 62.5157 40.4954C62.6408 40.4955 62.7648 40.4719 62.8811 40.4258C62.999 40.3782 63.1062 40.3076 63.1966 40.2181C63.2941 40.1223 63.3705 40.0071 63.4207 39.8798C63.4783 39.7345 63.5065 39.5792 63.5035 39.4229C63.505 39.2278 63.4846 39.0332 63.4426 38.8427C63.4072 38.6754 63.3451 38.515 63.2587 38.3676C63.1825 38.2393 63.0789 38.1296 62.9554 38.0463C62.8329 37.9643 62.6886 37.9213 62.5413 37.9229V37.9278ZM65.4974 38.6925H64.6765C64.7292 38.9332 64.7557 39.1789 64.7557 39.4254V39.539C64.7551 39.5774 64.7522 39.6157 64.7471 39.6538H65.5011L65.4974 38.6925Z" fill="white"/>
<path d="M70.7408 35.574C71.093 35.5696 71.4432 35.6262 71.7762 35.7413C72.0648 35.8416 72.3337 35.9921 72.5703 36.1859C72.7826 36.3616 72.9557 36.5801 73.0782 36.8272C73.1968 37.0663 73.2585 37.3297 73.2585 37.5968C73.2655 37.7998 73.231 38.002 73.157 38.1911C73.0831 38.3802 72.9713 38.5521 72.8285 38.6961C72.5427 38.9812 72.0896 39.1644 71.4692 39.2458C71.4753 39.357 71.4814 39.4669 71.4863 39.5756C71.4911 39.6843 71.496 39.7943 71.496 39.9054H72.0125C72.5281 39.9054 73.0279 39.8965 73.5118 39.8786C73.5606 39.8728 73.6099 39.882 73.6534 39.9049C73.6969 39.9278 73.7324 39.9633 73.7554 40.0068C73.8084 40.0989 73.8357 40.2035 73.8346 40.3098C73.8355 40.4182 73.8064 40.5247 73.7506 40.6176C73.724 40.6634 73.6865 40.7019 73.6414 40.7297C73.5964 40.7574 73.5451 40.7734 73.4923 40.7764C72.8078 40.8407 72.0973 40.892 71.3608 40.9303C70.6243 40.9686 69.8907 40.9877 69.1599 40.9877C68.9723 40.9877 68.7859 40.9877 68.5984 40.9877C68.4108 40.9877 68.233 40.9804 68.0466 40.9743C67.9914 40.9749 67.9375 40.9571 67.8934 40.9237C67.8493 40.8903 67.8175 40.8432 67.803 40.7898C67.7518 40.6583 67.7266 40.5181 67.7287 40.3769C67.7261 40.2369 67.7514 40.0978 67.803 39.9677C67.8153 39.918 67.8441 39.874 67.8845 39.8427C67.925 39.8114 67.9748 39.7948 68.0259 39.7955C68.3596 39.8134 68.7003 39.8297 69.0478 39.8444C69.3953 39.859 69.7478 39.872 70.105 39.8834V39.2727C69.4668 39.2027 68.9991 39.03 68.7019 38.7548C68.5546 38.6187 68.4385 38.4523 68.3613 38.2669C68.2842 38.0816 68.2479 37.8818 68.2549 37.6811C68.2533 37.3991 68.3128 37.1201 68.4293 36.8634C68.5458 36.6067 68.7165 36.3785 68.9297 36.1945C69.1617 35.9984 69.4276 35.8465 69.7141 35.7462C70.0438 35.6296 70.3912 35.5713 70.7408 35.574ZM70.1806 42.5366C70.1789 42.5825 70.1914 42.6279 70.2165 42.6664C70.2416 42.7049 70.278 42.7347 70.3206 42.7516C70.4117 42.7949 70.5092 42.823 70.6093 42.8346C70.697 42.8407 70.7883 42.8456 70.8821 42.8481C70.9759 42.8505 71.0721 42.8481 71.1708 42.8481C71.4339 42.8481 71.7019 42.8371 71.9735 42.8175C72.2451 42.798 72.5045 42.7711 72.7494 42.7418C72.7713 42.7398 72.7935 42.7424 72.8144 42.7493C72.8353 42.7563 72.8547 42.7674 72.8712 42.7821C72.9143 42.8163 72.9514 42.8576 72.9808 42.9042C73.0151 42.9583 73.0402 43.0178 73.0551 43.0801C73.0728 43.1446 73.0818 43.2112 73.0819 43.278C73.0825 43.3552 73.0658 43.4316 73.0331 43.5016C73.0176 43.5347 72.995 43.5641 72.9671 43.5878C72.9391 43.6114 72.9064 43.6286 72.8712 43.6384C72.5121 43.7461 72.1457 43.8277 71.7749 43.8827C71.4017 43.9405 71.0247 43.9699 70.6471 43.9706C70.4899 43.9706 70.3072 43.9706 70.099 43.9535C69.899 43.9426 69.7007 43.9115 69.507 43.8607C69.3349 43.818 69.1727 43.7421 69.0295 43.6371C68.9655 43.5897 68.9141 43.5273 68.8797 43.4553C68.8453 43.3834 68.829 43.304 68.8322 43.2243C68.8322 42.6722 68.8578 42.1249 68.9114 41.5789C68.9148 41.5253 68.9335 41.4738 68.9652 41.4305C68.997 41.3871 69.0404 41.3539 69.0904 41.3346C69.2062 41.2867 69.3306 41.263 69.4558 41.265C69.5458 41.265 69.6356 41.274 69.7238 41.2918C69.8076 41.307 69.8894 41.332 69.9674 41.3664C70.0325 41.3928 70.092 41.4314 70.1428 41.48C70.1625 41.4966 70.1779 41.5176 70.1879 41.5414C70.1979 41.5652 70.202 41.591 70.2 41.6168C70.1871 41.9507 70.1806 42.2556 70.1806 42.5317V42.5366ZM70.7591 36.6733C70.5629 36.6685 70.3673 36.697 70.1806 36.7576C70.04 36.8029 69.9099 36.876 69.7981 36.9726C69.7062 37.0548 69.6345 37.1572 69.5886 37.2719C69.5448 37.3776 69.5221 37.4909 69.5216 37.6053C69.5198 37.7046 69.5525 37.8013 69.6142 37.879C69.6842 37.9618 69.7732 38.0264 69.8736 38.0671C69.9984 38.121 70.1293 38.1596 70.2634 38.1819C70.4211 38.2091 70.5808 38.2222 70.7408 38.221C70.9041 38.2219 71.0671 38.2088 71.228 38.1819C71.3732 38.1596 71.5149 38.1186 71.6495 38.0597C71.7608 38.0126 71.8609 37.9422 71.943 37.8533C72.0153 37.774 72.0545 37.67 72.0526 37.5626C72.0526 37.4384 72.0227 37.316 71.9655 37.2058C71.9082 37.0957 71.8253 37.001 71.7238 36.9298C71.5013 36.7539 71.1797 36.6656 70.7591 36.6648V36.6733Z" fill="white"/>
<path d="M78.5997 39.1542C78.6024 39.2908 78.5656 39.4253 78.4938 39.5414C78.4243 39.6526 78.2867 39.7076 78.0821 39.7076C77.7715 39.7076 77.4597 39.7076 77.143 39.7173C76.8263 39.7271 76.5121 39.732 76.1966 39.743C76.1582 39.7414 76.1198 39.7482 76.0843 39.7631C76.0488 39.778 76.017 39.8005 75.9911 39.829C75.9652 39.8575 75.9459 39.8914 75.9344 39.9283C75.923 39.9651 75.9198 40.004 75.925 40.0422V40.2096C75.9252 40.2686 75.9309 40.3275 75.942 40.3855C75.9427 40.43 75.9574 40.4732 75.9841 40.5087C76.0109 40.5443 76.0481 40.5704 76.0906 40.5834C76.1821 40.6109 76.2766 40.6269 76.372 40.631C76.4536 40.631 76.5376 40.631 76.6266 40.631C76.7155 40.631 76.8007 40.631 76.8896 40.631C77.4499 40.631 78.0082 40.6045 78.5644 40.5516C78.5861 40.5485 78.6081 40.55 78.6291 40.5561C78.6501 40.5622 78.6696 40.5728 78.6862 40.587C78.7257 40.6179 78.7585 40.6566 78.7824 40.7006C78.8103 40.7503 78.8308 40.8038 78.8433 40.8594C78.8578 40.9169 78.8652 40.976 78.8653 41.0353C78.8667 41.112 78.8522 41.1881 78.8226 41.2589C78.8091 41.2897 78.7884 41.3168 78.7624 41.338C78.7364 41.3593 78.7056 41.374 78.6728 41.381C78.3127 41.482 77.9466 41.5599 77.5766 41.6143C77.1889 41.6702 76.7977 41.698 76.4061 41.6974C76.1832 41.6974 75.9627 41.6888 75.7435 41.6705C75.5239 41.6536 75.3058 41.6214 75.0906 41.574C74.9477 41.5508 74.8198 41.4718 74.735 41.3541C74.6507 41.2384 74.6005 41.1013 74.59 40.9584C74.573 40.6709 74.5645 40.3953 74.5645 40.1314C74.5645 39.8676 74.573 39.5777 74.59 39.2617C74.5909 39.1919 74.6066 39.123 74.6363 39.0598C74.6659 38.9966 74.7087 38.9405 74.7618 38.8952C74.8815 38.8033 75.0275 38.7523 75.1783 38.7499C75.4938 38.7328 75.8348 38.723 76.2039 38.723C76.3501 38.723 76.4962 38.723 76.6424 38.723C76.7885 38.723 76.9311 38.723 77.0723 38.723C77.1381 38.7277 77.2033 38.7086 77.2563 38.6693C77.2792 38.6433 77.2958 38.6124 77.3049 38.5789C77.314 38.5454 77.3153 38.5103 77.3086 38.4763C77.3026 38.4115 77.2989 38.3431 77.2952 38.2698C77.2936 38.2034 77.2862 38.1372 77.2733 38.0719C77.2717 38.043 77.2628 38.015 77.2474 37.9904C77.2321 37.9659 77.2108 37.9456 77.1856 37.9315C77.125 37.9042 77.0596 37.8893 76.9932 37.8875C76.6253 37.8696 76.2482 37.8606 75.8616 37.8606C75.6984 37.8606 75.534 37.8606 75.3744 37.8606C75.2149 37.8606 75.0468 37.868 74.8872 37.8728C74.7934 37.8789 74.7216 37.8252 74.6716 37.7104C74.6216 37.5922 74.5963 37.465 74.5973 37.3366C74.5956 37.2224 74.6168 37.109 74.6595 37.0031C74.673 36.9601 74.6982 36.9218 74.7321 36.8922C74.7661 36.8627 74.8076 36.8432 74.8519 36.8358C75.132 36.8065 75.4162 36.7857 75.7045 36.7735C75.9981 36.7625 76.2928 36.7564 76.5912 36.7564C76.819 36.7564 77.048 36.7564 77.2794 36.7698C77.5108 36.7833 77.7362 36.7894 77.9591 36.8004C78.0318 36.7976 78.1042 36.8111 78.1711 36.8401C78.2379 36.869 78.2974 36.9127 78.3452 36.9677C78.4229 37.0872 78.4736 37.2223 78.4938 37.3635C78.512 37.4575 78.5254 37.5711 78.5376 37.7067C78.5498 37.8423 78.5608 37.9877 78.5729 38.1465C78.5851 38.3053 78.5912 38.4665 78.5949 38.6351C78.5985 38.8036 78.5997 38.9954 78.5997 39.1542ZM79.143 42.2642C79.1893 41.8647 79.2221 41.4091 79.2392 40.8997C79.2562 40.3904 79.266 39.8627 79.266 39.3118C79.266 38.8843 79.2615 38.4608 79.2526 38.0414C79.2441 37.6224 79.2331 37.2254 79.2221 36.8492C79.2208 36.7893 79.2381 36.7305 79.2718 36.681C79.3054 36.6315 79.3536 36.5938 79.4097 36.5732C79.5417 36.5057 79.6879 36.471 79.836 36.4718C79.9576 36.4699 80.0778 36.4971 80.1868 36.5512C80.2368 36.575 80.2804 36.6105 80.3139 36.6547C80.3474 36.6989 80.3698 36.7505 80.3793 36.8052C80.4255 37.0813 80.4645 37.3708 80.4937 37.6725C80.523 37.9742 80.5486 38.2833 80.5729 38.618H80.9225C81.0443 38.618 81.1564 38.618 81.2745 38.6265C81.3261 38.6294 81.3757 38.6471 81.4176 38.6774C81.4594 38.7077 81.4918 38.7494 81.5108 38.7975C81.5647 38.912 81.5918 39.0374 81.59 39.164C81.5895 39.2409 81.5805 39.3175 81.5632 39.3924C81.5475 39.4649 81.5208 39.5345 81.484 39.5988C81.4519 39.6582 81.407 39.7095 81.3524 39.7491C81.2989 39.7876 81.2344 39.8077 81.1685 39.8065H80.8884C80.8007 39.8065 80.713 39.8065 80.6253 39.815C80.6253 39.9372 80.6253 40.0471 80.6253 40.1583C80.6253 40.2694 80.6253 40.3806 80.6253 40.4918C80.6253 40.8265 80.6196 41.1489 80.6082 41.4592C80.5969 41.7695 80.5823 42.0569 80.5644 42.3216C80.5558 42.3763 80.5311 42.4272 80.4936 42.4679C80.4561 42.5086 80.4074 42.5371 80.3537 42.55C80.2127 42.5988 80.0643 42.6228 79.9152 42.6209C79.8169 42.621 79.7188 42.6136 79.6217 42.5989C79.5341 42.5865 79.4485 42.5626 79.3671 42.528C79.302 42.5011 79.2425 42.4622 79.1917 42.4132C79.1729 42.3937 79.1587 42.3701 79.1503 42.3443C79.1418 42.3185 79.1393 42.2911 79.143 42.2642Z" fill="white"/>
<path d="M84.0431 35.838C84.3582 35.8342 84.6701 35.9018 84.9554 36.0359C85.2229 36.1635 85.4625 36.3428 85.6606 36.5636C85.86 36.7886 86.0146 37.0498 86.1162 37.3331C86.2251 37.6287 86.2804 37.9415 86.2794 38.2566C86.2835 38.5422 86.239 38.8264 86.1478 39.097C86.0655 39.3373 85.9268 39.5543 85.7435 39.7297C85.5441 39.914 85.306 40.0509 85.0468 40.1304C84.7218 40.2303 84.383 40.2777 84.0431 40.2709C83.2879 40.2709 82.7325 40.0994 82.3769 39.7566C82.0212 39.4138 81.8458 38.9374 81.8507 38.3274C81.849 37.9984 81.9021 37.6715 82.0078 37.36C82.1052 37.0708 82.2555 36.8023 82.4512 36.5685C82.6424 36.3447 82.878 36.1633 83.143 36.0359C83.4243 35.9027 83.732 35.835 84.0431 35.838ZM84.0687 36.9911C83.9135 36.9858 83.7601 37.0252 83.6266 37.1047C83.507 37.1804 83.4065 37.2828 83.333 37.404C83.2546 37.5326 83.1994 37.674 83.1698 37.8217C83.1385 37.9736 83.1225 38.1283 83.1223 38.2835C83.1141 38.4037 83.1344 38.5242 83.1816 38.6351C83.2288 38.7459 83.3016 38.8439 83.3939 38.9211C83.5788 39.0662 83.8084 39.1422 84.0431 39.1361C84.1675 39.1367 84.2911 39.116 84.4085 39.075C84.523 39.0351 84.6297 38.9756 84.724 38.8991C84.8222 38.8202 84.901 38.7196 84.9542 38.6052C85.0074 38.4908 85.0337 38.3657 85.0309 38.2395C85.032 38.0747 85.0115 37.9104 84.97 37.7509C84.933 37.6074 84.8707 37.4717 84.7861 37.3502C84.7066 37.2391 84.6029 37.1476 84.4828 37.0827C84.3553 37.0185 84.2138 36.987 84.0711 36.9911H84.0687ZM85.305 42.356C85.309 42.4018 85.3249 42.4458 85.3512 42.4836C85.3775 42.5213 85.4132 42.5514 85.4548 42.571C85.5425 42.6151 85.6374 42.6432 85.7349 42.654C85.8226 42.6601 85.9115 42.665 86.0029 42.6675C86.0942 42.6699 86.188 42.6675 86.2879 42.6675C86.551 42.6675 86.8129 42.6565 87.0723 42.6369C87.3317 42.6174 87.5863 42.5905 87.8311 42.5612C87.8532 42.5583 87.8755 42.5604 87.8966 42.5674C87.9177 42.5743 87.937 42.586 87.9529 42.6015C87.9933 42.6362 88.0275 42.6775 88.054 42.7237C88.0854 42.7783 88.1077 42.8377 88.1198 42.8996C88.1342 42.9645 88.1415 43.0309 88.1417 43.0974C88.1427 43.1742 88.1278 43.2503 88.0979 43.321C88.0852 43.3522 88.0662 43.3805 88.0421 43.4041C88.018 43.4276 87.9893 43.4459 87.9578 43.4578C87.6073 43.5637 87.25 43.6453 86.8884 43.7021C86.5226 43.7605 86.1528 43.7899 85.7824 43.79C85.6253 43.79 85.4463 43.7827 85.2477 43.7693C85.0535 43.7545 84.8611 43.7218 84.6728 43.6715C84.5025 43.6279 84.3421 43.552 84.2002 43.448C84.1358 43.4 84.0819 43.3392 84.0419 43.2695C84.0019 43.1997 83.9766 43.1224 83.9676 43.0425C83.9554 42.9203 83.9457 42.8104 83.9371 42.6956C83.9286 42.5807 83.9237 42.4659 83.9237 42.3487C83.9237 42.1141 83.9355 41.8796 83.9591 41.6451C83.9826 41.4105 84.0119 41.1817 84.0468 40.9586C84.0534 40.9047 84.0742 40.8537 84.1072 40.8107C84.1402 40.7677 84.1841 40.7344 84.2343 40.7143C84.3501 40.6663 84.4745 40.6427 84.5997 40.6446C84.6897 40.6449 84.7794 40.6535 84.8677 40.6703C84.9516 40.6858 85.0334 40.7112 85.1113 40.746C85.1744 40.7734 85.2322 40.8119 85.2818 40.8596C85.3014 40.8763 85.3168 40.8974 85.3268 40.9212C85.3367 40.9449 85.341 40.9707 85.3391 40.9964C85.3269 41.1491 85.3184 41.2994 85.3123 41.4496C85.3062 41.5999 85.3038 41.7501 85.3038 41.9016V42.1263C85.2989 42.2045 85.3025 42.279 85.3074 42.356H85.305ZM86.9371 36.0848C86.9303 36.0285 86.9461 35.9718 86.981 35.9272C87.0175 35.8778 87.0634 35.8363 87.1162 35.805C87.1779 35.7707 87.2444 35.7456 87.3135 35.7305C87.3882 35.7132 87.4646 35.7042 87.5412 35.7036C87.6643 35.7025 87.7859 35.7297 87.8969 35.783C87.9476 35.8057 87.9916 35.8411 88.0247 35.8859C88.0578 35.9306 88.0788 35.9831 88.0857 36.0383C88.1734 36.6247 88.2375 37.2138 88.2781 37.8059C88.3187 38.3979 88.3395 38.9903 88.3403 39.5832C88.3403 39.9643 88.3305 40.3417 88.3135 40.7167C88.3079 40.7751 88.2848 40.8305 88.2472 40.8754C88.2095 40.9204 88.1592 40.9528 88.1028 40.9684C87.9578 41.0255 87.803 41.0537 87.6472 41.0514C87.5589 41.0514 87.4708 41.0428 87.3841 41.0258C87.3037 41.0103 87.2256 40.9849 87.1515 40.95C87.089 40.9221 87.0336 40.8803 86.9895 40.8279C86.969 40.8031 86.9538 40.7744 86.9448 40.7435C86.9358 40.7126 86.9332 40.6802 86.9371 40.6483C86.9607 40.2729 86.9765 39.8934 86.9846 39.5099C86.9931 39.1251 86.998 38.7342 86.998 38.3348C86.998 37.9602 86.9936 37.5852 86.9846 37.2098C86.9757 36.8344 86.9607 36.4594 86.9396 36.0848H86.9371Z" fill="white"/>
<path d="M89.5084 39.1189C90.1515 39.1483 90.8137 39.1731 91.495 39.1935C92.1763 39.2138 92.8531 39.2244 93.5254 39.2252H94.2745C94.5181 39.2252 94.7617 39.2191 94.998 39.2069C95.0452 39.2019 95.0928 39.2107 95.1349 39.2324C95.1771 39.2541 95.2121 39.2877 95.2355 39.329C95.2882 39.415 95.3156 39.514 95.3147 39.6149C95.3146 39.7151 95.2854 39.8132 95.2307 39.897C95.2025 39.9407 95.1644 39.9769 95.1195 40.0028C95.0746 40.0287 95.0242 40.0436 94.9724 40.0461C94.2879 40.1104 93.5774 40.1605 92.8409 40.1963C92.1044 40.2322 91.3736 40.2497 90.6485 40.2488C90.4621 40.2488 90.2746 40.2488 90.087 40.2488C89.8994 40.2488 89.7131 40.2415 89.5267 40.2354C89.4723 40.2376 89.4188 40.2214 89.3747 40.1896C89.3305 40.1577 89.2983 40.1119 89.2831 40.0595C89.2319 39.9369 89.2062 39.8052 89.2076 39.6723C89.206 39.541 89.2317 39.4108 89.2831 39.29C89.2952 39.2397 89.3242 39.1952 89.3653 39.1641C89.4064 39.1329 89.457 39.1169 89.5084 39.1189ZM94.7971 38.7061C94.4722 38.7289 94.1434 38.7464 93.8105 38.7586C93.4743 38.7708 93.1308 38.7757 92.78 38.7757C92.2644 38.7757 91.754 38.7627 91.249 38.7366C90.7439 38.7106 90.2543 38.6739 89.78 38.6267C89.7344 38.6207 89.691 38.6036 89.6536 38.5767C89.6162 38.5499 89.586 38.5142 89.5657 38.4728C89.5153 38.3794 89.4898 38.2747 89.4914 38.1686C89.4902 38.0666 89.5176 37.9662 89.5706 37.8791C89.5939 37.8374 89.6284 37.8029 89.6701 37.7796C89.7118 37.7564 89.7592 37.7451 89.8068 37.7472L90.4293 37.7728V36.7675L89.8775 36.7932C89.7947 36.7993 89.7325 36.748 89.6887 36.6393C89.6432 36.5226 89.6209 36.3981 89.6229 36.2728C89.6217 36.1476 89.644 36.0233 89.6887 35.9064C89.7018 35.8599 89.7284 35.8185 89.765 35.7872C89.8017 35.7558 89.8467 35.7361 89.8945 35.7305C90.1223 35.7195 90.3574 35.7134 90.601 35.7134H91.3318C91.8937 35.7134 92.452 35.7219 93.0066 35.739C93.5612 35.7561 94.0963 35.7826 94.6119 35.8184C94.6596 35.8209 94.7057 35.8366 94.7451 35.8638C94.7844 35.8909 94.8155 35.9285 94.8348 35.9723C94.8852 36.0718 94.9107 36.1821 94.9091 36.2936C94.9108 36.403 94.8871 36.5114 94.8397 36.61C94.8246 36.6508 94.7968 36.6857 94.7604 36.7095C94.7239 36.7332 94.6809 36.7446 94.6375 36.7419L94.1296 36.7248L94.1527 37.7447C94.2587 37.7386 94.3634 37.7338 94.4682 37.7313C94.5729 37.7289 94.6789 37.7215 94.7849 37.7093C94.8318 37.7055 94.8785 37.7179 94.9175 37.7443C94.9565 37.7707 94.9853 37.8096 94.9992 37.8547C95.0446 37.9646 95.067 38.0827 95.065 38.2016C95.0664 38.3236 95.044 38.4448 94.9992 38.5583C94.9868 38.602 94.9601 38.6403 94.9235 38.667C94.8869 38.6938 94.8424 38.7076 94.7971 38.7061ZM94.3586 42.1532C94.3695 42.3584 94.3318 42.5001 94.2441 42.5795C94.1419 42.6647 94.0114 42.7083 93.8787 42.7016H93.2697C93.0772 42.7016 92.8872 42.7016 92.6996 42.7016L92.1345 42.7102C91.9432 42.7102 91.7435 42.7175 91.5328 42.7236C91.5096 42.7236 91.4914 42.7407 91.4767 42.7761C91.4612 42.8149 91.4537 42.8565 91.4548 42.8983C91.4536 42.9397 91.4593 42.981 91.4719 43.0204C91.4841 43.0547 91.5011 43.073 91.5242 43.073C91.6765 43.0791 91.8251 43.0827 91.9713 43.0864H92.4097C92.7435 43.0864 93.0711 43.0807 93.3927 43.0693C93.7142 43.0579 94.0443 43.0404 94.3829 43.0168C94.4001 43.0138 94.4176 43.0146 94.4344 43.019C94.4512 43.0235 94.4669 43.0314 94.4804 43.0424C94.5111 43.0684 94.5349 43.1015 94.5498 43.1389C94.5684 43.1832 94.5831 43.2289 94.5936 43.2757C94.6055 43.3233 94.6117 43.3721 94.6119 43.4211C94.6132 43.4844 94.6011 43.5472 94.5766 43.6056C94.5679 43.629 94.5537 43.6499 94.5353 43.6667C94.5169 43.6835 94.4947 43.6956 94.4706 43.702C94.0682 43.7851 93.6616 43.8467 93.2526 43.8865C92.8373 43.9282 92.4203 43.949 92.0029 43.9488C91.752 43.9488 91.5052 43.9415 91.2624 43.9268C91.0188 43.9121 90.7752 43.8865 90.5389 43.8523C90.4824 43.8441 90.4282 43.8242 90.3798 43.7939C90.3314 43.7636 90.2897 43.7236 90.2575 43.6764C90.1873 43.5749 90.1452 43.4564 90.1357 43.3332C90.1357 43.2513 90.1247 43.167 90.1223 43.0827C90.1199 42.9985 90.1223 42.9142 90.1223 42.8311C90.1223 42.7481 90.1223 42.6674 90.1223 42.5868C90.1223 42.5062 90.1296 42.4231 90.1357 42.3425C90.1367 42.285 90.1497 42.2284 90.1738 42.1762C90.198 42.124 90.2327 42.0775 90.2758 42.0396C90.3717 41.9675 90.4885 41.9288 90.6083 41.9296C90.8422 41.9174 91.0614 41.9113 91.266 41.9113H93.0078C93.0248 41.9113 93.0382 41.8954 93.0468 41.8637C93.0564 41.8291 93.0609 41.7933 93.0602 41.7574C93.0607 41.7212 93.0532 41.6853 93.0382 41.6524C93.0335 41.6385 93.0247 41.6263 93.013 41.6176C93.0012 41.6089 92.9871 41.604 92.9725 41.6035L92.227 41.573C91.9932 41.5644 91.7654 41.5595 91.5437 41.5595C91.3562 41.5595 91.1686 41.5595 90.9822 41.5693C90.7959 41.5791 90.6046 41.584 90.4122 41.5949C90.3355 41.5949 90.2794 41.5571 90.2405 41.463C90.2016 41.3622 90.1826 41.2547 90.1844 41.1467C90.1831 41.0493 90.1992 40.9525 90.2319 40.8608C90.2412 40.8254 90.2607 40.7935 90.288 40.7691C90.3153 40.7448 90.3492 40.7291 90.3854 40.724C90.9538 40.6719 91.5121 40.6458 92.0602 40.6458C92.3647 40.6458 92.6631 40.6458 92.9554 40.6629C93.2477 40.68 93.5425 40.6898 93.8409 40.7069C93.8997 40.7052 93.9582 40.7166 94.0121 40.7402C94.066 40.7639 94.1141 40.7992 94.1527 40.8437C94.2164 40.9405 94.258 41.0502 94.2745 41.165C94.2977 41.3164 94.3147 41.4679 94.3269 41.6169C94.3391 41.766 94.3464 41.9419 94.3586 42.1532ZM91.763 37.7912H92.2892C92.4646 37.7912 92.64 37.7912 92.8153 37.7826C92.8153 37.6128 92.8239 37.4333 92.8239 37.2452V36.7175C92.6424 36.7175 92.4585 36.7175 92.2794 36.7175C92.1004 36.7175 91.914 36.7248 91.7362 36.7309L91.763 37.7912Z" fill="white"/>
<path d="M99.2169 37.9315C99.2196 38.0502 99.1892 38.1674 99.1292 38.2698C99.0942 38.3203 99.0463 38.3603 98.9906 38.3859C98.9349 38.4115 98.8734 38.4216 98.8125 38.4152C98.5689 38.4152 98.3374 38.4152 98.1243 38.4152C97.9111 38.4152 97.6822 38.425 97.4361 38.4372C97.29 38.4482 97.2169 38.5398 97.2169 38.7096V38.8317C97.2169 38.8659 97.2169 38.9136 97.2254 38.9722C97.2247 39.0117 97.236 39.0504 97.2578 39.0834C97.2795 39.1163 97.3107 39.1418 97.3472 39.1566C97.4179 39.1801 97.4919 39.192 97.5664 39.1921C97.631 39.1921 97.6955 39.1921 97.7589 39.1921C97.8222 39.1921 97.888 39.1921 97.9526 39.1921C98.1572 39.1921 98.3582 39.1859 98.5616 39.175C98.765 39.164 98.9696 39.142 99.1925 39.1127C99.257 39.1127 99.3143 39.153 99.3545 39.2495C99.3986 39.3473 99.421 39.4536 99.4203 39.561C99.4211 39.6317 99.4091 39.7021 99.3849 39.7686C99.3761 39.7974 99.3604 39.8236 99.3392 39.8449C99.3179 39.8662 99.2918 39.8819 99.2631 39.8908C98.9844 39.9806 98.6994 40.0496 98.4105 40.0972C98.1074 40.1477 97.8006 40.1726 97.4934 40.1717C97.3241 40.1717 97.1523 40.1644 96.9769 40.1497C96.8025 40.1357 96.6294 40.1079 96.4593 40.0667C96.3449 40.0394 96.2457 39.9684 96.1828 39.8688C96.1126 39.7622 96.0706 39.6394 96.061 39.5121C96.0427 39.2776 96.0342 39.0491 96.0342 38.8268C96.0342 38.5679 96.0431 38.2894 96.061 37.9913C96.0788 37.6933 96.2335 37.5434 96.525 37.5418C96.8068 37.5247 97.0934 37.5161 97.385 37.5161H97.6395C97.7272 37.5161 97.8173 37.5161 97.9111 37.5161C97.9366 37.5186 97.9623 37.5155 97.9865 37.5071C98.0107 37.4986 98.0327 37.4851 98.0512 37.4673C98.0851 37.4172 98.0978 37.3557 98.0865 37.2963C98.0807 37.2395 98.0779 37.1824 98.078 37.1253C98.0785 37.0734 98.0723 37.0217 98.0597 36.9714C98.0579 36.9457 98.0508 36.9208 98.0388 36.8981C98.0269 36.8754 98.0103 36.8554 97.9903 36.8394C97.9448 36.8125 97.8933 36.7974 97.8405 36.7955C97.6895 36.7832 97.5445 36.7771 97.4069 36.7771H96.6444C96.5299 36.7771 96.4118 36.7771 96.2887 36.7857C96.2132 36.7918 96.156 36.7429 96.1182 36.6367C96.0788 36.5266 96.0594 36.4103 96.061 36.2934C96.0596 36.1905 96.0757 36.088 96.1085 35.9905C96.1414 35.8989 96.1889 35.8512 96.2534 35.8451C96.4816 35.8223 96.7155 35.8048 96.955 35.7926C97.1986 35.7804 97.4422 35.7755 97.6858 35.7755C97.8551 35.7755 98.0244 35.7755 98.1937 35.784C98.363 35.7926 98.5335 35.7987 98.7028 35.8097C98.7618 35.809 98.8201 35.8226 98.8727 35.8494C98.9254 35.8762 98.9707 35.9154 99.0049 35.9636C99.0679 36.0736 99.1092 36.1947 99.1267 36.3203C99.1377 36.4021 99.1499 36.5047 99.1608 36.6281C99.1718 36.7515 99.1827 36.8846 99.1925 37.0275C99.2022 37.1705 99.2071 37.3195 99.2095 37.4722C99.212 37.6249 99.2169 37.791 99.2169 37.9315ZM98.6078 43.78C98.5639 43.8009 98.5158 43.8117 98.4672 43.8117C98.4185 43.8117 98.3705 43.8009 98.3265 43.78C98.2097 43.7315 98.1015 43.6642 98.0061 43.5809C97.9053 43.4955 97.8168 43.3964 97.7431 43.2866C97.6772 43.1988 97.639 43.0933 97.6334 42.9836C97.6338 42.9373 97.6472 42.8921 97.6723 42.8531C97.6973 42.8142 97.7328 42.7832 97.7747 42.7638C98.0549 42.6282 98.3046 42.4999 98.5238 42.3765C98.7233 42.2673 98.9089 42.1344 99.0768 41.9808C99.2197 41.8484 99.3319 41.6862 99.4056 41.5056C99.4785 41.3062 99.5023 41.092 99.4751 40.8814C99.4697 40.8249 99.4853 40.7683 99.5189 40.7226C99.5577 40.6731 99.6057 40.6317 99.6602 40.6005C99.7225 40.5633 99.7904 40.5365 99.8612 40.5211C99.939 40.5027 100.019 40.4937 100.099 40.4942C100.228 40.4931 100.355 40.5219 100.471 40.5785C100.524 40.6011 100.569 40.6368 100.604 40.6821C100.638 40.7275 100.661 40.7809 100.669 40.8374C100.685 40.9687 100.694 41.1009 100.694 41.2332C100.695 41.3124 100.69 41.3915 100.681 41.4702C100.672 41.5471 100.663 41.6229 100.65 41.6998C100.966 41.8399 101.267 41.9893 101.554 42.1481C101.835 42.3022 102.1 42.4848 102.343 42.6929C102.377 42.7227 102.404 42.7594 102.422 42.8006C102.44 42.8417 102.449 42.8862 102.448 42.9311C102.444 43.0511 102.407 43.1678 102.343 43.2695C102.277 43.3845 102.193 43.4884 102.094 43.5773C102.007 43.6562 101.903 43.7135 101.791 43.7446C101.744 43.7587 101.694 43.7591 101.648 43.7457C101.601 43.7322 101.559 43.7056 101.527 43.6689C101.335 43.4634 101.128 43.2712 100.91 43.0936C100.688 42.9127 100.455 42.7467 100.212 42.5964C100.014 42.8338 99.7877 43.0452 99.5372 43.2255C99.2416 43.4359 98.9291 43.6214 98.603 43.78H98.6078ZM101.287 36.0577C101.285 35.9998 101.3 35.9425 101.33 35.8933C101.361 35.844 101.405 35.8051 101.458 35.7816C101.577 35.7144 101.711 35.6794 101.848 35.6802C101.961 35.6789 102.073 35.7062 102.173 35.7596C102.221 35.7844 102.262 35.8205 102.292 35.8648C102.323 35.9091 102.342 35.9602 102.348 36.0137C102.43 36.5243 102.489 37.0772 102.527 37.6725C102.566 38.2678 102.585 38.8496 102.585 39.418C102.585 39.5707 102.585 39.7197 102.585 39.8663C102.585 40.0129 102.576 40.1534 102.571 40.289C102.566 40.3462 102.544 40.4005 102.508 40.4452C102.472 40.4898 102.424 40.5226 102.369 40.5394C102.236 40.5959 102.093 40.6242 101.949 40.6224C101.867 40.6223 101.785 40.6137 101.705 40.5968C101.631 40.5815 101.559 40.556 101.491 40.5211C101.433 40.492 101.381 40.4503 101.341 40.3989C101.303 40.3469 101.286 40.2823 101.294 40.2181C101.305 39.9665 101.315 39.7014 101.324 39.4217C101.333 39.142 101.34 38.861 101.346 38.574C101.264 38.5679 101.185 38.5642 101.108 38.5642H100.851C100.858 38.6583 100.86 38.7499 100.86 38.8378V39.1017C100.86 39.2482 100.86 39.3912 100.86 39.5316C100.86 39.6721 100.853 39.8138 100.847 39.9543C100.842 40.01 100.82 40.063 100.785 40.1065C100.75 40.15 100.703 40.1821 100.649 40.1986C100.518 40.2555 100.376 40.2838 100.233 40.2816C100.151 40.2814 100.069 40.2728 99.9891 40.256C99.9147 40.2405 99.8427 40.2154 99.7747 40.1815C99.7174 40.1529 99.6677 40.111 99.6298 40.0593C99.5941 40.0095 99.5784 39.948 99.5859 39.8871C99.6208 39.3008 99.6383 38.703 99.6383 38.0939C99.6383 37.4017 99.6208 36.7242 99.5859 36.0613C99.5831 36.0039 99.5975 35.9469 99.6272 35.8977C99.6569 35.8485 99.7007 35.8093 99.7528 35.7853C99.8702 35.7176 100.003 35.6826 100.139 35.6839C100.252 35.6826 100.363 35.7099 100.463 35.7633C100.511 35.7876 100.552 35.8236 100.583 35.868C100.613 35.9123 100.632 35.9637 100.638 36.0174C100.673 36.2617 100.704 36.5023 100.731 36.7393C100.756 36.9836 100.782 37.2279 100.805 37.4722C100.89 37.4679 100.975 37.4679 101.06 37.4722H101.323C101.316 37.2279 101.31 36.986 101.305 36.7466C101.299 36.5072 101.29 36.2775 101.278 36.0577H101.287Z" fill="white"/>
<path d="M104.083 36.8408C104.001 36.8408 103.939 36.7932 103.895 36.6784C103.808 36.4311 103.808 36.161 103.895 35.9137C103.908 35.8664 103.934 35.8238 103.971 35.7916C104.007 35.7594 104.053 35.7389 104.101 35.7329C104.563 35.7158 105.046 35.7069 105.548 35.7061C106.104 35.7061 106.661 35.7166 107.219 35.7378C107.778 35.759 108.311 35.7867 108.82 35.8209C108.868 35.8239 108.915 35.8408 108.955 35.8696C108.994 35.8984 109.025 35.9378 109.043 35.9833C109.092 36.0861 109.118 36.1989 109.117 36.3131C109.118 36.4257 109.094 36.537 109.048 36.6393C109.034 36.6815 109.006 36.7181 108.97 36.7434C108.933 36.7687 108.89 36.7815 108.845 36.7798L108.328 36.7627C108.34 36.9255 108.347 37.11 108.35 37.316C108.35 37.5212 108.357 37.7154 108.363 37.8962L108.678 37.8828C108.784 37.8828 108.889 37.873 108.995 37.862C109.043 37.8589 109.09 37.8723 109.129 37.9002C109.168 37.928 109.197 37.9684 109.21 38.0147C109.255 38.1314 109.277 38.2559 109.275 38.3812C109.276 38.5064 109.254 38.6307 109.21 38.7476C109.166 38.8588 109.097 38.9113 109.004 38.9052C108.419 38.9467 107.805 38.9732 107.162 38.9846L107.188 39.5563H107.705C108.214 39.5563 108.714 39.5473 109.205 39.5294C109.252 39.5249 109.3 39.5347 109.343 39.5575C109.385 39.5803 109.42 39.6152 109.442 39.6576C109.495 39.7497 109.522 39.8543 109.521 39.9606C109.522 40.069 109.493 40.1756 109.437 40.2684C109.411 40.3142 109.373 40.3526 109.328 40.3803C109.283 40.408 109.232 40.4241 109.179 40.4272C108.495 40.4915 107.784 40.5428 107.048 40.5811C106.311 40.6194 105.577 40.6385 104.847 40.6385C104.659 40.6385 104.473 40.6385 104.285 40.6385C104.098 40.6385 103.914 40.6312 103.733 40.6251C103.678 40.6257 103.624 40.6079 103.58 40.5745C103.536 40.5412 103.504 40.4941 103.49 40.4406C103.438 40.3092 103.412 40.169 103.414 40.0278C103.412 39.8877 103.438 39.7486 103.49 39.6185C103.502 39.569 103.531 39.525 103.571 39.4938C103.612 39.4626 103.662 39.4458 103.713 39.4463C104.046 39.4646 104.386 39.4805 104.735 39.4952C105.083 39.5098 105.435 39.5233 105.792 39.5343V38.9663C105.475 38.954 105.167 38.9361 104.866 38.9125C104.566 38.8889 104.272 38.8628 103.984 38.8343C103.938 38.8277 103.893 38.8091 103.856 38.7805C103.818 38.7518 103.789 38.714 103.77 38.6707C103.719 38.5713 103.694 38.461 103.696 38.3494C103.693 38.2414 103.72 38.1349 103.775 38.0416C103.798 38.0005 103.833 37.967 103.875 37.9453C103.917 37.9236 103.964 37.9146 104.011 37.9194L104.633 37.9451V36.8201L104.083 36.8408ZM104.54 43.2525C104.528 42.9609 104.534 42.6689 104.557 42.3779C104.581 42.0762 104.621 41.7611 104.678 41.4325C104.684 41.3758 104.703 41.3212 104.733 41.273C104.764 41.2249 104.805 41.1846 104.854 41.1552C104.958 41.0921 105.075 41.0544 105.196 41.0453C105.365 41.0331 105.549 41.0233 105.748 41.0147C105.946 41.0062 106.152 41.0013 106.357 41.0013C106.62 41.0013 106.879 41.0086 107.133 41.0233C107.387 41.0379 107.625 41.0599 107.848 41.0892C107.991 41.0933 108.128 41.1493 108.233 41.2468C108.311 41.3465 108.363 41.4647 108.382 41.5901C108.412 41.7782 108.434 41.9565 108.448 42.1446C108.463 42.3327 108.47 42.5111 108.47 42.698V42.9618C108.47 43.0473 108.464 43.1326 108.452 43.2171C108.445 43.2858 108.424 43.3524 108.39 43.4124C108.356 43.4724 108.31 43.5245 108.255 43.5652C108.116 43.6728 107.961 43.7554 107.794 43.8095C107.586 43.8784 107.372 43.9267 107.155 43.9537C106.682 44.0155 106.203 44.0155 105.73 43.9537C105.522 43.9293 105.318 43.8835 105.121 43.8169C104.964 43.7672 104.818 43.6885 104.691 43.5848C104.643 43.544 104.604 43.493 104.578 43.4356C104.552 43.3782 104.539 43.3157 104.54 43.2525ZM107.294 42.7334C107.294 42.7041 107.294 42.6613 107.294 42.6112C107.294 42.5612 107.287 42.4976 107.285 42.439C107.283 42.3804 107.278 42.3242 107.272 42.268C107.266 42.2118 107.259 42.1666 107.255 42.1324C107.249 42.106 107.236 42.0818 107.217 42.0622C107.198 42.0426 107.175 42.0285 107.149 42.0213C107.089 42.0011 107.027 41.9908 106.965 41.9907H106.781C106.716 41.9907 106.649 41.9907 106.579 41.9907C106.48 41.9907 106.383 41.9907 106.29 41.9907C106.197 41.9907 106.108 41.998 106.027 42.0029C105.972 41.9999 105.918 42.0154 105.873 42.0469C105.85 42.0757 105.834 42.109 105.825 42.1446C105.825 42.1739 105.814 42.2167 105.808 42.2668C105.802 42.3169 105.797 42.3816 105.794 42.4427C105.792 42.5038 105.794 42.5648 105.786 42.6186C105.777 42.6723 105.786 42.7163 105.786 42.7407C105.787 42.7631 105.793 42.7848 105.805 42.804C105.816 42.8232 105.832 42.8392 105.851 42.8507C105.905 42.8875 105.964 42.9145 106.027 42.9301C106.107 42.9521 106.188 42.9668 106.27 42.974C106.361 42.9826 106.453 42.9875 106.547 42.9875C106.641 42.9875 106.732 42.9875 106.822 42.974C106.905 42.9676 106.987 42.9516 107.066 42.9264C107.126 42.9072 107.184 42.8805 107.238 42.847C107.256 42.8343 107.27 42.8172 107.28 42.7974C107.29 42.7775 107.294 42.7555 107.294 42.7334ZM105.934 36.7675C105.945 36.9373 105.953 37.134 105.956 37.3478C105.96 37.5615 105.964 37.7667 105.97 37.9585C106.144 37.9585 106.32 37.9585 106.496 37.9585C106.671 37.9585 106.845 37.9512 107.022 37.9451C107.022 37.7582 107.03 37.5554 107.03 37.3343V36.7541C106.849 36.7541 106.665 36.7541 106.486 36.7541C106.307 36.7541 106.121 36.7675 105.934 36.7675Z" fill="white"/>
<path d="M64.3111 17.2895C64.3185 17.6224 64.2264 17.95 64.0468 18.23C63.8701 18.4988 63.523 18.6331 63.0078 18.6331C62.2266 18.6331 61.4386 18.6413 60.6436 18.6576C59.8487 18.6738 59.0533 18.6983 58.2575 18.7308C57.8012 18.7642 57.573 19.0085 57.573 19.4638V19.8058C57.5772 19.9451 57.5918 20.084 57.6169 20.2211C57.6217 20.3285 57.6608 20.4315 57.7283 20.5151C57.7958 20.5986 57.8882 20.6582 57.992 20.6853C58.2227 20.752 58.46 20.793 58.6997 20.8074C58.9201 20.8074 59.1418 20.8074 59.3623 20.8196C59.5827 20.8318 59.8044 20.8318 60.0249 20.8318C60.7329 20.8318 61.4366 20.8156 62.1357 20.783C62.8348 20.7504 63.5307 20.7015 64.2234 20.6364C64.4434 20.6209 64.6237 20.7472 64.7642 21.0151C64.9021 21.2745 64.9745 21.5639 64.9749 21.8579C64.9782 22.051 64.9404 22.2425 64.864 22.4198C64.8299 22.4982 64.7782 22.5677 64.7129 22.6228C64.6476 22.6779 64.5706 22.7171 64.4877 22.7374C63.585 22.9726 62.6706 23.1602 61.7484 23.2993C60.7756 23.447 59.7931 23.5205 58.8093 23.5192C58.2506 23.5192 57.6948 23.4947 57.1418 23.4459C56.5815 23.3957 56.0244 23.3141 55.4731 23.2016C55.1197 23.1378 54.8018 22.9467 54.5791 22.6641C54.3659 22.3898 54.2387 22.0582 54.2137 21.7113C54.1699 21.0599 54.1479 20.4165 54.1479 19.7813C54.1479 19.1136 54.1699 18.3644 54.2137 17.5338C54.2199 17.365 54.2615 17.1994 54.3358 17.0479C54.4101 16.8964 54.5154 16.7622 54.6449 16.6543C54.9487 16.4262 55.3155 16.2982 55.6948 16.2878C56.4906 16.239 57.3521 16.2145 58.2795 16.2145C58.6449 16.2145 59.0164 16.2145 59.3842 16.2268C59.752 16.239 60.115 16.239 60.467 16.239C60.6309 16.251 60.7942 16.2081 60.9311 16.1168C61.0334 16.035 61.0785 15.8811 61.0638 15.6526C61.0492 15.4898 61.0419 15.331 61.0419 15.1763C61.0427 15.0325 61.0276 14.8891 60.9968 14.7487C60.9938 14.6772 60.9718 14.6078 60.933 14.5476C60.8943 14.4875 60.8402 14.4388 60.7764 14.4067C60.6199 14.3495 60.4556 14.3166 60.2892 14.309C59.3611 14.2601 58.411 14.2357 57.439 14.2357C57.0111 14.2357 56.5913 14.2398 56.1796 14.2479C55.7679 14.256 55.3554 14.2683 54.9421 14.2846C54.7058 14.3 54.5255 14.1657 54.4013 13.8815C54.2732 13.5847 54.2089 13.2642 54.2125 12.9409C54.209 12.6525 54.2616 12.3663 54.3672 12.098C54.4711 11.8448 54.6335 11.7104 54.8544 11.695C56.3373 11.545 57.8268 11.4716 59.3172 11.4751C59.8767 11.4751 60.4398 11.4873 61.0066 11.5117C61.5734 11.5362 62.1369 11.5647 62.6972 11.5972C63.169 11.6306 63.4938 11.7691 63.6716 12.0125C63.8677 12.3063 63.9963 12.6401 64.048 12.9898C64.0918 13.2182 64.1284 13.4942 64.1576 13.8204C64.1868 14.1465 64.2173 14.5044 64.2465 14.8953C64.2757 15.2862 64.294 15.6856 64.3013 16.0924C64.3086 16.4991 64.3111 16.8986 64.3111 17.2895ZM58.6777 28.0387C58.4122 28.0387 58.2092 27.884 58.0687 27.5746C57.9256 27.2518 57.8537 26.9018 57.858 26.5485C57.8543 26.2431 57.911 25.9401 58.0249 25.6568C58.1345 25.3881 58.3075 25.2456 58.5438 25.2293C59.2648 25.1804 60.1154 25.1478 61.0955 25.1316C62.0756 25.1153 63.0589 25.1071 64.0455 25.1071H65.9456C66.549 25.1071 67.0865 25.1234 67.5583 25.156C67.842 25.1544 68.1195 25.2396 68.3537 25.4003C68.5498 25.5536 68.6961 25.7619 68.7739 25.9988C68.8684 26.2911 68.9205 26.5956 68.9286 26.9027C68.942 27.2533 68.9505 27.6357 68.9505 28.0387V29.3458C68.9505 29.744 68.942 30.1312 68.9286 30.5062C68.9152 30.8812 68.8945 31.2635 68.8725 31.6544C68.8506 32.0453 68.8177 32.4606 68.7739 32.9004C68.7438 33.1447 68.5705 33.332 68.2538 33.4623C67.9203 33.5954 67.564 33.6617 67.2051 33.6577C66.9745 33.6583 66.7446 33.6337 66.5193 33.5844C66.3113 33.5402 66.1107 33.4661 65.9237 33.3645C65.7615 33.2803 65.6213 33.1589 65.5145 33.0103C65.4166 32.8631 65.3807 32.6831 65.4146 32.5095C65.5185 31.9077 65.5924 31.3417 65.6363 30.8116C65.6801 30.2814 65.7093 29.6503 65.724 28.9182C65.7298 28.7137 65.7151 28.5091 65.6801 28.3075C65.6509 28.1764 65.5108 28.1031 65.2599 28.0876C63.9493 28.0388 62.668 28.0143 61.4158 28.0143H60.048C59.6022 28.0143 59.143 28.0229 58.6717 28.0387H58.6777ZM65.8579 23.2016C65.9164 22.5175 65.9607 21.7724 65.9907 20.9662C66.0207 20.16 66.0354 19.3172 66.0346 18.4377C66.0346 17.3628 66.0163 16.2675 65.9797 15.1518C65.9432 14.0362 65.9026 12.9653 65.8579 11.9393C65.8412 11.7841 65.8806 11.6281 65.9688 11.4995C66.0587 11.3669 66.1753 11.2545 66.311 11.1697C66.4647 11.0745 66.6324 11.0044 66.808 10.962C66.9958 10.9137 67.189 10.889 67.3829 10.8888C67.6949 10.8858 68.0028 10.9614 68.2781 11.1086C68.4108 11.179 68.525 11.2799 68.6114 11.403C68.6978 11.5262 68.7539 11.6681 68.7751 11.8171C68.8774 12.4368 68.9618 13.0801 69.0284 13.7471C69.095 14.414 69.1575 15.1062 69.216 15.8237C69.5254 15.8078 69.825 15.8029 70.1332 15.8114C70.4413 15.82 70.7337 15.8322 71.0284 15.8481C71.2939 15.8636 71.4929 16.0224 71.6252 16.3245C71.7616 16.6447 71.8292 16.9901 71.8238 17.3383C71.8236 17.5518 71.8016 17.7646 71.758 17.9735C71.7175 18.173 71.6503 18.3662 71.5583 18.5476C71.4786 18.7082 71.3656 18.8498 71.227 18.9629C71.0955 19.0686 70.9313 19.1248 70.7629 19.1217H70.0564C69.8348 19.1217 69.6143 19.1303 69.3938 19.1462C69.4072 19.4234 69.4158 19.6958 69.4158 19.9646V20.7586C69.4158 21.7358 69.3934 22.6152 69.3488 23.397C69.3342 23.7056 69.1502 23.9377 68.797 24.0933C68.4268 24.2515 68.0277 24.3305 67.6253 24.3254C67.1892 24.333 66.7576 24.2368 66.3659 24.0444C65.994 23.8579 65.8226 23.577 65.8519 23.2016H65.8579Z" fill="white"/>
<path d="M78.7609 14.7788C78.7584 14.8905 78.7894 15.0003 78.85 15.094C78.9107 15.1877 78.998 15.2609 79.1007 15.3041C79.3295 15.3979 79.5701 15.4596 79.8157 15.4873C80.3784 15.5362 80.9643 15.5606 81.5733 15.5606C82.2765 15.5606 82.9915 15.5362 83.7182 15.4873C84.445 15.4384 85.1352 15.3733 85.7888 15.2919C86.0227 15.2764 86.218 15.423 86.3747 15.7316C86.529 16.0341 86.6092 16.3691 86.6086 16.7088C86.6106 16.9187 86.5692 17.1267 86.4868 17.3196C86.4525 17.4044 86.3985 17.4797 86.3292 17.5392C86.2599 17.5988 86.1773 17.6407 86.0885 17.6616C85.0935 17.9241 84.0841 18.128 83.0654 18.2723C82.0405 18.4184 81.0067 18.4919 79.9716 18.4922C79.3772 18.4922 78.7913 18.4678 78.214 18.4189C77.6454 18.3719 77.0811 18.282 76.5258 18.1502C76.148 18.0688 75.8043 17.8726 75.5417 17.5883C75.2983 17.3273 75.1498 16.9916 75.1203 16.6355C75.1048 16.3758 75.0931 16.1192 75.0849 15.866C75.0768 15.6127 75.0728 15.3562 75.0728 15.0964C75.076 13.9313 75.1455 12.7674 75.281 11.6102C75.4134 10.4457 75.5969 9.22829 75.8316 7.95792C75.852 7.81145 75.9068 7.67194 75.9915 7.55089C76.0762 7.42983 76.1884 7.3307 76.3188 7.26166C76.602 7.11932 76.9155 7.04806 77.2323 7.054C77.4695 7.05411 77.7059 7.08282 77.9363 7.13951C78.1539 7.19123 78.3657 7.26489 78.5685 7.35938C78.7365 7.43468 78.888 7.54262 79.0142 7.67697C79.0622 7.72197 79.0997 7.77708 79.1239 7.83833C79.1481 7.89958 79.1585 7.96545 79.1543 8.03121C79.0138 8.97503 78.9046 9.86673 78.8267 10.7063C78.7487 11.5459 78.7081 12.405 78.7049 13.2837C78.7049 13.528 78.7085 13.7723 78.7158 14.0166C78.7341 14.2658 78.7451 14.5186 78.7609 14.7788ZM90.4794 24.0134C90.5103 24.6161 90.4088 25.0354 90.1749 25.2716C89.9411 25.5078 89.613 25.6258 89.1908 25.6258H87.5964C87.097 25.6258 86.6098 25.6299 86.1348 25.6381C85.6597 25.6462 85.179 25.6584 84.6926 25.6747C84.2054 25.691 83.6821 25.7073 83.1226 25.7236C83.0605 25.7236 83.0093 25.7761 82.9704 25.8824C82.9307 25.9919 82.9109 26.1078 82.9119 26.2244C82.9112 26.34 82.9268 26.4551 82.9582 26.5664C82.9898 26.6714 83.0361 26.7252 83.0995 26.7252C83.4113 26.7252 83.7121 26.7293 84.002 26.7374C84.2907 26.7447 84.5915 26.7496 84.9034 26.7496C85.8412 26.7496 86.775 26.7333 87.7048 26.7008C88.6345 26.6682 89.5838 26.6193 90.5525 26.5542C90.7385 26.5387 90.8866 26.6649 90.9971 26.9329C91.1064 27.2003 91.1623 27.4867 91.1615 27.7757C91.1664 27.9593 91.1345 28.1421 91.0677 28.3132C91.0455 28.3772 91.0084 28.4349 90.9595 28.4816C90.9105 28.5284 90.8512 28.5627 90.7864 28.5819C88.6489 29.0701 86.4634 29.316 84.2712 29.3148C83.6305 29.3148 82.9939 29.2944 82.3614 29.2537C81.7288 29.213 81.0999 29.1438 80.4746 29.0461C80.3193 29.0135 80.1723 28.9489 80.0432 28.8564C79.914 28.7639 79.8054 28.6454 79.7244 28.5086C79.5338 28.2072 79.4212 27.863 79.3967 27.507C79.3809 27.2785 79.3687 27.0501 79.3614 26.8229C79.3541 26.5957 79.3492 26.3661 79.3492 26.1389C79.3492 25.9117 79.3492 25.6784 79.3614 25.4426C79.3736 25.2069 79.3809 24.954 79.3967 24.6731C79.4061 24.3464 79.5404 24.0359 79.7719 23.8058C80.02 23.5898 80.334 23.4649 80.6622 23.4515C81.3654 23.4182 82.0292 23.3978 82.6537 23.3905C83.2781 23.3831 83.9111 23.3791 84.5526 23.3783C84.9123 23.3783 85.287 23.3823 85.6768 23.3905C86.0666 23.3986 86.4653 23.4027 86.8729 23.4027C86.9192 23.4027 86.9545 23.3538 86.9776 23.2561C87.0027 23.148 87.0146 23.0373 87.013 22.9263C87.014 22.8097 86.9942 22.6939 86.9545 22.5843C86.9155 22.478 86.857 22.4255 86.7791 22.4255C86.1067 22.3766 85.4738 22.34 84.8802 22.3155C84.2866 22.2911 83.6931 22.2789 83.0995 22.2789C82.6301 22.2789 82.1535 22.287 81.6695 22.3033C81.1856 22.3196 80.6699 22.344 80.1226 22.3766C79.9192 22.4096 79.767 22.2826 79.6659 21.998C79.5625 21.7038 79.511 21.3937 79.5136 21.0818C79.5099 20.7956 79.5535 20.5108 79.6427 20.239C79.728 19.9861 79.8656 19.8518 80.052 19.8359C81.5005 19.6895 82.9554 19.6161 84.4113 19.616C85.177 19.616 85.9484 19.6323 86.7255 19.6649C87.5026 19.6974 88.2955 19.7382 89.1043 19.787C89.5099 19.82 89.7876 19.9495 89.9362 20.1779C90.106 20.4702 90.2134 20.7946 90.2517 21.1307C90.315 21.5704 90.3613 22.0065 90.3929 22.4377C90.4246 22.8689 90.4478 23.3941 90.4794 24.0134ZM87.1749 17.8815C87.2367 17.2626 87.2834 16.603 87.315 15.9026C87.3467 15.2023 87.3625 14.4694 87.3625 13.7039C87.3625 12.7756 87.343 11.8309 87.3041 10.87C87.2651 9.90908 87.222 8.94001 87.1749 7.96281C87.1583 7.82003 87.1957 7.67618 87.2797 7.55971C87.3764 7.42789 87.5012 7.31939 87.6451 7.24212C87.8094 7.14931 87.9875 7.08334 88.1725 7.04667C88.3688 7.00599 88.5688 6.98552 88.7693 6.9856C89.1056 6.98059 89.4386 7.05156 89.7437 7.19326C89.8796 7.25361 89.9987 7.34638 90.0906 7.46348C90.1826 7.58058 90.2445 7.71846 90.2711 7.86509C90.3645 8.38708 90.4457 8.91233 90.5147 9.44083C90.5838 9.96934 90.6499 10.5027 90.7133 11.041C91.0726 11.0251 91.4356 11.0202 91.8034 11.0288C92.1712 11.0373 92.5257 11.0496 92.8692 11.0654C93.1505 11.0813 93.3625 11.2401 93.5025 11.5418C93.6464 11.8601 93.7184 12.2063 93.7132 12.5557C93.7132 12.7694 93.6895 12.9824 93.6426 13.1909C93.6002 13.3914 93.5292 13.5847 93.4319 13.765C93.3457 13.9268 93.2261 14.0684 93.0811 14.1803C92.9406 14.2857 92.7693 14.3415 92.5939 14.3391H91.7413C91.4684 14.3391 91.1981 14.3476 90.9325 14.3635C90.9325 14.6078 90.9325 14.8521 90.9447 15.0842C90.9569 15.3163 90.9569 15.552 90.9569 15.7805C90.9569 16.5777 90.9333 17.3432 90.8862 18.0769C90.87 18.3701 90.6747 18.5899 90.3004 18.7365C89.9036 18.887 89.4822 18.9616 89.058 18.9564C88.6038 18.9624 88.1533 18.8751 87.734 18.6999C87.3272 18.5289 87.1408 18.2561 87.1749 17.8815Z" fill="white"/>
<path d="M104.558 17.2895C104.565 17.6225 104.473 17.9501 104.293 18.23C104.116 18.4988 103.769 18.6331 103.254 18.6331C102.473 18.6331 101.684 18.6413 100.889 18.6576C100.095 18.6738 99.2992 18.6983 98.5034 18.7308C98.047 18.7642 97.8189 19.0085 97.8189 19.4638V19.8058C97.8231 19.9451 97.8377 20.084 97.8627 20.2211C97.8677 20.3287 97.9069 20.4318 97.9747 20.5154C98.0424 20.5989 98.1351 20.6585 98.2391 20.6853C98.4693 20.7521 98.7063 20.7931 98.9455 20.8074C99.166 20.8074 99.3877 20.8074 99.6081 20.8196C99.8286 20.8318 100.05 20.8318 100.272 20.8318C100.978 20.8318 101.682 20.8156 102.382 20.783C103.082 20.7504 103.777 20.7015 104.469 20.6364C104.689 20.6209 104.87 20.7472 105.011 21.0151C105.148 21.2748 105.22 21.5641 105.221 21.8579C105.225 22.051 105.187 22.2427 105.11 22.4198C105.076 22.4981 105.024 22.5676 104.959 22.6226C104.894 22.6777 104.817 22.717 104.735 22.7374C103.832 22.9725 102.917 23.16 101.994 23.2993C101.022 23.447 100.04 23.5205 99.0564 23.5192C98.4961 23.5192 97.9399 23.4947 97.3877 23.4459C96.8278 23.3957 96.2711 23.3141 95.7202 23.2016C95.3663 23.1382 95.0479 22.947 94.825 22.6641C94.6122 22.3896 94.4851 22.0581 94.4596 21.7113C94.4141 21.0599 94.3918 20.4165 94.3926 19.7813C94.3926 19.1136 94.4149 18.3644 94.4596 17.5338C94.4658 17.3651 94.5073 17.1997 94.5814 17.0482C94.6555 16.8967 94.7605 16.7625 94.8896 16.6543C95.1933 16.4262 95.5601 16.2982 95.9395 16.2878C96.7352 16.239 97.5968 16.2145 98.5241 16.2145C98.8928 16.2145 99.261 16.2186 99.6288 16.2268C99.9967 16.2349 100.358 16.239 100.712 16.239C100.876 16.2512 101.039 16.2082 101.176 16.1168C101.279 16.035 101.323 15.8811 101.308 15.6526C101.294 15.4898 101.287 15.331 101.287 15.1763C101.288 15.0326 101.273 14.8892 101.243 14.7487C101.239 14.6772 101.217 14.6078 101.178 14.5477C101.139 14.4876 101.085 14.439 101.021 14.4067C100.865 14.3495 100.7 14.3166 100.534 14.309C99.6057 14.2601 98.6557 14.2357 97.6837 14.2357C97.2562 14.2357 96.8311 14.2357 96.4243 14.2479C96.0174 14.2601 95.5997 14.2687 95.1867 14.2846C94.9517 14.3004 94.7702 14.1624 94.6459 13.8815C94.5182 13.5846 94.4543 13.2641 94.4584 12.9409C94.4544 12.6507 94.5078 12.3626 94.6155 12.0932C94.7178 11.8399 94.8802 11.7055 95.1027 11.6901C96.5856 11.54 98.0751 11.4667 99.5655 11.4702C100.125 11.4702 100.689 11.4824 101.256 11.5068C101.824 11.5313 102.387 11.5598 102.946 11.5923C103.416 11.6257 103.741 11.7642 103.92 12.0077C104.116 12.3015 104.244 12.6353 104.295 12.9849C104.339 13.2133 104.375 13.4893 104.406 13.8155C104.436 14.1416 104.464 14.4995 104.494 14.8904C104.523 15.2813 104.541 15.6807 104.55 16.0875C104.558 16.4943 104.558 16.8986 104.558 17.2895ZM98.9236 28.0387C98.6581 28.0387 98.4551 27.884 98.3146 27.5746C98.1719 27.2517 98.1004 26.9017 98.1051 26.5485C98.101 26.2432 98.1573 25.9401 98.2708 25.6568C98.3812 25.3881 98.5542 25.2456 98.7896 25.2293C99.5107 25.1804 100.361 25.1478 101.341 25.1316C102.321 25.1153 103.305 25.1071 104.291 25.1071H106.192C106.796 25.1071 107.333 25.1234 107.804 25.156C108.088 25.1544 108.365 25.2396 108.6 25.4003C108.796 25.5536 108.942 25.7619 109.02 25.9988C109.115 26.291 109.167 26.5955 109.174 26.9027C109.189 27.2537 109.196 27.6324 109.196 28.0387V29.3458C109.196 29.744 109.189 30.1308 109.174 30.5062C109.16 30.88 109.142 31.2635 109.12 31.6544C109.098 32.0453 109.064 32.4606 109.02 32.9004C108.991 33.1447 108.818 33.332 108.501 33.4623C108.167 33.5952 107.81 33.6616 107.451 33.6577C107.221 33.6583 106.991 33.6337 106.766 33.5844C106.558 33.5404 106.357 33.4663 106.17 33.3645C106.008 33.2796 105.868 33.1584 105.76 33.0103C105.663 32.8629 105.627 32.6829 105.662 32.5095C105.764 31.9077 105.837 31.3417 105.882 30.8116C105.927 30.2814 105.956 29.6503 105.971 28.9182C105.977 28.7136 105.962 28.509 105.926 28.3075C105.897 28.1768 105.757 28.1035 105.507 28.0876C104.196 28.0388 102.914 28.0143 101.662 28.0143H100.305C99.8574 28.0143 99.397 28.0225 98.9236 28.0387ZM106.11 23.2016C106.17 22.5175 106.214 21.7724 106.243 20.9662C106.271 20.16 106.286 19.3172 106.288 18.4377C106.288 17.3628 106.269 16.2675 106.232 15.1518C106.194 14.0362 106.154 12.9653 106.11 11.9393C106.094 11.7841 106.133 11.6283 106.221 11.4995C106.311 11.3671 106.428 11.2548 106.563 11.1697C106.717 11.0745 106.884 11.0044 107.06 10.962C107.248 10.9137 107.441 10.889 107.635 10.8888C107.947 10.8858 108.255 10.9614 108.53 11.1086C108.663 11.179 108.777 11.2799 108.863 11.403C108.95 11.5262 109.006 11.6681 109.027 11.8171C109.129 12.4368 109.214 13.0801 109.282 13.7471C109.349 14.414 109.412 15.1062 109.469 15.8237C109.779 15.8078 110.078 15.8029 110.386 15.8114C110.695 15.82 110.986 15.8322 111.28 15.8481C111.546 15.8636 111.745 16.0224 111.877 16.3245C112.014 16.6447 112.081 16.9901 112.076 17.3383C112.076 17.5518 112.054 17.7646 112.01 17.9735C111.97 18.173 111.903 18.3661 111.811 18.5476C111.731 18.708 111.618 18.8495 111.479 18.9629C111.348 19.0687 111.184 19.1249 111.016 19.1217H110.308C110.088 19.1217 109.866 19.1303 109.646 19.1462C109.66 19.423 109.668 19.6958 109.668 19.9646V20.7586C109.668 21.7358 109.646 22.6152 109.602 23.397C109.587 23.7056 109.402 23.9377 109.049 24.0933C108.679 24.2515 108.28 24.3305 107.878 24.3254C107.442 24.3333 107.011 24.237 106.619 24.0444C106.246 23.8579 106.075 23.577 106.104 23.2016H106.11Z" fill="white"/>
<path d="M44.835 4.39744C46.0458 4.39744 47.0274 3.41304 47.0274 2.19872C47.0274 0.984399 46.0458 0 44.835 0C43.6242 0 42.6426 0.984399 42.6426 2.19872C42.6426 3.41304 43.6242 4.39744 44.835 4.39744Z" fill="white"/>
<path d="M84.0552 4.39744C85.2661 4.39744 86.2476 3.41304 86.2476 2.19872C86.2476 0.984399 85.2661 0 84.0552 0C82.8444 0 81.8628 0.984399 81.8628 2.19872C81.8628 3.41304 82.8444 4.39744 84.0552 4.39744Z" fill="white"/>
<path d="M62.6182 8.7949C63.829 8.7949 64.8106 7.8105 64.8106 6.59618C64.8106 5.38186 63.829 4.39746 62.6182 4.39746C61.4074 4.39746 60.4258 5.38186 60.4258 6.59618C60.4258 7.8105 61.4074 8.7949 62.6182 8.7949Z" fill="white"/>
<path d="M112.301 6.41887C112.357 5.3073 112.505 4.28367 113.22 3.44083C113.816 2.73968 114.56 2.39277 115.476 2.64929C116.352 2.89359 116.834 3.56176 116.898 4.42659C116.961 5.29142 117.097 5.67497 118.066 5.15339C118.854 4.72952 119.736 4.82236 120.407 5.51984C121.101 6.24053 121.137 7.09559 120.759 7.98973C120.346 8.95961 119.581 9.59113 118.701 10.1029C117.347 10.8908 115.854 11.2377 114.325 11.4723C113.867 11.5431 113.532 11.493 113.332 10.9653C112.77 9.47387 112.328 7.96775 112.301 6.41887Z" fill="white"/>
</g>
<defs>
<clipPath id="clip0_201_1356">
<rect width="121" height="44" fill="white"/>
</clipPath>
</defs>
</svg>
