<svg width="24" height="24" viewBox="0 0 24 24" fill="none" xmlns="http://www.w3.org/2000/svg">
<path d="M20.9567 22.0214C21.0295 22.0975 21.1167 22.1583 21.2133 22.2002C21.3098 22.2422 21.4138 22.2644 21.5191 22.2656C21.6243 22.2667 21.7288 22.2469 21.8263 22.2071C21.9238 22.1674 22.0123 22.1086 22.0868 22.0341C22.1612 21.9597 22.22 21.8711 22.2598 21.7736C22.2995 21.6762 22.3194 21.5717 22.3182 21.4664C22.317 21.3612 22.2948 21.2572 22.2529 21.1606C22.2109 21.064 22.1501 20.9768 22.074 20.9041L16.2839 16.1667L16.0172 15.9351C15.8663 15.8055 15.6721 15.7375 15.4733 15.7448C15.2745 15.7521 15.0858 15.8341 14.9448 15.9744C13.7123 17.1978 12.0746 17.9275 10.3408 18.0259C8.60701 18.1242 6.89722 17.5844 5.53428 16.5083C4.17133 15.4321 3.24957 13.8942 2.94305 12.1849C2.63652 10.4756 2.96645 8.71327 3.87053 7.23061C4.77461 5.74794 6.19027 4.64761 7.85018 4.13739C9.5101 3.62716 11.2994 3.74236 12.8802 4.46123C14.461 5.1801 15.7238 6.45288 16.4303 8.03923C17.1368 9.62559 17.238 11.4157 16.7148 13.0716C16.6837 13.1705 16.6723 13.2746 16.6814 13.3778C16.6904 13.4811 16.7198 13.5816 16.7677 13.6736C16.8156 13.7655 16.8811 13.8472 16.9605 13.9138C17.04 13.9804 17.1318 14.0307 17.2307 14.0619C17.3296 14.093 17.4336 14.1044 17.5369 14.0953C17.6402 14.0863 17.7407 14.057 17.8327 14.0091C17.9246 13.9612 18.0062 13.8956 18.0729 13.8162C18.1395 13.7367 18.1898 13.6449 18.221 13.546C18.8499 11.5534 18.7395 9.40082 17.9099 7.48302C17.0803 5.56522 15.5871 4.01075 13.7043 3.10469C11.8214 2.19862 9.67499 2.00168 7.65867 2.54998C5.64235 3.09829 3.89126 4.35508 2.72653 6.0899C1.56179 7.82471 1.06148 9.92126 1.31733 11.9951C1.57319 14.0689 2.56806 15.981 4.11952 17.3807C5.67097 18.7804 7.67501 19.5739 9.76414 19.6157C11.8533 19.6575 13.8874 18.9448 15.4936 17.6083L20.9567 22.0214Z" fill="white" stroke="white" stroke-width="0.3"/>
</svg>
