<svg width="80" height="33" viewBox="0 0 80 33" fill="none" xmlns="http://www.w3.org/2000/svg">
<g clip-path="url(#clip0_322_6245)">
<path d="M1.81938 15.6944C3.45969 15.7692 5.14846 15.8328 6.88569 15.8851C8.62293 15.9374 10.349 15.9636 12.0638 15.9636H13.9763C14.5944 15.9636 15.2095 15.9487 15.8216 15.9187C15.9407 15.9054 16.0611 15.9269 16.1683 15.9806C16.2754 16.0343 16.3648 16.118 16.4256 16.2216C16.5604 16.4405 16.6302 16.6934 16.6269 16.9506C16.6264 17.2054 16.5526 17.4547 16.4144 17.6684C16.3425 17.78 16.2452 17.8728 16.1305 17.9391C16.0157 18.0055 15.8868 18.0434 15.7545 18.0498C14.0098 18.2143 12.198 18.3414 10.3192 18.4311C8.44025 18.5209 6.57627 18.5657 4.7272 18.5657C4.25001 18.5657 3.77284 18.562 3.29566 18.5545C2.81848 18.547 2.34129 18.5358 1.86411 18.5209C1.58004 18.5209 1.375 18.3713 1.249 18.0722C1.11928 17.7596 1.05458 17.4238 1.05887 17.0852C1.05378 16.7502 1.11853 16.4179 1.249 16.1094C1.37575 15.8178 1.56588 15.6795 1.81938 15.6944ZM5.71138 10.4005C5.69722 10.55 5.68603 10.7706 5.67783 11.0622C5.67 11.3538 5.66664 11.5748 5.66664 11.724C5.65835 11.8207 5.68397 11.9174 5.73909 11.9972C5.79421 12.0771 5.87538 12.1351 5.96861 12.1614C6.18912 12.2316 6.41949 12.2657 6.65083 12.2623C7.03854 12.2773 7.41879 12.2885 7.79159 12.296C8.16438 12.3035 8.54464 12.3072 8.93235 12.3072C9.91653 12.3072 10.9082 12.2848 11.9073 12.2399C12.9064 12.195 13.9129 12.1203 14.9269 12.0156C14.9807 12.0088 15.0353 12.0133 15.0873 12.0287C15.1392 12.0442 15.1875 12.0703 15.2289 12.1053C15.3262 12.1809 15.4063 12.2765 15.4638 12.3857C15.5279 12.5102 15.5767 12.642 15.6091 12.7783C15.6459 12.925 15.6647 13.0756 15.6651 13.2269C15.6676 13.4244 15.6255 13.62 15.542 13.7989C15.5078 13.8786 15.4539 13.9482 15.3855 14.0012C15.317 14.0542 15.2361 14.0888 15.1506 14.1018C13.8085 14.3403 12.5261 14.5272 11.3033 14.6626C10.0926 14.7965 8.87546 14.8639 7.65738 14.8644C6.21191 14.8634 4.76867 14.7509 3.34039 14.528C2.98251 14.4681 2.73273 14.3223 2.59107 14.0905C2.44787 13.8555 2.35991 13.5908 2.33384 13.3166C2.3193 13.1518 2.31147 12.988 2.31147 12.8231V12.3072C2.31147 11.6342 2.33757 10.9314 2.38976 10.1986C2.44195 9.46581 2.52024 8.79285 2.62462 8.17971C2.72826 7.52095 3.15325 7.177 3.89959 7.14783C4.67426 7.11718 5.4534 7.09474 6.23702 7.08054C7.02064 7.06633 7.8147 7.05885 8.6192 7.05811C9.63246 7.05811 10.6316 7.07306 11.6165 7.10297C12.6014 7.13288 13.5632 7.18522 14.5019 7.25999C14.6211 7.27093 14.7357 7.31153 14.8354 7.37812C14.935 7.44471 15.0164 7.53519 15.0723 7.64134C15.2011 7.87452 15.2667 8.1375 15.2624 8.40403C15.2657 8.68966 15.1965 8.97144 15.0611 9.22279C15.0082 9.33587 14.9218 9.42988 14.8138 9.49208C14.7058 9.55428 14.5813 9.58165 14.4572 9.57049C14.024 9.55628 13.5841 9.54507 13.1375 9.53684C12.6909 9.52862 12.2435 9.52488 11.7954 9.52563C10.8411 9.52563 9.89789 9.54058 8.9659 9.57049C8.03391 9.6004 7.13547 9.65274 6.27058 9.72751C6.06144 9.7578 5.92387 9.82509 5.85677 9.9294C5.77655 10.0747 5.72706 10.2351 5.71138 10.4005ZM14.1888 23.4335C14.2186 23.9569 14.1217 24.3195 13.898 24.5214C13.6743 24.7233 13.3612 24.8243 12.9586 24.8243H11.4152C10.9231 24.8243 10.4384 24.828 9.96127 24.8355L8.51854 24.8579C8.03465 24.8654 7.52392 24.8766 6.98635 24.8916C6.92707 24.8916 6.87451 24.9364 6.84095 25.0261C6.80256 25.1224 6.78356 25.2253 6.78503 25.329C6.78342 25.4317 6.79854 25.534 6.82977 25.6318C6.86034 25.7215 6.90508 25.7664 6.96398 25.7664C7.35206 25.781 7.7312 25.7922 8.10474 25.8C8.47828 25.8079 8.84959 25.8113 9.22313 25.8113C10.0731 25.8113 10.9082 25.7963 11.7283 25.7664C12.5485 25.7365 13.391 25.6916 14.2559 25.6318C14.2993 25.6244 14.3438 25.6266 14.3863 25.6382C14.4288 25.6499 14.4683 25.6706 14.5019 25.6991C14.5809 25.7654 14.6423 25.8501 14.6809 25.9459C14.728 26.0584 14.7654 26.1747 14.7927 26.2936C14.8215 26.4148 14.8365 26.539 14.8375 26.6637C14.8407 26.8252 14.8103 26.9857 14.748 27.1348C14.7258 27.1942 14.6899 27.2475 14.6433 27.2904C14.5966 27.3333 14.5405 27.3645 14.4796 27.3815C13.4558 27.5927 12.4218 27.7499 11.3816 27.8526C10.3303 27.9573 9.26786 28.0096 8.19421 28.0096C7.55225 28.0096 6.92223 27.9909 6.30413 27.9535C5.68603 27.9161 5.07091 27.8526 4.45878 27.7628C4.31467 27.7429 4.17639 27.6927 4.05303 27.6153C3.92967 27.538 3.82401 27.4354 3.74301 27.3142C3.56287 27.0557 3.45477 26.7537 3.42986 26.4394C3.4142 26.2296 3.40414 26.0165 3.39631 25.8C3.38848 25.5836 3.38513 25.3705 3.38513 25.1607C3.38513 24.951 3.38513 24.7424 3.39631 24.5326C3.40749 24.3229 3.4142 24.1143 3.42986 23.9045C3.46006 23.5602 3.57861 23.3022 3.78775 23.1306C4.03271 22.9462 4.33139 22.8476 4.63773 22.8502C5.2342 22.8196 5.7934 22.8046 6.31531 22.8054H10.7441C10.7889 22.8054 10.8224 22.7639 10.8448 22.682C10.8679 22.5942 10.8792 22.5036 10.8783 22.4128C10.8792 22.3201 10.8601 22.2283 10.8224 22.1436C10.8108 22.1081 10.7883 22.0771 10.7583 22.055C10.7282 22.0329 10.692 22.0207 10.6547 22.0203C9.98363 21.9903 9.34988 21.9642 8.7534 21.9417C8.15693 21.9193 7.57536 21.9081 7.00871 21.9081C6.53079 21.9081 6.05361 21.9156 5.57717 21.9305C5.10074 21.9455 4.6161 21.9679 4.12326 21.9978C3.92866 22.0124 3.78775 21.9002 3.68709 21.6613C3.58661 21.4042 3.53722 21.1299 3.5417 20.8538C3.53773 20.6053 3.57944 20.3581 3.66472 20.1248C3.74637 19.9083 3.87722 19.7883 4.05616 19.7771C5.50187 19.6425 6.92595 19.5752 8.32842 19.5752C9.10309 19.5752 9.8636 19.5901 10.6099 19.62C11.3563 19.6499 12.1093 19.6873 12.8691 19.7322C13.2561 19.7628 13.5207 19.8787 13.6631 20.0799C13.8221 20.3275 13.9252 20.6069 13.9651 20.8987C14.024 21.2882 14.0687 21.6733 14.0993 22.0539C14.1299 22.4345 14.1597 22.8944 14.1888 23.4335Z" fill="white"/>
<path d="M27.2186 16.8543C27.2254 17.16 27.1409 17.4608 26.9759 17.7179C26.8137 17.9647 26.495 18.0881 26.0219 18.0881C25.3046 18.0881 24.581 18.0956 23.8511 18.1105C23.1212 18.1255 22.3909 18.1479 21.6602 18.1778C21.2411 18.2085 21.0316 18.4328 21.0316 18.8508V19.1648C21.0355 19.2928 21.0489 19.4202 21.0719 19.5462C21.0764 19.6448 21.1122 19.7394 21.1742 19.8161C21.2362 19.8928 21.3211 19.9475 21.4164 19.9724C21.6282 20.0337 21.8461 20.0713 22.0661 20.0845C22.2686 20.0845 22.4721 20.0845 22.6746 20.0957C22.877 20.107 23.0805 20.107 23.283 20.107C23.9331 20.107 24.5792 20.092 25.2211 20.0621C25.8631 20.0322 26.5021 19.9873 27.1381 19.9275C27.3401 19.9133 27.5056 20.0292 27.6346 20.2752C27.7613 20.5134 27.8277 20.7791 27.8281 21.0491C27.8312 21.2264 27.7965 21.4023 27.7263 21.565C27.695 21.637 27.6475 21.7008 27.5876 21.7514C27.5276 21.802 27.4568 21.838 27.3807 21.8566C26.5519 22.0726 25.7123 22.2448 24.8655 22.3726C23.9723 22.5083 23.0702 22.5757 22.1668 22.5745C21.6538 22.5745 21.1435 22.552 20.6357 22.5072C20.1212 22.4611 19.6097 22.3862 19.1035 22.2829C18.779 22.2243 18.487 22.0488 18.2826 21.7894C18.0868 21.5375 17.9701 21.233 17.9471 20.9145C17.9069 20.3163 17.8867 19.7256 17.8867 19.1424C17.8867 18.5292 17.9069 17.8413 17.9471 17.0786C17.9528 16.9237 17.991 16.7717 18.0592 16.6325C18.1274 16.4934 18.2241 16.3702 18.343 16.2711C18.622 16.0617 18.9588 15.9441 19.3071 15.9346C20.0378 15.8897 20.8288 15.8673 21.6803 15.8673C22.0158 15.8673 22.3569 15.8673 22.6947 15.8785C23.0324 15.8897 23.3657 15.8897 23.6889 15.8897C23.8394 15.9008 23.9894 15.8613 24.115 15.7776C24.209 15.7024 24.2504 15.5611 24.2369 15.3514C24.2235 15.2018 24.2168 15.056 24.2168 14.9139C24.2175 14.782 24.2036 14.6503 24.1754 14.5214C24.1727 14.4557 24.1524 14.392 24.1168 14.3367C24.0812 14.2815 24.0316 14.2369 23.973 14.2073C23.8293 14.1548 23.6784 14.1246 23.5257 14.1176C22.6734 14.0727 21.8011 14.0503 20.9086 14.0503C20.5157 14.0503 20.1302 14.054 19.7522 14.0615C19.3742 14.069 18.9954 14.0802 18.6159 14.0952C18.3989 14.1094 18.2334 13.986 18.1193 13.725C18.0017 13.4526 17.9427 13.1583 17.946 12.8614C17.9428 12.5966 17.9911 12.3338 18.088 12.0875C18.1835 11.855 18.3326 11.7316 18.5354 11.7174C19.897 11.5797 21.2647 11.5123 22.6332 11.5155C23.1469 11.5155 23.664 11.5267 24.1844 11.5491C24.7048 11.5716 25.2223 11.5977 25.7367 11.6277C26.1699 11.6583 26.4681 11.7854 26.6314 12.009C26.8115 12.2787 26.9296 12.5852 26.977 12.9063C27.0173 13.116 27.0508 13.3695 27.0777 13.669C27.1045 13.9684 27.1325 14.2971 27.1593 14.656C27.1861 15.0149 27.2029 15.3817 27.2096 15.7551C27.2163 16.1286 27.2186 16.4954 27.2186 16.8543ZM22.046 26.7244C21.8022 26.7244 21.6158 26.5823 21.4868 26.2982C21.3554 26.0018 21.2894 25.6804 21.2933 25.356C21.2899 25.0756 21.342 24.7974 21.4466 24.5373C21.5472 24.2905 21.706 24.1597 21.923 24.1447C22.5851 24.0998 23.3661 24.0699 24.266 24.055C25.166 24.04 26.0689 24.0326 26.9748 24.0326H28.7195C29.2734 24.0326 29.767 24.0475 30.2002 24.0774C30.4607 24.0759 30.7155 24.1542 30.9305 24.3017C31.1107 24.4425 31.245 24.6338 31.3164 24.8513C31.4032 25.1197 31.451 25.3992 31.4584 25.6813C31.4707 26.0032 31.4785 26.3543 31.4785 26.7244V27.9245C31.4785 28.2901 31.4707 28.6457 31.4584 28.99C31.4461 29.3344 31.4271 29.6854 31.407 30.0443C31.3868 30.4032 31.3566 30.7846 31.3164 31.1884C31.2888 31.4127 31.1296 31.5847 30.8388 31.7043C30.5326 31.8265 30.2055 31.8875 29.8759 31.8838C29.6642 31.8843 29.4531 31.8617 29.2462 31.8165C29.0552 31.7758 28.871 31.7078 28.6993 31.6146C28.5504 31.5372 28.4217 31.4258 28.3236 31.2893C28.2337 31.1542 28.2007 30.9889 28.2318 30.8295C28.3273 30.2769 28.3951 29.7572 28.4354 29.2704C28.4757 28.7837 28.5025 28.2042 28.5159 27.5319C28.5213 27.3441 28.5078 27.1563 28.4757 26.9711C28.4488 26.8508 28.3202 26.7835 28.0898 26.7693C26.8864 26.7244 25.7099 26.702 24.5602 26.702H23.3042C22.8949 26.702 22.4732 26.7098 22.0404 26.7244H22.046ZM28.6389 22.2829C28.6926 21.6548 28.7333 20.9706 28.7608 20.2303C28.7884 19.4901 28.8019 18.7162 28.8011 17.9086C28.8011 16.9216 28.7843 15.9159 28.7508 14.8915C28.7172 13.8671 28.6799 12.8838 28.6389 11.9417C28.6236 11.7992 28.6597 11.656 28.7407 11.5379C28.8233 11.4161 28.9303 11.313 29.055 11.2351C29.1961 11.1477 29.3501 11.0833 29.5113 11.0444C29.6838 11 29.8611 10.9774 30.0392 10.9771C30.3257 10.9744 30.6083 11.0438 30.8612 11.179C30.983 11.2436 31.0879 11.3363 31.1672 11.4493C31.2465 11.5624 31.298 11.6927 31.3175 11.8295C31.4114 12.3986 31.489 12.9893 31.5501 13.6017C31.6112 14.2141 31.6687 14.8496 31.7223 15.5084C32.0064 15.4938 32.2815 15.4893 32.5645 15.4972C32.8474 15.505 33.1159 15.5162 33.3865 15.5308C33.6303 15.545 33.813 15.6908 33.9345 15.9682C34.0597 16.2623 34.1218 16.5795 34.1168 16.8992C34.1167 17.0951 34.0964 17.2906 34.0564 17.4824C34.0193 17.6656 33.9576 17.8429 33.873 18.0096C33.7999 18.157 33.6962 18.287 33.5688 18.3909C33.4481 18.4879 33.2974 18.5395 33.1427 18.5367H32.494C32.2905 18.5367 32.0881 18.5446 31.8856 18.5591C31.8979 18.8137 31.9058 19.0639 31.9058 19.3106V20.0397C31.9058 20.9369 31.8853 21.7445 31.8442 22.4623C31.8308 22.7457 31.662 22.9588 31.3376 23.1016C30.9977 23.2469 30.6312 23.3195 30.2617 23.3147C29.8613 23.3218 29.465 23.2334 29.1053 23.0568C28.7638 22.8855 28.6065 22.6276 28.6333 22.2829H28.6389Z" fill="white"/>
<path d="M40.4861 14.5491C40.4838 14.6516 40.5123 14.7525 40.568 14.8385C40.6236 14.9245 40.7038 14.9917 40.7981 15.0314C41.0082 15.1176 41.2291 15.1742 41.4546 15.1996C41.9713 15.2445 42.5093 15.2669 43.0685 15.2669C43.7142 15.2669 44.3706 15.2445 45.038 15.1996C45.7053 15.1548 46.339 15.0949 46.9392 15.0202C47.154 15.006 47.3333 15.1406 47.4772 15.4239C47.6188 15.7017 47.6924 16.0093 47.6919 16.3212C47.6938 16.5139 47.6557 16.7049 47.5801 16.882C47.5486 16.9599 47.499 17.0291 47.4354 17.0837C47.3717 17.1384 47.2959 17.1769 47.2143 17.1961C46.3008 17.4371 45.3739 17.6243 44.4385 17.7569C43.4975 17.891 42.5482 17.9585 41.5978 17.9588C41.052 17.9588 40.5141 17.9363 39.9839 17.8915C39.4618 17.8482 38.9437 17.7658 38.4339 17.6447C38.0869 17.57 37.7713 17.3898 37.5302 17.1288C37.3067 16.8891 37.1704 16.5809 37.1432 16.2539C37.1291 16.0154 37.1182 15.7799 37.1108 15.5473C37.1033 15.3148 37.0996 15.0792 37.0996 14.8407C37.1026 13.7709 37.1664 12.7022 37.2909 11.6397C37.4124 10.5704 37.5809 9.45255 37.7964 8.28609C37.8151 8.1516 37.8654 8.0235 37.9432 7.91235C38.021 7.80119 38.124 7.71017 38.2437 7.64678C38.5038 7.51607 38.7917 7.45064 39.0825 7.4561C39.3004 7.4562 39.5174 7.48256 39.729 7.53462C39.9287 7.5821 40.1232 7.64974 40.3094 7.7365C40.4637 7.80564 40.6028 7.90475 40.7187 8.02812C40.7628 8.06944 40.7972 8.12003 40.8194 8.17628C40.8417 8.23252 40.8512 8.293 40.8473 8.35338C40.7184 9.22001 40.6181 10.0388 40.5465 10.8097C40.4749 11.5806 40.4376 12.3695 40.4347 13.1763C40.4347 13.4006 40.438 13.6249 40.4447 13.8492C40.4615 14.078 40.4716 14.3102 40.4861 14.5491ZM51.2462 23.0284C51.2745 23.5817 51.1813 23.9668 50.9666 24.1836C50.7518 24.4005 50.4506 24.5089 50.0629 24.5089H48.5989C48.1404 24.5089 47.693 24.5126 47.2568 24.5201C46.8207 24.5276 46.3793 24.5388 45.9327 24.5538C45.4853 24.5687 45.0048 24.5837 44.4911 24.5986C44.434 24.5986 44.3871 24.6469 44.3513 24.7444C44.3148 24.8451 44.2966 24.9514 44.2976 25.0585C44.297 25.1647 44.3113 25.2704 44.3401 25.3725C44.3692 25.469 44.4117 25.5183 44.4698 25.5183C44.7561 25.5183 45.0324 25.5221 45.2985 25.5296C45.5636 25.5363 45.8398 25.5408 46.1262 25.5408C46.9873 25.5408 47.8448 25.5258 48.6985 25.4959C49.5522 25.466 50.4238 25.4211 51.3133 25.3613C51.484 25.3471 51.6201 25.463 51.7215 25.709C51.8219 25.9546 51.8732 26.2175 51.8725 26.4829C51.8769 26.6515 51.8476 26.8193 51.7863 26.9764C51.7659 27.0352 51.7318 27.0882 51.6869 27.1311C51.642 27.174 51.5875 27.2056 51.528 27.2232C49.5653 27.6715 47.5586 27.8972 45.5457 27.8961C44.9574 27.8961 44.3729 27.8774 43.7921 27.8401C43.2113 27.8027 42.6338 27.7391 42.0597 27.6494C41.917 27.6195 41.7821 27.5602 41.6635 27.4753C41.5449 27.3903 41.4452 27.2815 41.3707 27.1559C41.1958 26.8792 41.0924 26.5631 41.0699 26.2362C41.0554 26.0264 41.0442 25.8167 41.0375 25.6081C41.0308 25.3995 41.0263 25.1886 41.0263 24.98C41.0263 24.7714 41.0263 24.5571 41.0375 24.3407C41.0487 24.1242 41.0554 23.892 41.0699 23.6341C41.0785 23.3341 41.2019 23.049 41.4144 22.8377C41.6422 22.6394 41.9305 22.5247 42.2319 22.5125C42.8776 22.4818 43.4871 22.4631 44.0605 22.4564C44.6338 22.4496 45.215 22.4459 45.8041 22.4452C46.1344 22.4452 46.4784 22.4489 46.8363 22.4564C47.1942 22.4639 47.5603 22.4676 47.9346 22.4676C47.9771 22.4676 48.0095 22.4227 48.0308 22.333C48.0538 22.2338 48.0647 22.1321 48.0632 22.0302C48.0641 21.9231 48.046 21.8168 48.0095 21.7161C47.9737 21.6185 47.9201 21.5703 47.8485 21.5703C47.2311 21.5254 46.6499 21.4918 46.1049 21.4694C45.5599 21.4469 45.0148 21.4357 44.4698 21.4357C44.0389 21.4357 43.6012 21.4432 43.1568 21.4582C42.7124 21.4731 42.239 21.4955 41.7365 21.5254C41.5497 21.5557 41.4099 21.4391 41.3171 21.1778C41.2221 20.9076 41.1748 20.623 41.1773 20.3366C41.1738 20.0738 41.2139 19.8123 41.2958 19.5626C41.3741 19.3305 41.5005 19.2071 41.6716 19.1925C43.0016 19.0581 44.3376 18.9908 45.6743 18.9906C46.3774 18.9906 47.0857 19.0056 47.7993 19.0355C48.5128 19.0654 49.2409 19.1028 49.9835 19.1477C50.3559 19.1779 50.6109 19.2968 50.7474 19.5066C50.9033 19.7749 51.0019 20.0728 51.037 20.3814C51.0952 20.7852 51.1377 21.1856 51.1667 21.5815C51.1958 21.9775 51.2171 22.4597 51.2462 23.0284ZM48.212 17.398C48.2686 16.8297 48.3115 16.224 48.3406 15.581C48.3696 14.9379 48.3842 14.265 48.3842 13.5621C48.3842 12.7097 48.3663 11.8423 48.3305 10.96C48.2947 10.0777 48.2552 9.18785 48.212 8.29057C48.1967 8.15947 48.231 8.02739 48.3081 7.92045C48.3969 7.79941 48.5116 7.69978 48.6437 7.62883C48.7946 7.54362 48.958 7.48304 49.1279 7.44937C49.3082 7.41201 49.4918 7.39322 49.6759 7.39329C49.9847 7.38869 50.2905 7.45386 50.5706 7.58397C50.6954 7.63938 50.8048 7.72457 50.8892 7.83209C50.9736 7.93961 51.0305 8.06621 51.0549 8.20085C51.1407 8.68014 51.2152 9.16243 51.2786 9.64771C51.342 10.133 51.4027 10.6228 51.4609 11.117C51.7908 11.1024 52.1241 11.0979 52.4618 11.1058C52.7996 11.1136 53.125 11.1249 53.4404 11.1394C53.6988 11.154 53.8934 11.2998 54.022 11.5769C54.1541 11.8691 54.2202 12.187 54.2155 12.5078C54.2155 12.704 54.1937 12.8996 54.1506 13.091C54.1117 13.2751 54.0465 13.4527 53.9571 13.6182C53.878 13.7668 53.7682 13.8968 53.635 13.9995C53.506 14.0963 53.3487 14.1475 53.1877 14.1453H52.4048C52.1543 14.1453 51.906 14.1532 51.6622 14.1678C51.6622 14.3921 51.6622 14.6164 51.6734 14.8295C51.6846 15.0426 51.6846 15.2591 51.6846 15.4688C51.6846 16.2008 51.6629 16.9037 51.6197 17.5774C51.6048 17.8466 51.4255 18.0485 51.0817 18.1831C50.7174 18.3213 50.3305 18.3897 49.941 18.385C49.524 18.3905 49.1103 18.3103 48.7253 18.1494C48.3518 17.9924 48.1806 17.7419 48.212 17.398Z" fill="white"/>
<path d="M64.1739 16.8543C64.1803 17.1601 64.0954 17.4609 63.9301 17.7179C63.7676 17.9647 63.4496 18.0881 62.9761 18.0881C62.2589 18.0881 61.5353 18.0955 60.8054 18.1105C60.0754 18.1255 59.3451 18.1479 58.6144 18.1778C58.1954 18.2085 57.9859 18.4328 57.9859 18.8508V19.1648C57.9897 19.2928 58.0032 19.4202 58.0262 19.5462C58.0307 19.6449 58.0667 19.7396 58.1289 19.8163C58.1911 19.8931 58.2762 19.9477 58.3717 19.9724C58.5831 20.0338 58.8007 20.0714 59.0204 20.0845C59.2228 20.0845 59.4264 20.0845 59.6288 20.0957C59.8312 20.107 60.0348 20.107 60.2383 20.107C60.887 20.107 61.5327 20.092 62.1754 20.0621C62.8181 20.0322 63.4571 19.9873 64.0923 19.9275C64.2944 19.9133 64.4603 20.0292 64.59 20.2752C64.7158 20.5137 64.7818 20.7793 64.7824 21.0491C64.7858 21.2264 64.7511 21.4024 64.6806 21.565C64.6494 21.637 64.6021 21.7007 64.5424 21.7513C64.4826 21.8019 64.412 21.8379 64.3361 21.8566C63.5069 22.0725 62.6669 22.2447 61.8197 22.3726C60.9269 22.5082 60.0252 22.5757 59.1222 22.5745C58.6077 22.5745 58.097 22.552 57.59 22.5072C57.0759 22.4611 56.5647 22.3862 56.0589 22.2829C55.734 22.2247 55.4415 22.0491 55.2369 21.7894C55.0415 21.5373 54.9248 21.2329 54.9014 20.9145C54.8596 20.3163 54.8391 19.7256 54.8399 19.1424C54.8399 18.5292 54.8604 17.8413 54.9014 17.0786C54.9071 16.9238 54.9452 16.7719 55.0132 16.6328C55.0812 16.4937 55.1776 16.3704 55.2962 16.2711C55.5751 16.0617 55.9119 15.9441 56.2602 15.9346C56.9909 15.8897 57.782 15.8673 58.6334 15.8673C58.9719 15.8673 59.3101 15.871 59.6478 15.8785C59.9856 15.886 60.317 15.8897 60.6421 15.8897C60.7926 15.901 60.9426 15.8615 61.0682 15.7776C61.1632 15.7024 61.2035 15.5611 61.1901 15.3514C61.1767 15.2018 61.17 15.056 61.17 14.9139C61.171 14.782 61.1575 14.6504 61.1297 14.5214C61.1265 14.4557 61.1059 14.392 61.0702 14.3368C61.0344 14.2817 60.9847 14.237 60.9261 14.2073C60.7824 14.1548 60.6316 14.1246 60.4788 14.1176C59.6266 14.0727 58.7542 14.0503 57.8618 14.0503C57.4692 14.0503 57.0789 14.0503 56.7053 14.0615C56.3318 14.0727 55.9482 14.0806 55.5691 14.0952C55.3532 14.1098 55.1866 13.983 55.0725 13.725C54.9552 13.4525 54.8965 13.1582 54.9003 12.8614C54.8967 12.5949 54.9457 12.3304 55.0445 12.083C55.1385 11.8505 55.2876 11.7271 55.4919 11.7129C56.8535 11.5751 58.2212 11.5078 59.5897 11.511C60.1034 11.511 60.6208 11.5222 61.142 11.5447C61.6632 11.5671 62.1802 11.5933 62.6932 11.6232C63.1256 11.6538 63.4239 11.7809 63.5879 12.0045C63.7676 12.2743 63.8853 12.5808 63.9324 12.9018C63.9726 13.1115 64.0062 13.365 64.0341 13.6645C64.0621 13.9639 64.0878 14.2926 64.1147 14.6515C64.1415 15.0104 64.1583 15.3772 64.1661 15.7507C64.1739 16.1241 64.1739 16.4954 64.1739 16.8543ZM59.0003 26.7244C58.7565 26.7244 58.5701 26.5823 58.4411 26.2982C58.31 26.0017 58.2444 25.6803 58.2487 25.356C58.245 25.0757 58.2967 24.7974 58.4008 24.5373C58.5022 24.2905 58.661 24.1597 58.8773 24.1447C59.5393 24.0998 60.3204 24.0699 61.2203 24.055C62.1202 24.04 63.0231 24.0326 63.929 24.0326H65.6737C66.2284 24.0326 66.722 24.0475 67.1545 24.0774C67.415 24.0759 67.6697 24.1542 67.8848 24.3017C68.0649 24.4425 68.1992 24.6338 68.2706 24.8513C68.3579 25.1196 68.4058 25.3992 68.4126 25.6813C68.4261 26.0036 68.4328 26.3513 68.4328 26.7244V27.9245C68.4328 28.2901 68.4261 28.6453 68.4126 28.99C68.3992 29.3332 68.3825 29.6854 68.3623 30.0443C68.3422 30.4032 68.3109 30.7846 68.2706 31.1884C68.2438 31.4127 68.085 31.5847 67.7942 31.7043C67.4875 31.8264 67.1601 31.8874 66.8301 31.8838C66.6188 31.8843 66.408 31.8617 66.2016 31.8165C66.0102 31.776 65.8256 31.708 65.6536 31.6146C65.505 31.5366 65.3765 31.4253 65.2778 31.2893C65.1883 31.154 65.1558 30.9887 65.1872 30.8295C65.2812 30.2769 65.3486 29.7572 65.3896 29.2704C65.4306 28.7837 65.4579 28.2042 65.4713 27.5319C65.4764 27.3441 65.4625 27.1562 65.4299 26.9711C65.4031 26.8511 65.2744 26.7838 65.0452 26.7693C63.841 26.7244 62.6641 26.702 61.5144 26.702H60.2685C59.8577 26.702 59.435 26.7094 59.0003 26.7244ZM65.5988 22.2829C65.6539 21.6548 65.6946 20.9706 65.7207 20.2303C65.7468 19.4901 65.7606 18.7162 65.7621 17.9086C65.7621 16.9216 65.7449 15.9159 65.7106 14.8915C65.6763 13.8671 65.639 12.8838 65.5988 11.9417C65.584 11.7993 65.6201 11.6562 65.7006 11.5379C65.7834 11.4164 65.8904 11.3133 66.0148 11.2351C66.1559 11.1477 66.3099 11.0833 66.4711 11.0444C66.6436 11 66.8209 10.9774 66.999 10.9771C67.2855 10.9744 67.5682 11.0438 67.821 11.179C67.9429 11.2436 68.0477 11.3363 68.127 11.4493C68.2063 11.5624 68.2578 11.6927 68.2773 11.8295C68.3713 12.3986 68.4492 12.9893 68.5111 13.6017C68.573 14.2141 68.6304 14.8496 68.6833 15.5084C68.9674 15.4938 69.2425 15.4893 69.5254 15.4972C69.8084 15.505 70.0757 15.5162 70.3463 15.5308C70.5901 15.545 70.7728 15.6908 70.8944 15.9682C71.0196 16.2623 71.0817 16.5795 71.0767 16.8992C71.0765 17.0951 71.0562 17.2906 71.0163 17.4824C70.9795 17.6656 70.9181 17.8429 70.834 18.0096C70.7601 18.1568 70.656 18.2867 70.5286 18.3909C70.4084 18.488 70.258 18.5396 70.1037 18.5367H69.4539C69.2514 18.5367 69.0479 18.5446 68.8455 18.5591C68.8589 18.8134 68.8656 19.0639 68.8656 19.3106V20.0397C68.8656 20.9369 68.8455 21.7445 68.8052 22.4623C68.791 22.7457 68.6218 22.9588 68.2975 23.1016C67.9579 23.2469 67.5918 23.3195 67.2227 23.3147C66.8223 23.322 66.4258 23.2336 66.0663 23.0568C65.724 22.8855 65.5663 22.6276 65.5932 22.2829H65.5988Z" fill="white"/>
<path d="M9.33537 5.01676C10.4472 5.01676 11.3485 4.11288 11.3485 2.99788C11.3485 1.88289 10.4472 0.979004 9.33537 0.979004C8.22356 0.979004 7.32227 1.88289 7.32227 2.99788C7.32227 4.11288 8.22356 5.01676 9.33537 5.01676Z" fill="white"/>
<path d="M45.3471 5.01676C46.4589 5.01676 47.3602 4.11288 47.3602 2.99788C47.3602 1.88289 46.4589 0.979004 45.3471 0.979004C44.2353 0.979004 43.334 1.88289 43.334 2.99788C43.334 4.11288 44.2353 5.01676 45.3471 5.01676Z" fill="white"/>
<path d="M25.6635 9.05485C26.7753 9.05485 27.6766 8.15097 27.6766 7.03597C27.6766 5.92097 26.7753 5.01709 25.6635 5.01709C24.5517 5.01709 23.6504 5.92097 23.6504 7.03597C23.6504 8.15097 24.5517 9.05485 25.6635 9.05485Z" fill="white"/>
<path d="M71.2832 6.87318C71.3346 5.85252 71.4711 4.91262 72.1276 4.13872C72.6745 3.49492 73.3578 3.17639 74.1989 3.41192C75.003 3.63624 75.4459 4.24976 75.504 5.04385C75.5622 5.83794 75.6874 6.19013 76.5766 5.7112C77.3002 5.32201 78.1099 5.40725 78.7261 6.04768C79.3636 6.70943 79.3971 7.49455 79.0493 8.31556C78.6702 9.20611 77.9678 9.78597 77.1604 10.2559C75.9167 10.9794 74.5456 11.2979 73.142 11.5132C72.7215 11.5783 72.4139 11.5323 72.2305 11.0478C71.7138 9.6783 71.3078 8.29537 71.2832 6.87318Z" fill="white"/>
</g>
<defs>
<clipPath id="clip0_322_6245">
<rect width="78.8837" height="32" fill="white" transform="translate(0.496094 0.5)"/>
</clipPath>
</defs>
</svg>
