<svg width="20" height="21" viewBox="0 0 20 21" fill="none" xmlns="http://www.w3.org/2000/svg">
<g clip-path="url(#clip0_355_1422)">
<path d="M16.25 3.625H3.75C3.40482 3.625 3.125 3.90482 3.125 4.25V16.75C3.125 17.0952 3.40482 17.375 3.75 17.375H16.25C16.5952 17.375 16.875 17.0952 16.875 16.75V4.25C16.875 3.90482 16.5952 3.625 16.25 3.625Z" stroke="black" stroke-opacity="0.4" stroke-linecap="round" stroke-linejoin="round"/>
<path d="M16.875 12.9999L13.5703 9.69524C13.5122 9.63619 13.4428 9.58929 13.3664 9.55728C13.2899 9.52527 13.2079 9.50879 13.125 9.50879C13.0421 9.50879 12.9601 9.52527 12.8836 9.55728C12.8072 9.58929 12.7378 9.63619 12.6797 9.69524L9.19531 13.1796C9.13716 13.2387 9.06784 13.2856 8.99139 13.3176C8.91494 13.3496 8.83288 13.3661 8.75 13.3661C8.66712 13.3661 8.58506 13.3496 8.50861 13.3176C8.43216 13.2856 8.36284 13.2387 8.30469 13.1796L6.69531 11.5702C6.63716 11.5112 6.56784 11.4643 6.49139 11.4323C6.41494 11.4003 6.33288 11.3838 6.25 11.3838C6.16712 11.3838 6.08506 11.4003 6.00861 11.4323C5.93216 11.4643 5.86284 11.5112 5.80469 11.5702L3.125 14.2499" stroke="black" stroke-opacity="0.4" stroke-linecap="round" stroke-linejoin="round"/>
<path d="M7.8125 8.625C8.33027 8.625 8.75 8.20527 8.75 7.6875C8.75 7.16973 8.33027 6.75 7.8125 6.75C7.29473 6.75 6.875 7.16973 6.875 7.6875C6.875 8.20527 7.29473 8.625 7.8125 8.625Z" fill="black" fill-opacity="0.4"/>
</g>
<defs>
<clipPath id="clip0_355_1422">
<rect width="20" height="20" fill="white" transform="translate(0 0.5)"/>
</clipPath>
</defs>
</svg>
