<svg width="24" height="24" viewBox="0 0 24 24" fill="none" xmlns="http://www.w3.org/2000/svg">
<g clip-path="url(#clip0_459_452)">
<path d="M12.0002 7C15.5153 7 18.6563 8.92822 20.2599 12C18.6566 15.072 15.5247 17 12.0002 17C8.47562 17 5.34375 15.072 3.74042 12C5.34406 8.92822 8.4851 7 12.0002 7ZM12.0002 10C13.104 10 14.0002 10.8961 14.0002 12C14.0002 13.1039 13.104 14 12.0002 14C10.8963 14 10.0002 13.1039 10.0002 12C10.0002 10.8961 10.8963 10 12.0002 10ZM15.0002 12C15.0002 10.3439 13.6563 9 12.0002 9C10.344 9 9.00018 10.3439 9.00018 12C9.00018 13.6561 10.344 15 12.0002 15C13.6563 15 15.0002 13.6561 15.0002 12Z" stroke="#333333" stroke-opacity="0.5"/>
</g>
<defs>
<clipPath id="clip0_459_452">
<rect width="24" height="24" fill="white"/>
</clipPath>
</defs>
</svg>
