<svg width="18" height="18" viewBox="0 0 18 18" fill="none" xmlns="http://www.w3.org/2000/svg">
<g clip-path="url(#clip0_459_447)">
<path d="M8.61932 4.14167L9 4.5887L9.38067 4.14167C10.1064 3.28947 11.2214 2.75 12.375 2.75C14.4089 2.75 16 4.34114 16 6.375C16 7.62826 15.4409 8.80449 14.3552 10.1319C13.2637 11.4663 11.6929 12.8917 9.75163 14.6521L9.75091 14.6528L8.99872 15.3375L8.24876 14.66L8.24769 14.659L8.24616 14.6576C6.30594 12.8944 4.73603 11.4678 3.64494 10.1329C2.55912 8.80452 2 7.62826 2 6.375C2 4.34114 3.59114 2.75 5.625 2.75C6.77861 2.75 7.89362 3.28947 8.61932 4.14167Z" stroke="#FF9999"/>
</g>
<defs>
<clipPath id="clip0_459_447">
<rect width="18" height="18" fill="white"/>
</clipPath>
</defs>
</svg>
