<svg width="109" height="65" viewBox="0 0 109 65" fill="none" xmlns="http://www.w3.org/2000/svg">
<path d="M14.1725 39.828H5.87853C5.02053 39.828 4.42253 40.426 4.42253 41.414C4.42253 42.402 5.02053 43 5.87853 43H26.4705C27.3285 43 27.9265 42.402 27.9265 41.414C27.9265 40.426 27.3285 39.828 26.4705 39.828H18.1765V37.878C18.1765 37.202 17.4745 36.656 16.1745 36.656C14.8745 36.656 14.1725 37.202 14.1725 37.878V39.828ZM8.03653 29.558C8.03653 33.484 11.2865 36.058 16.1745 36.058C21.0625 36.058 24.3125 33.484 24.3125 29.558C24.3125 25.632 21.0625 23.058 16.1745 23.058C11.2865 23.058 8.03653 25.632 8.03653 29.558ZM12.0405 29.558C12.0405 27.556 13.7045 26.204 16.1745 26.204C18.6445 26.204 20.3085 27.556 20.3085 29.558C20.3085 31.56 18.6705 32.912 16.1745 32.912C13.6785 32.912 12.0405 31.56 12.0405 29.558ZM44.5267 39.256C45.0207 39.256 45.2287 39.386 45.2287 39.776V40.348C45.2287 40.738 45.0467 40.868 44.5267 40.868H33.0087C32.2287 40.868 31.7867 41.414 31.7867 42.194C31.7867 42.948 32.1767 43.468 32.8787 43.52C32.6967 43.936 32.6187 44.404 32.6187 44.924C32.6187 47.16 34.2827 48.148 40.6267 48.148C44.0847 48.148 46.7367 47.862 48.5047 47.394C49.4667 47.134 49.6747 46.432 49.4927 45.652C49.3107 44.898 48.7387 44.508 47.7507 44.742C46.1387 45.106 43.5127 45.366 40.6267 45.366C37.0127 45.366 36.6227 45.054 36.6227 44.3C36.6227 44.04 36.6227 43.78 36.6747 43.52H46.0607C48.1407 43.52 49.1807 42.636 49.1807 40.92V39.152C49.1807 37.436 48.1407 36.552 46.0607 36.552H33.4247C32.6447 36.552 32.2027 37.098 32.2027 37.93C32.2027 38.762 32.6447 39.256 33.4247 39.256H44.5267ZM32.4107 23.63C32.1767 24.41 32.0727 25.632 32.0727 26.49C32.0727 29.74 33.9447 31.092 40.2627 31.092C43.2267 31.092 45.9307 30.78 48.0107 30.26C49.0767 30 49.3367 29.22 49.1027 28.362C48.8687 27.504 48.2707 27.062 47.1267 27.348C45.4107 27.79 42.8627 28.102 40.2627 28.102C36.8567 28.102 36.0247 27.608 36.0247 26.49C36.0247 25.736 36.1287 25.06 36.2587 24.384C36.4147 23.552 35.8687 22.902 34.6467 22.668C33.5027 22.46 32.6707 22.772 32.4107 23.63ZM51.1047 35.096C51.9107 35.096 52.3787 34.55 52.3787 33.718C52.3787 32.886 51.9107 32.34 51.1047 32.34H30.1487C29.3427 32.34 28.8747 32.886 28.8747 33.718C28.8747 34.55 29.3427 35.096 30.1487 35.096H51.1047Z" fill="white"/>
<path fill-rule="evenodd" clip-rule="evenodd" d="M103.632 10.8099C103.994 10.002 103.631 9.0541 102.824 8.69277C102.016 8.33143 101.068 8.69348 100.706 9.50143C99.9654 11.1582 98.7759 12.9815 97.2014 14.8182C96.6254 15.4901 96.7031 16.5018 97.3751 17.0779C98.047 17.6539 99.0587 17.5761 99.6348 16.9042C101.359 14.8924 102.737 12.8113 103.632 10.8099ZM99.4073 34.5517C99.4073 40.6994 96.843 46.2482 92.7257 50.1869L92.7569 50.1765L78.1734 65L77.2943 56.1808C65.567 55.9262 56.1387 46.34 56.1387 34.5517C56.1387 22.6034 65.8247 12.9174 77.773 12.9174C89.7213 12.9174 99.4073 22.6034 99.4073 34.5517ZM107.906 15.4674C108.531 16.0937 108.531 17.1084 107.905 17.7338C107.001 18.6357 105.884 19.3737 104.65 19.9106C103.838 20.2636 102.894 19.8918 102.541 19.0802C102.188 18.2686 102.559 17.3245 103.371 16.9715C104.276 16.5777 105.049 16.0558 105.64 15.4659C106.266 14.8405 107.281 14.8412 107.906 15.4674ZM70.4507 26.7818C70.4507 26.0895 70.8185 25.6568 71.4676 25.6568H83.7991C84.4481 25.6568 84.8159 26.0895 84.8159 26.7818C84.8159 27.4741 84.4481 27.8635 83.7991 27.8635H74.2151L74.0853 29.0967H83.4097C84.0587 29.0967 84.4265 29.5077 84.4265 30.1567C84.4265 30.8058 84.0587 31.2168 83.4097 31.2168H74.0204C74.1069 32.2769 74.756 32.5798 77.9362 32.5798C80.2078 32.5798 82.3929 32.4284 83.8424 32.1471C84.6212 31.9957 85.0972 32.3851 85.1837 33.0125C85.2702 33.6399 85.0972 34.1591 84.34 34.3105C82.7174 34.635 80.2294 34.8514 77.9362 34.8514C72.0517 34.8514 70.7969 33.8562 70.7969 31.0654C70.7969 29.9404 70.97 28.8154 71.2945 27.8635C70.7536 27.7986 70.4507 27.4092 70.4507 26.7818ZM77.9795 35.2192C79.0179 35.2192 79.667 35.5653 79.667 36.0845V36.5821H86.5899C87.3255 36.5821 87.7582 37.0365 87.7582 37.7504C87.7582 38.4643 87.3255 38.9186 86.5899 38.9186H69.369C68.6335 38.9186 68.2008 38.4643 68.2008 37.7504C68.2008 37.0365 68.6335 36.5821 69.369 36.5821H76.292V36.0845C76.292 35.5653 76.941 35.2192 77.9795 35.2192ZM85.227 42.8561C85.227 43.6782 85.1404 44.4138 84.8808 45.3008C84.6428 46.1445 83.864 46.4474 82.9554 46.3176C82.09 46.1661 81.3977 45.6469 81.614 44.7815C81.7655 44.1541 81.8088 43.808 81.8088 43.332C81.8088 42.683 81.4842 42.3585 80.8352 42.3585H71.857C71.1214 42.3585 70.6887 41.8825 70.6887 41.1902C70.6887 40.4979 71.1214 39.9787 71.857 39.9787H82.3496C84.3616 39.9787 85.227 40.8441 85.227 42.8561Z" fill="white"/>
</svg>
